<svg version="1.1" id="Layer_1" xmlns="http://www.w3.org/2000/svg" xmlns:xlink="http://www.w3.org/1999/xlink" x="0px" y="0px"
	 width="100%" viewBox="0 0 796 564" enable-background="new 0 0 796 564" xml:space="preserve">
<path fill="#FFFEFE" opacity="1.000000" stroke="none" 
	d="
M570.000000,565.000000 
	C380.000000,565.000000 190.500000,565.000000 1.000000,565.000000 
	C1.000000,377.000000 1.000000,189.000000 1.000000,1.000000 
	C266.333344,1.000000 531.666687,1.000000 797.000000,1.000000 
	C797.000000,189.000000 797.000000,377.000000 797.000000,565.000000 
	C721.500000,565.000000 646.000000,565.000000 570.000000,565.000000 
M103.934502,200.500000 
	C103.934502,213.941681 103.934502,227.383362 103.934502,240.937881 
	C149.920425,240.937881 195.293900,240.937881 240.784439,240.937881 
	C240.784439,195.204407 240.784439,149.813599 240.784439,104.310577 
	C195.100479,104.310577 149.717285,104.310577 103.934486,104.310577 
	C103.934486,136.249878 103.934486,167.874939 103.934502,200.500000 
M481.500000,103.997787 
	C456.416046,103.997787 431.332092,103.997787 406.284485,103.997787 
	C406.284485,150.108170 406.284485,195.506226 406.284485,240.890686 
	C452.001495,240.890686 497.373138,240.890686 542.740417,240.890686 
	C542.740417,195.114258 542.740417,149.727905 542.740417,103.997795 
	C522.432739,103.997795 502.466370,103.997795 481.500000,103.997787 
M654.500000,103.997978 
	C622.080078,103.997978 589.660156,103.997978 557.240112,103.997978 
	C557.240112,150.082397 557.240112,195.482605 557.240112,240.904785 
	C602.945740,240.904785 648.319458,240.904785 693.729736,240.904785 
	C693.729736,195.140778 693.729736,149.752762 693.729736,103.997971 
	C680.767090,103.997971 668.133545,103.997971 654.500000,103.997978 
M271.501526,241.283463 
	C311.582062,241.283463 351.662598,241.283463 391.806335,241.283463 
	C391.806335,195.161530 391.806335,149.774277 391.806335,104.325974 
	C346.086914,104.325974 300.702271,104.325974 255.289764,104.325974 
	C255.289764,150.065842 255.289764,195.470581 255.289764,241.283661 
	C260.565521,241.283661 265.534180,241.283661 271.501526,241.283463 
M109.156662,365.615906 
	C109.156662,362.870819 109.156662,360.125732 109.156662,357.380646 
	C109.497658,357.273956 109.838654,357.167297 110.179642,357.060608 
	C115.401146,364.402496 120.622643,371.744385 126.138031,379.499512 
	C131.693359,371.664459 136.888733,364.337036 142.084122,357.009613 
	C142.419037,357.126526 142.753952,357.243439 143.088867,357.360352 
	C143.088867,369.057587 143.088867,380.754822 143.088867,392.758514 
	C145.025864,392.635895 146.424057,392.547394 147.860809,392.456451 
	C147.860809,377.032562 147.860809,361.969666 147.860809,345.116486 
	C144.903336,347.068359 142.440170,347.943604 141.137787,349.686310 
	C136.083191,356.449677 131.397690,363.488892 126.145592,371.042755 
	C120.905144,363.565765 115.878036,356.597717 111.094589,349.466217 
	C109.213875,346.662323 107.152725,345.782623 104.121429,347.155029 
	C104.121429,362.117798 104.118515,376.925964 104.144676,391.734100 
	C104.145142,392.000488 104.493645,392.266327 104.856674,392.785370 
	C106.113953,392.665741 107.515892,392.532349 109.156677,392.376251 
	C109.156677,383.538910 109.156677,375.061859 109.156662,365.615906 
M282.722076,386.318665 
	C282.751434,382.319794 282.617096,378.311523 282.847107,374.324219 
	C283.227570,367.730164 287.010498,363.810852 292.572021,363.921570 
	C297.852203,364.026703 300.194946,367.171844 300.285797,374.514709 
	C300.359467,380.468994 300.300751,386.424896 300.300751,392.504517 
	C302.323456,392.504517 303.736908,392.504517 305.645477,392.504517 
	C305.645477,389.263458 305.639587,386.298492 305.647095,383.333557 
	C305.654694,380.334167 305.556122,377.328430 305.714844,374.336670 
	C306.077637,367.497345 309.530579,363.802765 315.266846,363.923889 
	C320.735138,364.039337 323.186157,367.115234 323.293365,374.272736 
	C323.382721,380.238464 323.311707,386.206635 323.311707,392.397430 
	C325.299469,392.397430 326.804291,392.397430 328.439819,392.397430 
	C328.439819,384.870331 328.930725,377.689056 328.321869,370.602264 
	C327.463013,360.605591 317.560211,355.743652 308.765533,360.610596 
	C307.073883,361.546722 305.652679,362.971436 304.991302,363.484528 
	C300.916718,361.829163 297.426697,359.389618 293.842926,359.243195 
	C290.272583,359.097321 286.608246,361.252075 284.315155,361.977417 
	C281.767853,360.978760 279.902985,360.247650 277.733154,359.397003 
	C277.733154,371.200897 277.733154,381.808075 277.733154,392.765564 
	C279.468719,392.673645 280.877533,392.598999 282.722321,392.501282 
	C282.722321,390.518890 282.722321,388.885620 282.722076,386.318665 
M366.042419,362.295319 
	C365.350372,363.228790 364.658325,364.162262 364.682312,364.129913 
	C361.153259,362.194824 358.350769,359.412964 355.536652,359.401154 
	C351.097046,359.382446 346.649567,361.224121 343.090240,362.068451 
	C341.373047,361.174133 339.684174,360.294586 337.335266,359.071320 
	C337.335266,371.048248 337.335266,381.629578 337.335266,392.478027 
	C338.959595,392.478027 340.341095,392.478027 342.183960,392.478027 
	C342.183960,389.937592 342.108826,387.637726 342.199768,385.344513 
	C342.383698,380.706665 342.201996,375.990814 343.013123,371.457825 
	C343.968781,366.116974 348.111969,363.425873 353.107849,363.931549 
	C357.501740,364.376282 359.904388,367.526154 360.005066,373.291931 
	C360.106689,379.113922 360.026154,384.938965 360.072906,390.762299 
	C360.077820,391.371643 360.403687,391.978424 360.652740,392.834137 
	C362.197021,392.673676 363.589142,392.529022 365.294922,392.351776 
	C365.294922,385.632141 364.913116,379.287842 365.402191,373.011414 
	C365.892090,366.724243 370.037872,363.458282 375.665039,363.924805 
	C380.556000,364.330292 382.960480,367.514832 383.029724,373.906036 
	C383.096008,380.021149 383.044006,386.137482 383.044006,392.488678 
	C384.919067,392.488678 386.304718,392.488678 388.151764,392.488678 
	C388.151764,385.951324 388.102570,379.663971 388.166901,373.377808 
	C388.220978,368.097046 387.123169,363.262115 382.085999,360.618042 
	C376.806824,357.846954 371.511414,358.284027 366.042419,362.295319 
M462.556885,348.971222 
	C462.556885,353.879303 462.556885,358.787384 462.556885,364.066711 
	C451.697479,357.149353 443.170807,357.477173 437.072510,364.639618 
	C431.525757,371.154297 431.625916,381.630798 437.296204,388.044678 
	C443.393494,394.941559 451.803711,395.200653 461.853607,388.801270 
	C463.211670,392.954437 463.211670,392.954437 467.460022,392.074280 
	C467.460022,376.395355 467.460022,360.692902 467.460022,345.009277 
	C464.397797,344.206116 462.090454,344.094330 462.556885,348.971222 
M123.391121,324.099976 
	C133.595001,323.401764 140.469315,317.716187 140.925247,308.454132 
	C141.431793,298.163849 141.041199,287.829376 141.041199,277.437714 
	C139.321960,277.437714 137.779404,277.437714 135.962738,277.437714 
	C135.962738,286.917084 136.075821,296.068573 135.930145,305.215973 
	C135.791580,313.916077 130.963928,318.936371 122.925323,319.121735 
	C114.244179,319.321930 109.084999,314.610199 108.912155,305.874237 
	C108.725166,296.422638 108.869812,286.964447 108.869812,277.098572 
	C106.703362,277.206207 105.151894,277.283264 103.407021,277.369965 
	C103.407021,287.606445 102.904503,297.444702 103.540085,307.208862 
	C104.259842,318.266022 110.894173,323.717712 123.391121,324.099976 
M128.616089,416.391205 
	C120.524109,416.391205 112.432121,416.391205 104.229195,416.391205 
	C104.229195,431.537109 104.229195,446.615601 104.229195,461.782318 
	C105.893021,461.782318 107.299271,461.782318 109.292595,461.782318 
	C109.292595,456.356873 109.292595,451.137146 109.292595,445.687317 
	C114.704544,445.687317 119.536057,445.859406 124.350777,445.648346 
	C132.231430,445.302887 137.813492,440.680023 139.021729,433.824768 
	C140.376862,426.136200 136.938232,420.026978 128.616089,416.391205 
M197.068466,376.497375 
	C197.068466,381.786285 197.068466,387.075195 197.068466,392.506042 
	C199.021881,392.506042 200.433136,392.506042 202.204819,392.506042 
	C202.204819,389.928253 202.129501,387.612366 202.220886,385.303131 
	C202.398071,380.826019 202.181183,376.258423 203.022217,371.901001 
	C204.121460,366.205719 208.695969,363.413177 214.523743,363.952820 
	C219.513214,364.414825 222.112717,367.529510 222.307266,373.732239 
	C222.489990,379.557526 222.399658,385.391113 222.475159,391.220490 
	C222.480759,391.652344 222.854797,392.079437 223.195770,392.801392 
	C224.573883,392.671722 225.965210,392.540802 227.451492,392.400940 
	C227.451492,385.030212 227.973022,378.010986 227.330994,371.099884 
	C226.332047,360.346649 215.994858,355.564392 206.667358,361.082031 
	C205.482529,361.782898 204.279007,362.452209 202.286194,363.592926 
	C202.286194,356.770233 202.286194,350.850708 202.286194,344.859314 
	C200.323853,344.859314 198.897003,344.859314 197.068481,344.859314 
	C197.068481,355.248993 197.068481,365.373566 197.068466,376.497375 
M234.102432,373.904205 
	C233.523163,381.092957 235.641373,387.243530 241.966278,391.060333 
	C249.341141,395.510742 256.457123,393.926239 263.395294,388.196350 
	C263.167816,393.142639 265.300079,393.529022 268.471588,392.190338 
	C268.471588,381.311401 268.471588,370.742371 268.471588,360.173309 
	C268.047333,359.807892 267.623077,359.442444 267.198822,359.077026 
	C265.527588,360.509552 263.856354,361.942078 262.156952,363.398712 
	C250.703247,354.633179 238.204849,358.724518 234.102432,373.904205 
M290.763702,443.695862 
	C290.006775,436.672516 286.940002,431.286499 279.853516,429.078369 
	C272.707489,426.851654 265.518341,428.866272 261.322601,434.295227 
	C256.580231,440.431427 256.232178,447.325348 259.468750,454.063110 
	C262.592987,460.567017 268.517639,463.146423 275.556396,462.905579 
	C282.159607,462.679596 287.137634,459.730835 289.556122,452.873505 
	C287.339813,452.983978 285.194580,453.497223 283.766205,454.797791 
	C279.559143,458.628418 274.788666,459.086884 269.822784,457.330933 
	C265.402863,455.768097 262.921906,452.427856 262.990692,447.145172 
	C271.026520,447.145172 278.835754,447.178589 286.644318,447.120178 
	C288.451324,447.106628 290.990814,447.958496 290.763702,443.695862 
M339.850128,456.328308 
	C339.885101,452.002747 339.695648,447.660889 340.008179,443.355469 
	C340.466370,437.042572 345.312866,432.807251 351.283997,433.101685 
	C356.842072,433.375763 359.859802,436.992401 359.957611,443.733582 
	C360.043976,449.687347 359.975708,455.643372 359.975708,461.631714 
	C361.900940,461.631714 363.404266,461.631714 365.014862,461.631714 
	C365.014862,454.605072 365.182007,447.952118 364.972473,441.311035 
	C364.711670,433.043549 358.910126,427.387909 351.165100,428.430389 
	C347.314148,428.948730 343.690765,431.157654 339.781128,432.672821 
	C339.781128,426.895020 339.781128,420.631378 339.781128,414.170288 
	C337.978394,414.170288 336.541840,414.170288 334.920563,414.170288 
	C334.920563,430.098083 334.920563,445.862213 334.920563,461.819336 
	C336.485626,461.819336 337.932556,461.819336 339.651459,461.819336 
	C339.721710,460.212524 339.785889,458.744385 339.850128,456.328308 
M520.014954,364.428650 
	C517.285828,371.290680 514.556702,378.152679 511.475006,385.901306 
	C506.565765,373.557190 501.919739,362.201233 497.566681,350.734131 
	C496.228638,347.209412 494.575775,345.456543 490.343933,347.185059 
	C496.207642,361.734283 501.981689,376.185303 507.933350,390.562805 
	C508.351807,391.573669 510.109253,392.653076 511.195740,392.605133 
	C512.519775,392.546722 514.530212,391.635132 514.976013,390.564667 
	C520.958313,376.200317 526.719116,361.743744 532.603149,347.140869 
	C528.834534,345.814392 526.774475,346.544525 525.578247,350.281830 
	C524.115051,354.853455 522.066589,359.237793 520.014954,364.428650 
M237.385437,316.969757 
	C244.065994,327.665924 263.514282,326.050842 266.809387,314.831116 
	C264.329712,312.905914 262.670715,313.733307 260.682037,315.972290 
	C257.294617,319.786072 251.189743,320.806763 246.435211,318.562714 
	C242.500702,316.705658 239.836700,313.781891 240.173996,308.388550 
	C249.430115,308.388550 258.476959,308.388550 267.451721,308.388550 
	C268.343811,297.965240 262.864624,290.778503 253.883255,289.845398 
	C247.284851,289.159851 241.594101,290.783112 237.757950,296.497406 
	C233.475586,302.876343 233.658493,309.579498 237.385437,316.969757 
M403.058319,385.423859 
	C401.895844,383.159302 400.733368,380.894714 399.165009,377.839539 
	C409.403717,377.839539 418.502472,377.839539 427.534210,377.839539 
	C428.749786,368.198029 423.903931,360.973969 415.403259,359.254211 
	C406.162079,357.384705 397.645081,362.553131 395.348999,371.424011 
	C392.967499,380.624908 397.481720,389.735474 405.827759,392.572113 
	C414.809570,395.624847 423.833527,392.057709 427.472290,382.978516 
	C425.117340,383.565094 423.055328,383.470520 421.955414,384.453033 
	C415.640381,390.094055 410.643280,390.622375 403.058319,385.423859 
M163.626892,428.773804 
	C153.642654,427.106445 145.239853,431.951874 142.953201,440.695160 
	C140.467606,450.199127 145.380051,459.414459 154.361115,462.095459 
	C163.724777,464.890656 173.138031,460.226654 176.097778,451.325653 
	C179.354538,441.531433 174.665405,432.533569 163.626892,428.773804 
M160.733490,388.769501 
	C161.935455,389.653351 163.039673,390.733948 164.355927,391.387726 
	C170.828705,394.602692 177.261459,394.476471 183.206482,390.249786 
	C189.469910,385.796783 191.237350,379.291565 189.752548,372.119995 
	C188.308044,365.143158 183.591782,360.853271 176.639908,359.289124 
	C169.363861,357.652039 161.830078,360.858978 158.025299,366.991608 
	C154.018066,373.450531 154.843292,381.435852 160.733490,388.769501 
M180.327042,311.521942 
	C180.325714,309.192139 180.324326,306.862366 180.323044,304.532562 
	C180.319839,298.721252 179.055252,293.384125 173.129288,290.911926 
	C167.084686,288.390350 161.408539,289.388702 156.586136,294.088837 
	C156.271255,294.395721 155.789902,294.531799 155.328491,294.778015 
	C155.078186,293.255005 154.852936,291.884338 154.583374,290.244110 
	C152.837067,290.443604 151.456940,290.601257 150.255356,290.738525 
	C150.255356,301.789368 150.255356,312.366364 150.255356,322.976562 
	C151.966507,322.976562 153.389435,322.976562 154.879822,322.976562 
	C154.943481,322.060364 155.015793,321.407043 155.030151,320.752441 
	C155.157516,314.937988 154.765778,309.054962 155.534821,303.327484 
	C156.338333,297.343262 161.277710,294.014435 166.948273,294.500916 
	C172.425278,294.970795 175.045502,298.226929 175.141205,304.943085 
	C175.225861,310.883392 175.158936,316.825836 175.158936,322.840668 
	C177.131424,322.840668 178.652100,322.840668 180.326797,322.840668 
	C180.326797,319.121521 180.326797,315.803314 180.327042,311.521942 
M400.202271,292.849365 
	C400.119598,292.038452 400.174286,290.568573 399.933014,290.518250 
	C397.463013,290.003235 395.647736,290.430084 394.512787,293.298584 
	C391.479980,300.963867 388.067596,308.478973 384.506104,316.750366 
	C380.796265,308.665680 377.229126,301.369232 374.109833,293.886108 
	C372.624542,290.323029 370.575500,289.717316 367.303802,290.807678 
	C367.411621,291.385254 367.407104,291.723694 367.536346,291.999481 
	C370.281921,297.859100 372.546997,304.016205 375.914307,309.495514 
	C381.200897,318.097870 382.633179,326.378906 376.609497,335.100403 
	C376.308350,335.536407 376.320984,336.189056 376.209442,336.650055 
	C379.947998,338.053802 381.538635,336.446106 382.846222,333.331848 
	C388.433105,320.026093 394.235596,306.810913 400.202271,292.849365 
M211.174988,468.800781 
	C216.841125,455.738892 222.507263,442.677032 228.179459,429.601196 
	C224.153534,428.056122 222.443375,429.734802 221.127258,433.044647 
	C218.207718,440.386810 214.965973,447.600830 211.605576,455.451141 
	C207.940613,447.514862 204.373520,440.376831 201.358673,433.012695 
	C199.868668,429.373199 197.941360,428.246613 194.074142,429.564575 
	C197.259491,436.349487 199.881775,443.232910 203.577866,449.481201 
	C208.257324,457.391968 209.765656,464.874359 204.081482,472.806488 
	C203.550842,473.547028 203.476105,474.614288 203.200058,475.496643 
	C209.219040,477.729370 209.208542,472.546143 211.174988,468.800781 
M297.638092,313.156677 
	C296.570526,313.568329 295.502991,313.979980 294.427856,314.394562 
	C298.075073,322.761810 307.332642,326.459259 315.724030,323.026337 
	C319.898956,321.318359 322.813354,318.470001 322.694244,313.695007 
	C322.581635,309.182831 319.421478,307.065308 315.511322,305.825897 
	C311.715881,304.622803 307.838806,303.625519 304.158325,302.139648 
	C302.868561,301.618958 301.266602,299.930603 301.242950,298.746765 
	C301.218109,297.499969 302.641083,295.686188 303.900879,295.050598 
	C308.022552,292.971252 311.834869,294.010101 315.496002,296.733215 
	C316.964600,297.825500 319.069305,298.062561 320.884460,298.688873 
	C317.082581,290.112518 307.853180,287.093567 301.212128,291.391663 
	C298.798370,292.953827 296.762177,296.303284 296.166718,299.172058 
	C295.389160,302.918304 298.601654,305.075867 301.930511,306.245026 
	C305.685486,307.563843 309.661987,308.348145 313.253723,309.994293 
	C315.018799,310.803192 317.402405,313.203094 317.218201,314.575989 
	C316.990845,316.270203 314.636627,318.358124 312.756836,319.027679 
	C306.400543,321.291809 302.033234,317.812286 297.638092,313.156677 
M378.875397,445.796997 
	C379.323303,437.617462 383.292145,433.038818 389.882874,433.098236 
	C396.250519,433.155640 398.974365,436.957062 398.984650,445.816376 
	C398.990784,451.106415 398.985779,456.396454 398.985779,461.781067 
	C400.868439,461.781067 402.272034,461.781067 403.935791,461.781067 
	C403.935791,454.263336 404.344818,446.939301 403.824097,439.682037 
	C403.271301,431.977539 396.554626,426.983765 389.036194,428.548370 
	C385.538666,429.276215 382.330475,431.394501 378.923248,432.912781 
	C379.594604,428.851929 377.357849,428.542145 373.989014,429.425354 
	C373.989014,440.317566 373.989014,450.923340 373.989014,461.964111 
	C375.711578,461.885681 377.212555,461.817352 378.873474,461.741730 
	C378.873474,456.372955 378.873474,451.552063 378.875397,445.796997 
M295.826050,444.621887 
	C296.095245,454.740021 301.282379,461.312164 310.144012,462.762878 
	C317.945343,464.040009 324.982056,460.169983 327.263275,452.368439 
	C325.330963,452.562164 323.202118,452.882996 321.991272,454.109863 
	C317.032990,459.133911 309.392059,459.606232 304.584259,454.866425 
	C299.506134,449.860107 299.609741,440.875275 304.801575,436.012360 
	C309.601318,431.516785 317.341675,431.791718 321.631836,437.152130 
	C323.777069,439.832611 325.409973,439.509613 327.728729,438.100708 
	C324.699280,431.082733 318.308105,427.420563 310.945190,428.351379 
	C302.484955,429.420898 297.105530,434.914948 295.826050,444.621887 
M446.475311,462.256042 
	C451.349152,460.919403 454.848083,458.082031 456.226166,452.554199 
	C454.123718,452.572052 452.046661,452.952118 450.825073,454.181915 
	C445.842377,459.198090 438.205017,459.599762 433.414856,454.799377 
	C428.524170,449.898254 428.516632,441.180420 433.398773,436.287384 
	C438.176849,431.498718 446.141327,431.693390 450.579346,437.232330 
	C452.778748,439.977234 454.374603,439.500000 456.636871,438.019043 
	C453.484039,431.004791 447.050171,427.396301 439.720123,428.379364 
	C429.418030,429.761047 423.350311,438.147797 424.926971,448.826538 
	C426.342987,458.417297 434.821747,463.999542 446.475311,462.256042 
M346.656738,284.740814 
	C346.656738,286.483673 346.656738,288.226501 346.656738,290.053467 
	C344.132996,290.268005 342.346069,290.419891 340.387268,290.586395 
	C340.387268,292.137054 340.387268,293.479889 340.387268,294.797333 
	C342.638916,295.028198 344.550720,295.224243 346.655945,295.440125 
	C346.655945,301.098907 346.616333,306.416992 346.664246,311.734314 
	C346.762146,322.597137 352.192230,326.163574 362.971710,322.127533 
	C362.517578,320.823334 362.060364,319.510376 361.622589,318.253143 
	C357.583099,318.942810 352.841064,320.631500 352.162201,315.021332 
	C351.377869,308.539642 351.979767,301.890167 351.979767,294.930634 
	C355.940460,294.930634 359.371002,294.930634 363.176453,294.930634 
	C362.922363,293.136200 362.731445,291.788086 362.499390,290.149292 
	C358.787628,290.149292 355.521942,290.149292 351.819244,290.149292 
	C351.819244,286.377869 351.819244,282.948456 351.819244,279.289703 
	C349.938904,279.289703 348.511780,279.289703 346.657043,279.289703 
	C346.657043,280.887543 346.657043,282.354950 346.656738,284.740814 
M232.553726,290.731689 
	C228.921478,289.373840 227.230103,291.029480 225.918716,294.376526 
	C223.007309,301.807312 219.733017,309.095947 216.152481,317.509888 
	C212.472595,308.927429 209.295593,301.490997 206.095398,294.064575 
	C204.284500,289.862152 204.267334,289.869537 199.385620,291.254974 
	C204.016083,301.915924 208.631287,312.541779 213.191055,323.039978 
	C218.909317,323.389130 218.913055,323.390747 221.066269,318.419891 
	C224.959076,309.433014 228.846939,300.444000 232.553726,290.731689 
M238.020538,436.729614 
	C238.021729,441.723053 237.948578,446.717896 238.040939,451.709656 
	C238.193054,459.930847 242.600357,463.440948 250.670792,462.155914 
	C254.619568,461.527130 254.965622,459.917267 252.835739,457.036896 
	C246.192734,458.395477 243.433044,457.258423 243.201782,452.647064 
	C242.895844,446.546509 243.126465,440.419037 243.126465,433.886902 
	C246.962891,433.886902 250.382080,433.886902 254.036423,433.886902 
	C254.036423,432.077484 254.036423,430.692322 254.036423,428.911011 
	C250.296005,428.911011 246.870651,428.911011 243.042786,428.911011 
	C243.042786,425.101776 243.042786,421.681213 243.042786,418.133118 
	C241.216705,418.133118 239.820923,418.133118 237.850647,418.133118 
	C237.850647,421.888824 237.850647,425.429321 237.850647,428.916168 
	C235.497513,429.051392 233.721893,429.153442 231.550476,429.278259 
	C231.697418,431.004242 231.813919,432.372742 231.823807,432.488831 
	C234.493332,433.911255 236.253998,434.849396 238.020538,436.729614 
M188.374847,414.093964 
	C186.971558,414.093964 185.568253,414.093964 184.302551,414.093964 
	C184.302551,430.415039 184.302551,446.155243 184.302551,462.118774 
	C186.054138,461.942657 187.456177,461.801666 188.928543,461.653625 
	C188.928543,445.809326 188.928543,430.334625 188.374847,414.093964 
M290.217712,294.773956 
	C290.872406,293.424591 291.527130,292.075226 292.181824,290.725891 
	C291.715088,290.204987 291.248322,289.684082 290.781586,289.163177 
	C287.187958,290.633392 283.594360,292.103607 280.171265,293.504028 
	C280.569427,290.066437 278.405060,289.707672 275.079315,290.842468 
	C275.079315,301.650330 275.079315,312.228394 275.079315,323.225800 
	C276.816406,323.133820 278.336548,323.053314 280.026276,322.963837 
	C280.026276,316.791595 279.841400,311.138519 280.073639,305.502686 
	C280.356689,298.632965 283.070557,295.715179 290.217712,294.773956 
M542.991760,369.500000 
	C542.991760,362.034058 542.991760,354.568115 542.991760,346.953827 
	C541.100464,346.953827 539.567505,346.953827 538.211365,346.953827 
	C538.211365,362.391815 538.211365,377.464264 538.211365,392.844238 
	C540.034241,392.657135 541.430725,392.513824 542.991760,392.353607 
	C542.991760,384.811859 542.991760,377.655914 542.991760,369.500000 
M329.751373,313.411255 
	C329.751373,316.543976 329.751373,319.676666 329.751373,323.248962 
	C331.700134,323.150818 333.243042,323.073120 334.572906,323.006165 
	C334.572906,311.904205 334.572906,301.313263 334.572906,290.369049 
	C332.841614,290.469666 331.447754,290.550629 329.751556,290.649200 
	C329.751556,298.163422 329.751556,305.300873 329.751373,313.411255 
M417.889832,431.855774 
	C417.957092,427.756256 415.275391,429.312042 413.038147,429.173157 
	C413.038147,440.272339 413.038147,450.959167 413.038147,461.762695 
	C414.681152,461.762695 416.074310,461.762695 417.891022,461.762695 
	C417.891022,451.941589 417.891022,442.366394 417.889832,431.855774 
M194.028915,296.659027 
	C194.028915,294.712891 194.028915,292.766754 194.028915,290.680054 
	C192.129242,290.680054 190.742828,290.680054 189.315887,290.680054 
	C189.315887,301.665131 189.315887,312.363403 189.315887,323.314301 
	C191.054718,323.143433 192.448853,323.006409 194.028992,322.851105 
	C194.028992,314.197571 194.028992,305.909668 194.028915,296.659027 
M331.162109,277.736115 
	C330.478149,279.345917 329.794189,280.955750 329.110260,282.565582 
	C330.398102,283.107666 331.819946,284.262207 332.935822,284.018158 
	C334.031860,283.778381 335.770233,281.475281 335.577515,281.189392 
	C334.626434,279.778442 333.127930,278.736481 331.162109,277.736115 
M193.587296,278.120728 
	C191.797913,278.644073 189.929321,279.011322 188.295288,279.840698 
	C188.015045,279.982910 188.362503,282.742371 189.075974,283.152954 
	C190.282944,283.847565 193.056671,284.193024 193.325211,283.693207 
	C194.084717,282.279572 193.907898,280.362885 193.587296,278.120728 
M418.356384,418.138580 
	C416.707153,417.671844 415.037323,416.843353 413.419922,416.935425 
	C412.857147,416.967438 411.819244,419.437927 412.103455,420.498657 
	C412.381744,421.537323 414.738098,423.089600 415.021484,422.876068 
	C416.447449,421.801422 417.493591,420.222748 418.356384,418.138580 
z"/>
<path fill="#D84C2D" opacity="1.000000" stroke="none" 
	d="
M103.934494,200.000000 
	C103.934486,167.874939 103.934486,136.249878 103.934486,104.310577 
	C149.717285,104.310577 195.100479,104.310577 240.784439,104.310577 
	C240.784439,149.813599 240.784439,195.204407 240.784439,240.937881 
	C195.293900,240.937881 149.920425,240.937881 103.934502,240.937881 
	C103.934502,227.383362 103.934502,213.941681 103.934494,200.000000 
M155.825623,147.504059 
	C155.825623,142.400681 155.825623,137.297302 155.825623,132.185486 
	C148.860428,132.185486 142.624908,132.185486 136.006836,132.185486 
	C136.006836,148.806976 135.880341,165.093826 136.040024,181.377884 
	C136.224380,200.176834 147.174759,212.557602 165.846313,215.459351 
	C191.412994,219.432678 208.963257,204.542404 209.030869,178.780914 
	C209.067581,164.794006 209.038818,150.806915 209.039566,136.819916 
	C209.039642,135.237274 209.039566,133.654633 209.039566,132.271088 
	C201.996307,132.271088 195.767517,132.271088 189.200333,132.271088 
	C189.200333,134.497467 189.201721,136.305237 189.200119,138.113007 
	C189.187500,152.432846 189.289932,166.754074 189.117218,181.071991 
	C189.016403,189.430939 184.838730,195.216705 178.131149,197.115219 
	C165.837021,200.594940 156.216034,193.746460 155.909744,180.970398 
	C155.650391,170.153244 155.836472,159.325394 155.825623,147.504059 
z"/>
<path fill="#D84C2D" opacity="1.000000" stroke="none" 
	d="
M482.000000,103.997787 
	C502.466370,103.997795 522.432739,103.997795 542.740417,103.997795 
	C542.740417,149.727905 542.740417,195.114258 542.740417,240.890686 
	C497.373138,240.890686 452.001495,240.890686 406.284485,240.890686 
	C406.284485,195.506226 406.284485,150.108170 406.284485,103.997787 
	C431.332092,103.997787 456.416046,103.997787 482.000000,103.997787 
M496.049011,208.580490 
	C504.212738,201.729645 507.815399,192.959717 506.347107,182.438080 
	C504.098328,166.323486 492.875275,159.532211 477.893250,156.805939 
	C483.163635,148.334015 488.089172,140.416397 493.414825,131.855606 
	C486.164764,131.855606 480.011688,131.746567 473.868774,131.947647 
	C472.640900,131.987839 470.974640,132.906296 470.317322,133.935211 
	C462.171234,146.686798 453.759460,159.296768 446.261505,172.426010 
	C439.362946,184.505646 441.633850,197.637115 451.002960,206.764542 
	C462.622498,218.084366 481.618927,219.051636 496.049011,208.580490 
z"/>
<path fill="#D84C2D" opacity="1.000000" stroke="none" 
	d="
M655.000000,103.997971 
	C668.133545,103.997971 680.767090,103.997971 693.729736,103.997971 
	C693.729736,149.752762 693.729736,195.140778 693.729736,240.904785 
	C648.319458,240.904785 602.945740,240.904785 557.240112,240.904785 
	C557.240112,195.482605 557.240112,150.082397 557.240112,103.997978 
	C589.660156,103.997978 622.080078,103.997978 655.000000,103.997971 
M609.500854,131.386749 
	C603.410950,131.386749 597.321106,131.386749 591.220947,131.386749 
	C591.220947,159.268997 591.220947,186.357117 591.220947,213.652557 
	C597.555237,213.652557 603.614746,213.652557 610.288269,213.652557 
	C610.288269,205.977890 610.288269,198.580536 610.288269,190.910385 
	C617.553528,190.910385 624.209717,191.046753 630.858459,190.883102 
	C646.591675,190.495789 659.340271,178.199142 659.984131,162.952530 
	C660.677063,146.543930 649.667908,133.262451 633.467041,131.740250 
	C625.867615,131.026230 618.159485,131.468719 609.500854,131.386749 
z"/>
<path fill="#D84D2E" opacity="1.000000" stroke="none" 
	d="
M271.002197,241.283569 
	C265.534180,241.283661 260.565521,241.283661 255.289764,241.283661 
	C255.289764,195.470581 255.289764,150.065842 255.289764,104.325974 
	C300.702271,104.325974 346.086914,104.325974 391.806335,104.325974 
	C391.806335,149.774277 391.806335,195.161530 391.806335,241.283463 
	C351.662598,241.283463 311.582062,241.283463 271.002197,241.283569 
M320.246887,163.169601 
	C313.737549,153.697845 307.275970,144.192505 300.666229,134.791367 
	C299.699097,133.415817 298.085876,131.677780 296.669556,131.579575 
	C291.242004,131.203293 285.772827,131.427338 280.365601,131.427338 
	C280.365601,159.266098 280.365601,186.481491 280.365601,213.546249 
	C286.863831,213.546249 292.935730,213.546249 299.484009,213.546249 
	C299.484009,197.923004 299.484009,182.689636 299.484009,167.456268 
	C299.796326,167.346771 300.108643,167.237274 300.420929,167.127777 
	C308.024445,177.481644 315.627960,187.835526 323.560059,198.636856 
	C331.643005,187.638489 339.312164,177.203140 346.981354,166.767807 
	C347.377502,166.960556 347.773651,167.153305 348.169800,167.346054 
	C348.169800,182.763641 348.169800,198.181213 348.169800,213.591309 
	C354.689484,213.591309 360.760468,213.591309 366.892944,213.591309 
	C366.892944,186.143234 366.892944,159.048019 366.892944,131.419174 
	C361.323456,131.419174 356.014160,131.201065 350.744568,131.562256 
	C349.306915,131.660797 347.627655,133.244919 346.675720,134.585144 
	C341.467896,141.917053 336.460083,149.390854 331.366943,156.804474 
	C328.877960,160.427429 326.352997,164.025620 323.658966,167.901688 
	C322.409088,166.154358 321.540344,164.939850 320.246887,163.169601 
z"/>
<path fill="#404040" opacity="1.000000" stroke="none" 
	d="
M109.156670,366.100372 
	C109.156677,375.061859 109.156677,383.538910 109.156677,392.376251 
	C107.515892,392.532349 106.113953,392.665741 104.856674,392.785370 
	C104.493645,392.266327 104.145142,392.000488 104.144676,391.734100 
	C104.118515,376.925964 104.121429,362.117798 104.121429,347.155029 
	C107.152725,345.782623 109.213875,346.662323 111.094589,349.466217 
	C115.878036,356.597717 120.905144,363.565765 126.145592,371.042755 
	C131.397690,363.488892 136.083191,356.449677 141.137787,349.686310 
	C142.440170,347.943604 144.903336,347.068359 147.860809,345.116486 
	C147.860809,361.969666 147.860809,377.032562 147.860809,392.456451 
	C146.424057,392.547394 145.025864,392.635895 143.088867,392.758514 
	C143.088867,380.754822 143.088867,369.057587 143.088867,357.360352 
	C142.753952,357.243439 142.419037,357.126526 142.084122,357.009613 
	C136.888733,364.337036 131.693359,371.664459 126.138031,379.499512 
	C120.622643,371.744385 115.401146,364.402496 110.179642,357.060608 
	C109.838654,357.167297 109.497658,357.273956 109.156662,357.380646 
	C109.156662,360.125732 109.156662,362.870819 109.156670,366.100372 
z"/>
<path fill="#4D4D4D" opacity="1.000000" stroke="none" 
	d="
M282.722198,386.785522 
	C282.722321,388.885620 282.722321,390.518890 282.722321,392.501282 
	C280.877533,392.598999 279.468719,392.673645 277.733154,392.765564 
	C277.733154,381.808075 277.733154,371.200897 277.733154,359.397003 
	C279.902985,360.247650 281.767853,360.978760 284.315155,361.977417 
	C286.608246,361.252075 290.272583,359.097321 293.842926,359.243195 
	C297.426697,359.389618 300.916718,361.829163 304.991302,363.484528 
	C305.652679,362.971436 307.073883,361.546722 308.765533,360.610596 
	C317.560211,355.743652 327.463013,360.605591 328.321869,370.602264 
	C328.930725,377.689056 328.439819,384.870331 328.439819,392.397430 
	C326.804291,392.397430 325.299469,392.397430 323.311707,392.397430 
	C323.311707,386.206635 323.382721,380.238464 323.293365,374.272736 
	C323.186157,367.115234 320.735138,364.039337 315.266846,363.923889 
	C309.530579,363.802765 306.077637,367.497345 305.714844,374.336670 
	C305.556122,377.328430 305.654694,380.334167 305.647095,383.333557 
	C305.639587,386.298492 305.645477,389.263458 305.645477,392.504517 
	C303.736908,392.504517 302.323456,392.504517 300.300751,392.504517 
	C300.300751,386.424896 300.359467,380.468994 300.285797,374.514709 
	C300.194946,367.171844 297.852203,364.026703 292.572021,363.921570 
	C287.010498,363.810852 283.227570,367.730164 282.847107,374.324219 
	C282.617096,378.311523 282.751434,382.319794 282.722198,386.785522 
z"/>
<path fill="#444444" opacity="1.000000" stroke="none" 
	d="
M366.320435,362.070801 
	C371.511414,358.284027 376.806824,357.846954 382.085999,360.618042 
	C387.123169,363.262115 388.220978,368.097046 388.166901,373.377808 
	C388.102570,379.663971 388.151764,385.951324 388.151764,392.488678 
	C386.304718,392.488678 384.919067,392.488678 383.044006,392.488678 
	C383.044006,386.137482 383.096008,380.021149 383.029724,373.906036 
	C382.960480,367.514832 380.556000,364.330292 375.665039,363.924805 
	C370.037872,363.458282 365.892090,366.724243 365.402191,373.011414 
	C364.913116,379.287842 365.294922,385.632141 365.294922,392.351776 
	C363.589142,392.529022 362.197021,392.673676 360.652740,392.834137 
	C360.403687,391.978424 360.077820,391.371643 360.072906,390.762299 
	C360.026154,384.938965 360.106689,379.113922 360.005066,373.291931 
	C359.904388,367.526154 357.501740,364.376282 353.107849,363.931549 
	C348.111969,363.425873 343.968781,366.116974 343.013123,371.457825 
	C342.201996,375.990814 342.383698,380.706665 342.199768,385.344513 
	C342.108826,387.637726 342.183960,389.937592 342.183960,392.478027 
	C340.341095,392.478027 338.959595,392.478027 337.335266,392.478027 
	C337.335266,381.629578 337.335266,371.048248 337.335266,359.071320 
	C339.684174,360.294586 341.373047,361.174133 343.090240,362.068451 
	C346.649567,361.224121 351.097046,359.382446 355.536652,359.401154 
	C358.350769,359.412964 361.153259,362.194824 364.682312,364.129913 
	C364.658325,364.162262 365.350372,363.228790 366.320435,362.070801 
z"/>
<path fill="#484848" opacity="1.000000" stroke="none" 
	d="
M462.557343,348.533997 
	C462.090454,344.094330 464.397797,344.206116 467.460022,345.009277 
	C467.460022,360.692902 467.460022,376.395355 467.460022,392.074280 
	C463.211670,392.954437 463.211670,392.954437 461.853607,388.801270 
	C451.803711,395.200653 443.393494,394.941559 437.296204,388.044678 
	C431.625916,381.630798 431.525757,371.154297 437.072510,364.639618 
	C443.170807,357.477173 451.697479,357.149353 462.556885,364.066711 
	C462.556885,358.787384 462.556885,353.879303 462.557343,348.533997 
M455.798004,387.630554 
	C456.986877,386.730682 458.317474,385.967316 459.339355,384.906586 
	C463.179626,380.920135 463.785492,374.456360 460.895294,369.643311 
	C457.899689,364.654816 451.757416,362.436035 446.113739,364.303833 
	C441.119324,365.956696 437.834259,371.077698 438.083069,376.822510 
	C438.468353,385.719299 445.794678,390.506836 455.798004,387.630554 
z"/>
<path fill="#464646" opacity="1.000000" stroke="none" 
	d="
M122.941566,324.106842 
	C110.894173,323.717712 104.259842,318.266022 103.540085,307.208862 
	C102.904503,297.444702 103.407021,287.606445 103.407021,277.369965 
	C105.151894,277.283264 106.703362,277.206207 108.869812,277.098572 
	C108.869812,286.964447 108.725166,296.422638 108.912155,305.874237 
	C109.084999,314.610199 114.244179,319.321930 122.925323,319.121735 
	C130.963928,318.936371 135.791580,313.916077 135.930145,305.215973 
	C136.075821,296.068573 135.962738,286.917084 135.962738,277.437714 
	C137.779404,277.437714 139.321960,277.437714 141.041199,277.437714 
	C141.041199,287.829376 141.431793,298.163849 140.925247,308.454132 
	C140.469315,317.716187 133.595001,323.401764 122.941566,324.106842 
z"/>
<path fill="#414141" opacity="1.000000" stroke="none" 
	d="
M128.999451,416.545471 
	C136.938232,420.026978 140.376862,426.136200 139.021729,433.824768 
	C137.813492,440.680023 132.231430,445.302887 124.350777,445.648346 
	C119.536057,445.859406 114.704544,445.687317 109.292595,445.687317 
	C109.292595,451.137146 109.292595,456.356873 109.292595,461.782318 
	C107.299271,461.782318 105.893021,461.782318 104.229195,461.782318 
	C104.229195,446.615601 104.229195,431.537109 104.229195,416.391205 
	C112.432121,416.391205 120.524109,416.391205 128.999451,416.545471 
M109.113060,422.751129 
	C109.113060,428.670044 109.113060,434.588959 109.113060,440.822693 
	C114.909248,440.822693 120.209816,441.181580 125.437073,440.716492 
	C130.169037,440.295471 133.283997,437.331116 134.041046,432.445221 
	C134.789902,427.612274 132.490021,422.328979 128.100647,421.756592 
	C121.906250,420.948822 115.507515,421.707977 109.113060,422.751129 
z"/>
<path fill="#494949" opacity="1.000000" stroke="none" 
	d="
M197.068481,375.997772 
	C197.068481,365.373566 197.068481,355.248993 197.068481,344.859314 
	C198.897003,344.859314 200.323853,344.859314 202.286194,344.859314 
	C202.286194,350.850708 202.286194,356.770233 202.286194,363.592926 
	C204.279007,362.452209 205.482529,361.782898 206.667358,361.082031 
	C215.994858,355.564392 226.332047,360.346649 227.330994,371.099884 
	C227.973022,378.010986 227.451492,385.030212 227.451492,392.400940 
	C225.965210,392.540802 224.573883,392.671722 223.195770,392.801392 
	C222.854797,392.079437 222.480759,391.652344 222.475159,391.220490 
	C222.399658,385.391113 222.489990,379.557526 222.307266,373.732239 
	C222.112717,367.529510 219.513214,364.414825 214.523743,363.952820 
	C208.695969,363.413177 204.121460,366.205719 203.022217,371.901001 
	C202.181183,376.258423 202.398071,380.826019 202.220886,385.303131 
	C202.129501,387.612366 202.204819,389.928253 202.204819,392.506042 
	C200.433136,392.506042 199.021881,392.506042 197.068466,392.506042 
	C197.068466,387.075195 197.068466,381.786285 197.068481,375.997772 
z"/>
<path fill="#474747" opacity="1.000000" stroke="none" 
	d="
M234.155014,373.481903 
	C238.204849,358.724518 250.703247,354.633179 262.156952,363.398712 
	C263.856354,361.942078 265.527588,360.509552 267.198822,359.077026 
	C267.623077,359.442444 268.047333,359.807892 268.471588,360.173309 
	C268.471588,370.742371 268.471588,381.311401 268.471588,392.190338 
	C265.300079,393.529022 263.167816,393.142639 263.395294,388.196350 
	C256.457123,393.926239 249.341141,395.510742 241.966278,391.060333 
	C235.641373,387.243530 233.523163,381.092957 234.155014,373.481903 
M256.306580,364.714630 
	C247.622360,362.348541 241.400238,365.403992 239.477386,372.978851 
	C237.654968,380.158051 241.843857,387.149963 248.864594,388.647583 
	C254.269501,389.800507 260.194183,386.830078 262.533600,381.794403 
	C265.353271,375.724976 263.331909,369.551392 256.306580,364.714630 
z"/>
<path fill="#484848" opacity="1.000000" stroke="none" 
	d="
M290.778107,444.127930 
	C290.990814,447.958496 288.451324,447.106628 286.644318,447.120178 
	C278.835754,447.178589 271.026520,447.145172 262.990692,447.145172 
	C262.921906,452.427856 265.402863,455.768097 269.822784,457.330933 
	C274.788666,459.086884 279.559143,458.628418 283.766205,454.797791 
	C285.194580,453.497223 287.339813,452.983978 289.556122,452.873505 
	C287.137634,459.730835 282.159607,462.679596 275.556396,462.905579 
	C268.517639,463.146423 262.592987,460.567017 259.468750,454.063110 
	C256.232178,447.325348 256.580231,440.431427 261.322601,434.295227 
	C265.518341,428.866272 272.707489,426.851654 279.853516,429.078369 
	C286.940002,431.286499 290.006775,436.672516 290.778107,444.127930 
M262.953308,442.019745 
	C263.381500,442.424622 263.806030,443.177765 264.238495,443.182343 
	C271.167542,443.256104 278.097626,443.234344 285.040314,443.234344 
	C284.761658,437.460754 281.989655,434.081055 277.070465,433.124084 
	C270.633636,431.871857 265.970306,434.545563 262.953308,442.019745 
z"/>
<path fill="#434343" opacity="1.000000" stroke="none" 
	d="
M339.850098,456.802277 
	C339.785889,458.744385 339.721710,460.212524 339.651459,461.819336 
	C337.932556,461.819336 336.485626,461.819336 334.920563,461.819336 
	C334.920563,445.862213 334.920563,430.098083 334.920563,414.170288 
	C336.541840,414.170288 337.978394,414.170288 339.781128,414.170288 
	C339.781128,420.631378 339.781128,426.895020 339.781128,432.672821 
	C343.690765,431.157654 347.314148,428.948730 351.165100,428.430389 
	C358.910126,427.387909 364.711670,433.043549 364.972473,441.311035 
	C365.182007,447.952118 365.014862,454.605072 365.014862,461.631714 
	C363.404266,461.631714 361.900940,461.631714 359.975708,461.631714 
	C359.975708,455.643372 360.043976,449.687347 359.957611,443.733582 
	C359.859802,436.992401 356.842072,433.375763 351.283997,433.101685 
	C345.312866,432.807251 340.466370,437.042572 340.008179,443.355469 
	C339.695648,447.660889 339.885101,452.002747 339.850098,456.802277 
z"/>
<path fill="#454545" opacity="1.000000" stroke="none" 
	d="
M520.143066,364.065887 
	C522.066589,359.237793 524.115051,354.853455 525.578247,350.281830 
	C526.774475,346.544525 528.834534,345.814392 532.603149,347.140869 
	C526.719116,361.743744 520.958313,376.200317 514.976013,390.564667 
	C514.530212,391.635132 512.519775,392.546722 511.195740,392.605133 
	C510.109253,392.653076 508.351807,391.573669 507.933350,390.562805 
	C501.981689,376.185303 496.207642,361.734283 490.343933,347.185059 
	C494.575775,345.456543 496.228638,347.209412 497.566681,350.734131 
	C501.919739,362.201233 506.565765,373.557190 511.475006,385.901306 
	C514.556702,378.152679 517.285828,371.290680 520.143066,364.065887 
z"/>
<path fill="#434343" opacity="1.000000" stroke="none" 
	d="
M237.189682,316.649536 
	C233.658493,309.579498 233.475586,302.876343 237.757950,296.497406 
	C241.594101,290.783112 247.284851,289.159851 253.883255,289.845398 
	C262.864624,290.778503 268.343811,297.965240 267.451721,308.388550 
	C258.476959,308.388550 249.430115,308.388550 240.173996,308.388550 
	C239.836700,313.781891 242.500702,316.705658 246.435211,318.562714 
	C251.189743,320.806763 257.294617,319.786072 260.682037,315.972290 
	C262.670715,313.733307 264.329712,312.905914 266.809387,314.831116 
	C263.514282,326.050842 244.065994,327.665924 237.189682,316.649536 
M254.381531,304.773651 
	C257.100769,304.773651 259.820007,304.773651 262.681488,304.773651 
	C261.054688,296.907318 256.437653,293.347382 249.894531,294.156158 
	C243.993149,294.885620 240.126541,299.149994 240.472916,304.776459 
	C244.778152,304.776459 249.098251,304.776459 254.381531,304.773651 
z"/>
<path fill="#444444" opacity="1.000000" stroke="none" 
	d="
M403.334991,385.692474 
	C410.643280,390.622375 415.640381,390.094055 421.955414,384.453033 
	C423.055328,383.470520 425.117340,383.565094 427.472290,382.978516 
	C423.833527,392.057709 414.809570,395.624847 405.827759,392.572113 
	C397.481720,389.735474 392.967499,380.624908 395.348999,371.424011 
	C397.645081,362.553131 406.162079,357.384705 415.403259,359.254211 
	C423.903931,360.973969 428.749786,368.198029 427.534210,377.839539 
	C418.502472,377.839539 409.403717,377.839539 399.165009,377.839539 
	C400.733368,380.894714 401.895844,383.159302 403.334991,385.692474 
M421.238983,368.466644 
	C417.511169,364.063385 412.636383,362.379578 407.607635,364.162079 
	C403.252289,365.705902 400.549042,368.795471 400.090027,373.687561 
	C407.774261,373.687561 415.249573,373.687561 423.112000,373.687561 
	C422.552612,371.892426 422.118683,370.499817 421.238983,368.466644 
z"/>
<path fill="#454545" opacity="1.000000" stroke="none" 
	d="
M164.023590,428.845947 
	C174.665405,432.533569 179.354538,441.531433 176.097778,451.325653 
	C173.138031,460.226654 163.724777,464.890656 154.361115,462.095459 
	C145.380051,459.414459 140.467606,450.199127 142.953201,440.695160 
	C145.239853,431.951874 153.642654,427.106445 164.023590,428.845947 
M166.346268,434.906586 
	C165.290497,434.427948 164.277481,433.782379 163.171677,433.499176 
	C158.043823,432.185944 153.524033,433.326324 150.146027,437.492828 
	C146.809296,441.608429 146.317123,446.360596 148.535934,451.096069 
	C150.788940,455.904541 154.801300,458.257935 160.205124,458.056763 
	C165.408951,457.862976 169.001160,455.284821 171.001724,450.572906 
	C173.322464,445.106842 171.976730,440.233154 166.346268,434.906586 
z"/>
<path fill="#444444" opacity="1.000000" stroke="none" 
	d="
M160.478104,388.512329 
	C154.843292,381.435852 154.018066,373.450531 158.025299,366.991608 
	C161.830078,360.858978 169.363861,357.652039 176.639908,359.289124 
	C183.591782,360.853271 188.308044,365.143158 189.752548,372.119995 
	C191.237350,379.291565 189.469910,385.796783 183.206482,390.249786 
	C177.261459,394.476471 170.828705,394.602692 164.355927,391.387726 
	C163.039673,390.733948 161.935455,389.653351 160.478104,388.512329 
M174.150848,388.790222 
	C175.277588,388.503876 176.450729,388.335052 177.523392,387.911682 
	C183.381836,385.599365 186.441269,379.103088 184.763153,372.668121 
	C183.224487,366.767883 177.992691,363.288055 171.477112,363.831146 
	C165.395477,364.338104 160.958115,369.073364 160.607773,375.430145 
	C160.184265,383.115021 164.786133,387.954102 174.150848,388.790222 
z"/>
<path fill="#434343" opacity="1.000000" stroke="none" 
	d="
M180.326920,312.003540 
	C180.326797,315.803314 180.326797,319.121521 180.326797,322.840668 
	C178.652100,322.840668 177.131424,322.840668 175.158936,322.840668 
	C175.158936,316.825836 175.225861,310.883392 175.141205,304.943085 
	C175.045502,298.226929 172.425278,294.970795 166.948273,294.500916 
	C161.277710,294.014435 156.338333,297.343262 155.534821,303.327484 
	C154.765778,309.054962 155.157516,314.937988 155.030151,320.752441 
	C155.015793,321.407043 154.943481,322.060364 154.879822,322.976562 
	C153.389435,322.976562 151.966507,322.976562 150.255356,322.976562 
	C150.255356,312.366364 150.255356,301.789368 150.255356,290.738525 
	C151.456940,290.601257 152.837067,290.443604 154.583374,290.244110 
	C154.852936,291.884338 155.078186,293.255005 155.328491,294.778015 
	C155.789902,294.531799 156.271255,294.395721 156.586136,294.088837 
	C161.408539,289.388702 167.084686,288.390350 173.129288,290.911926 
	C179.055252,293.384125 180.319839,298.721252 180.323044,304.532562 
	C180.324326,306.862366 180.325714,309.192139 180.326920,312.003540 
z"/>
<path fill="#464646" opacity="1.000000" stroke="none" 
	d="
M400.080872,293.206024 
	C394.235596,306.810913 388.433105,320.026093 382.846222,333.331848 
	C381.538635,336.446106 379.947998,338.053802 376.209442,336.650055 
	C376.320984,336.189056 376.308350,335.536407 376.609497,335.100403 
	C382.633179,326.378906 381.200897,318.097870 375.914307,309.495514 
	C372.546997,304.016205 370.281921,297.859100 367.536346,291.999481 
	C367.407104,291.723694 367.411621,291.385254 367.303802,290.807678 
	C370.575500,289.717316 372.624542,290.323029 374.109833,293.886108 
	C377.229126,301.369232 380.796265,308.665680 384.506104,316.750366 
	C388.067596,308.478973 391.479980,300.963867 394.512787,293.298584 
	C395.647736,290.430084 397.463013,290.003235 399.933014,290.518250 
	C400.174286,290.568573 400.119598,292.038452 400.080872,293.206024 
z"/>
<path fill="#454545" opacity="1.000000" stroke="none" 
	d="
M211.053665,469.165527 
	C209.208542,472.546143 209.219040,477.729370 203.200058,475.496643 
	C203.476105,474.614288 203.550842,473.547028 204.081482,472.806488 
	C209.765656,464.874359 208.257324,457.391968 203.577866,449.481201 
	C199.881775,443.232910 197.259491,436.349487 194.074142,429.564575 
	C197.941360,428.246613 199.868668,429.373199 201.358673,433.012695 
	C204.373520,440.376831 207.940613,447.514862 211.605576,455.451141 
	C214.965973,447.600830 218.207718,440.386810 221.127258,433.044647 
	C222.443375,429.734802 224.153534,428.056122 228.179459,429.601196 
	C222.507263,442.677032 216.841125,455.738892 211.053665,469.165527 
z"/>
<path fill="#454545" opacity="1.000000" stroke="none" 
	d="
M297.998291,313.116821 
	C302.033234,317.812286 306.400543,321.291809 312.756836,319.027679 
	C314.636627,318.358124 316.990845,316.270203 317.218201,314.575989 
	C317.402405,313.203094 315.018799,310.803192 313.253723,309.994293 
	C309.661987,308.348145 305.685486,307.563843 301.930511,306.245026 
	C298.601654,305.075867 295.389160,302.918304 296.166718,299.172058 
	C296.762177,296.303284 298.798370,292.953827 301.212128,291.391663 
	C307.853180,287.093567 317.082581,290.112518 320.884460,298.688873 
	C319.069305,298.062561 316.964600,297.825500 315.496002,296.733215 
	C311.834869,294.010101 308.022552,292.971252 303.900879,295.050598 
	C302.641083,295.686188 301.218109,297.499969 301.242950,298.746765 
	C301.266602,299.930603 302.868561,301.618958 304.158325,302.139648 
	C307.838806,303.625519 311.715881,304.622803 315.511322,305.825897 
	C319.421478,307.065308 322.581635,309.182831 322.694244,313.695007 
	C322.813354,318.470001 319.898956,321.318359 315.724030,323.026337 
	C307.332642,326.459259 298.075073,322.761810 294.427856,314.394562 
	C295.502991,313.979980 296.570526,313.568329 297.998291,313.116821 
z"/>
<path fill="#424242" opacity="1.000000" stroke="none" 
	d="
M378.874451,446.264099 
	C378.873474,451.552063 378.873474,456.372955 378.873474,461.741730 
	C377.212555,461.817352 375.711578,461.885681 373.989014,461.964111 
	C373.989014,450.923340 373.989014,440.317566 373.989014,429.425354 
	C377.357849,428.542145 379.594604,428.851929 378.923248,432.912781 
	C382.330475,431.394501 385.538666,429.276215 389.036194,428.548370 
	C396.554626,426.983765 403.271301,431.977539 403.824097,439.682037 
	C404.344818,446.939301 403.935791,454.263336 403.935791,461.781067 
	C402.272034,461.781067 400.868439,461.781067 398.985779,461.781067 
	C398.985779,456.396454 398.990784,451.106415 398.984650,445.816376 
	C398.974365,436.957062 396.250519,433.155640 389.882874,433.098236 
	C383.292145,433.038818 379.323303,437.617462 378.874451,446.264099 
z"/>
<path fill="#454545" opacity="1.000000" stroke="none" 
	d="
M295.851685,444.181030 
	C297.105530,434.914948 302.484955,429.420898 310.945190,428.351379 
	C318.308105,427.420563 324.699280,431.082733 327.728729,438.100708 
	C325.409973,439.509613 323.777069,439.832611 321.631836,437.152130 
	C317.341675,431.791718 309.601318,431.516785 304.801575,436.012360 
	C299.609741,440.875275 299.506134,449.860107 304.584259,454.866425 
	C309.392059,459.606232 317.032990,459.133911 321.991272,454.109863 
	C323.202118,452.882996 325.330963,452.562164 327.263275,452.368439 
	C324.982056,460.169983 317.945343,464.040009 310.144012,462.762878 
	C301.282379,461.312164 296.095245,454.740021 295.851685,444.181030 
z"/>
<path fill="#464646" opacity="1.000000" stroke="none" 
	d="
M446.081512,462.375488 
	C434.821747,463.999542 426.342987,458.417297 424.926971,448.826538 
	C423.350311,438.147797 429.418030,429.761047 439.720123,428.379364 
	C447.050171,427.396301 453.484039,431.004791 456.636871,438.019043 
	C454.374603,439.500000 452.778748,439.977234 450.579346,437.232330 
	C446.141327,431.693390 438.176849,431.498718 433.398773,436.287384 
	C428.516632,441.180420 428.524170,449.898254 433.414856,454.799377 
	C438.205017,459.599762 445.842377,459.198090 450.825073,454.181915 
	C452.046661,452.952118 454.123718,452.572052 456.226166,452.554199 
	C454.848083,458.082031 451.349152,460.919403 446.081512,462.375488 
z"/>
<path fill="#484848" opacity="1.000000" stroke="none" 
	d="
M346.656891,284.281586 
	C346.657043,282.354950 346.657043,280.887543 346.657043,279.289703 
	C348.511780,279.289703 349.938904,279.289703 351.819244,279.289703 
	C351.819244,282.948456 351.819244,286.377869 351.819244,290.149292 
	C355.521942,290.149292 358.787628,290.149292 362.499390,290.149292 
	C362.731445,291.788086 362.922363,293.136200 363.176453,294.930634 
	C359.371002,294.930634 355.940460,294.930634 351.979767,294.930634 
	C351.979767,301.890167 351.377869,308.539642 352.162201,315.021332 
	C352.841064,320.631500 357.583099,318.942810 361.622589,318.253143 
	C362.060364,319.510376 362.517578,320.823334 362.971710,322.127533 
	C352.192230,326.163574 346.762146,322.597137 346.664246,311.734314 
	C346.616333,306.416992 346.655945,301.098907 346.655945,295.440125 
	C344.550720,295.224243 342.638916,295.028198 340.387268,294.797333 
	C340.387268,293.479889 340.387268,292.137054 340.387268,290.586395 
	C342.346069,290.419891 344.132996,290.268005 346.656738,290.053467 
	C346.656738,288.226501 346.656738,286.483673 346.656891,284.281586 
z"/>
<path fill="#464646" opacity="1.000000" stroke="none" 
	d="
M232.645294,291.093781 
	C228.846939,300.444000 224.959076,309.433014 221.066269,318.419891 
	C218.913055,323.390747 218.909317,323.389130 213.191055,323.039978 
	C208.631287,312.541779 204.016083,301.915924 199.385620,291.254974 
	C204.267334,289.869537 204.284500,289.862152 206.095398,294.064575 
	C209.295593,301.490997 212.472595,308.927429 216.152481,317.509888 
	C219.733017,309.095947 223.007309,301.807312 225.918716,294.376526 
	C227.230103,291.029480 228.921478,289.373840 232.645294,291.093781 
z"/>
<path fill="#434343" opacity="1.000000" stroke="none" 
	d="
M238.017593,436.258575 
	C236.253998,434.849396 234.493332,433.911255 231.823807,432.488831 
	C231.813919,432.372742 231.697418,431.004242 231.550476,429.278259 
	C233.721893,429.153442 235.497513,429.051392 237.850647,428.916168 
	C237.850647,425.429321 237.850647,421.888824 237.850647,418.133118 
	C239.820923,418.133118 241.216705,418.133118 243.042786,418.133118 
	C243.042786,421.681213 243.042786,425.101776 243.042786,428.911011 
	C246.870651,428.911011 250.296005,428.911011 254.036423,428.911011 
	C254.036423,430.692322 254.036423,432.077484 254.036423,433.886902 
	C250.382080,433.886902 246.962891,433.886902 243.126465,433.886902 
	C243.126465,440.419037 242.895844,446.546509 243.201782,452.647064 
	C243.433044,457.258423 246.192734,458.395477 252.835739,457.036896 
	C254.965622,459.917267 254.619568,461.527130 250.670792,462.155914 
	C242.600357,463.440948 238.193054,459.930847 238.040939,451.709656 
	C237.948578,446.717896 238.021729,441.723053 238.017593,436.258575 
z"/>
<path fill="#3B3B3B" opacity="1.000000" stroke="none" 
	d="
M188.651703,414.476929 
	C188.928543,430.334625 188.928543,445.809326 188.928543,461.653625 
	C187.456177,461.801666 186.054138,461.942657 184.302551,462.118774 
	C184.302551,446.155243 184.302551,430.415039 184.302551,414.093964 
	C185.568253,414.093964 186.971558,414.093964 188.651703,414.476929 
z"/>
<path fill="#434343" opacity="1.000000" stroke="none" 
	d="
M289.810150,294.787109 
	C283.070557,295.715179 280.356689,298.632965 280.073639,305.502686 
	C279.841400,311.138519 280.026276,316.791595 280.026276,322.963837 
	C278.336548,323.053314 276.816406,323.133820 275.079315,323.225800 
	C275.079315,312.228394 275.079315,301.650330 275.079315,290.842468 
	C278.405060,289.707672 280.569427,290.066437 280.171265,293.504028 
	C283.594360,292.103607 287.187958,290.633392 290.781586,289.163177 
	C291.248322,289.684082 291.715088,290.204987 292.181824,290.725891 
	C291.527130,292.075226 290.872406,293.424591 289.810150,294.787109 
z"/>
<path fill="#3E3E3E" opacity="1.000000" stroke="none" 
	d="
M542.991760,369.999969 
	C542.991760,377.655914 542.991760,384.811859 542.991760,392.353607 
	C541.430725,392.513824 540.034241,392.657135 538.211365,392.844238 
	C538.211365,377.464264 538.211365,362.391815 538.211365,346.953827 
	C539.567505,346.953827 541.100464,346.953827 542.991760,346.953827 
	C542.991760,354.568115 542.991760,362.034058 542.991760,369.999969 
z"/>
<path fill="#464646" opacity="1.000000" stroke="none" 
	d="
M329.751465,312.924805 
	C329.751556,305.300873 329.751556,298.163422 329.751556,290.649200 
	C331.447754,290.550629 332.841614,290.469666 334.572906,290.369049 
	C334.572906,301.313263 334.572906,311.904205 334.572906,323.006165 
	C333.243042,323.073120 331.700134,323.150818 329.751373,323.248962 
	C329.751373,319.676666 329.751373,316.543976 329.751465,312.924805 
z"/>
<path fill="#444444" opacity="1.000000" stroke="none" 
	d="
M417.890442,432.323486 
	C417.891022,442.366394 417.891022,451.941589 417.891022,461.762695 
	C416.074310,461.762695 414.681152,461.762695 413.038147,461.762695 
	C413.038147,450.959167 413.038147,440.272339 413.038147,429.173157 
	C415.275391,429.312042 417.957092,427.756256 417.890442,432.323486 
z"/>
<path fill="#3E3E3E" opacity="1.000000" stroke="none" 
	d="
M194.028961,297.140381 
	C194.028992,305.909668 194.028992,314.197571 194.028992,322.851105 
	C192.448853,323.006409 191.054718,323.143433 189.315887,323.314301 
	C189.315887,312.363403 189.315887,301.665131 189.315887,290.680054 
	C190.742828,290.680054 192.129242,290.680054 194.028915,290.680054 
	C194.028915,292.766754 194.028915,294.712891 194.028961,297.140381 
z"/>
<path fill="#484848" opacity="1.000000" stroke="none" 
	d="
M331.492310,277.650238 
	C333.127930,278.736481 334.626434,279.778442 335.577515,281.189392 
	C335.770233,281.475281 334.031860,283.778381 332.935822,284.018158 
	C331.819946,284.262207 330.398102,283.107666 329.110229,282.565582 
	C329.794189,280.955750 330.478149,279.345917 331.492310,277.650238 
z"/>
<path fill="#494949" opacity="1.000000" stroke="none" 
	d="
M193.843628,278.382568 
	C193.907898,280.362885 194.084717,282.279572 193.325211,283.693207 
	C193.056671,284.193024 190.282944,283.847565 189.075974,283.152954 
	C188.362503,282.742371 188.015045,279.982910 188.295288,279.840698 
	C189.929321,279.011322 191.797913,278.644073 193.843628,278.382568 
z"/>
<path fill="#4D4D4D" opacity="1.000000" stroke="none" 
	d="
M418.514709,418.479797 
	C417.493591,420.222748 416.447449,421.801422 415.021484,422.876068 
	C414.738098,423.089600 412.381744,421.537323 412.103455,420.498657 
	C411.819244,419.437927 412.857147,416.967438 413.419922,416.935425 
	C415.037323,416.843353 416.707153,417.671844 418.514709,418.479797 
z"/>
<path fill="#FEFBFA" opacity="1.000000" stroke="none" 
	d="
M155.825516,148.003174 
	C155.836472,159.325394 155.650391,170.153244 155.909744,180.970398 
	C156.216034,193.746460 165.837021,200.594940 178.131149,197.115219 
	C184.838730,195.216705 189.016403,189.430939 189.117218,181.071991 
	C189.289932,166.754074 189.187500,152.432846 189.200119,138.113007 
	C189.201721,136.305237 189.200333,134.497467 189.200333,132.271088 
	C195.767517,132.271088 201.996307,132.271088 209.039566,132.271088 
	C209.039566,133.654633 209.039642,135.237274 209.039566,136.819916 
	C209.038818,150.806915 209.067581,164.794006 209.030869,178.780914 
	C208.963257,204.542404 191.412994,219.432678 165.846313,215.459351 
	C147.174759,212.557602 136.224380,200.176834 136.040024,181.377884 
	C135.880341,165.093826 136.006836,148.806976 136.006836,132.185486 
	C142.624908,132.185486 148.860428,132.185486 155.825623,132.185486 
	C155.825623,137.297302 155.825623,142.400681 155.825516,148.003174 
z"/>
<path fill="#FFFCFA" opacity="1.000000" stroke="none" 
	d="
M495.764954,208.804901 
	C481.618927,219.051636 462.622498,218.084366 451.002960,206.764542 
	C441.633850,197.637115 439.362946,184.505646 446.261505,172.426010 
	C453.759460,159.296768 462.171234,146.686798 470.317322,133.935211 
	C470.974640,132.906296 472.640900,131.987839 473.868774,131.947647 
	C480.011688,131.746567 486.164764,131.855606 493.414825,131.855606 
	C488.089172,140.416397 483.163635,148.334015 477.893250,156.805939 
	C492.875275,159.532211 504.098328,166.323486 506.347107,182.438080 
	C507.815399,192.959717 504.212738,201.729645 495.764954,208.804901 
M477.764801,174.360992 
	C468.982971,173.454147 462.965271,177.202560 461.999084,184.181396 
	C461.079437,190.824173 464.666077,196.531921 470.658936,197.962677 
	C478.079803,199.734344 485.014435,196.287292 486.769958,189.954224 
	C488.654663,183.155182 485.530975,177.343903 477.764801,174.360992 
z"/>
<path fill="#FEFCFA" opacity="1.000000" stroke="none" 
	d="
M610.000732,131.386917 
	C618.159485,131.468719 625.867615,131.026230 633.467041,131.740250 
	C649.667908,133.262451 660.677063,146.543930 659.984131,162.952530 
	C659.340271,178.199142 646.591675,190.495789 630.858459,190.883102 
	C624.209717,191.046753 617.553528,190.910385 610.288269,190.910385 
	C610.288269,198.580536 610.288269,205.977890 610.288269,213.652557 
	C603.614746,213.652557 597.555237,213.652557 591.220947,213.652557 
	C591.220947,186.357117 591.220947,159.268997 591.220947,131.386749 
	C597.321106,131.386749 603.410950,131.386749 610.000732,131.386917 
M610.129700,159.527054 
	C610.129700,163.955811 610.129700,168.384567 610.129700,173.099228 
	C617.702881,173.099228 624.660950,173.426819 631.571472,172.994583 
	C637.007568,172.654587 640.998840,167.252472 641.039551,161.357086 
	C641.081665,155.258102 637.035339,149.703247 631.371826,149.320984 
	C624.487793,148.856354 617.548462,149.210602 610.129639,149.210602 
	C610.129639,152.654892 610.129639,155.601212 610.129700,159.527054 
z"/>
<path fill="#FEFCFB" opacity="1.000000" stroke="none" 
	d="
M320.459259,163.447479 
	C321.540344,164.939850 322.409088,166.154358 323.658966,167.901688 
	C326.352997,164.025620 328.877960,160.427429 331.366943,156.804474 
	C336.460083,149.390854 341.467896,141.917053 346.675720,134.585144 
	C347.627655,133.244919 349.306915,131.660797 350.744568,131.562256 
	C356.014160,131.201065 361.323456,131.419174 366.892944,131.419174 
	C366.892944,159.048019 366.892944,186.143234 366.892944,213.591309 
	C360.760468,213.591309 354.689484,213.591309 348.169800,213.591309 
	C348.169800,198.181213 348.169800,182.763641 348.169800,167.346054 
	C347.773651,167.153305 347.377502,166.960556 346.981354,166.767807 
	C339.312164,177.203140 331.643005,187.638489 323.560059,198.636856 
	C315.627960,187.835526 308.024445,177.481644 300.420929,167.127777 
	C300.108643,167.237274 299.796326,167.346771 299.484009,167.456268 
	C299.484009,182.689636 299.484009,197.923004 299.484009,213.546249 
	C292.935730,213.546249 286.863831,213.546249 280.365601,213.546249 
	C280.365601,186.481491 280.365601,159.266098 280.365601,131.427338 
	C285.772827,131.427338 291.242004,131.203293 296.669556,131.579575 
	C298.085876,131.677780 299.699097,133.415817 300.666229,134.791367 
	C307.275970,144.192505 313.737549,153.697845 320.459259,163.447479 
z"/>
<path fill="#FBFBFB" opacity="1.000000" stroke="none" 
	d="
M455.436768,387.778595 
	C445.794678,390.506836 438.468353,385.719299 438.083069,376.822510 
	C437.834259,371.077698 441.119324,365.956696 446.113739,364.303833 
	C451.757416,362.436035 457.899689,364.654816 460.895294,369.643311 
	C463.785492,374.456360 463.179626,380.920135 459.339355,384.906586 
	C458.317474,385.967316 456.986877,386.730682 455.436768,387.778595 
z"/>
<path fill="#FCFCFC" opacity="1.000000" stroke="none" 
	d="
M109.154602,422.274200 
	C115.507515,421.707977 121.906250,420.948822 128.100647,421.756592 
	C132.490021,422.328979 134.789902,427.612274 134.041046,432.445221 
	C133.283997,437.331116 130.169037,440.295471 125.437073,440.716492 
	C120.209816,441.181580 114.909248,440.822693 109.113060,440.822693 
	C109.113060,434.588959 109.113060,428.670044 109.154602,422.274200 
z"/>
<path fill="#FBFBFB" opacity="1.000000" stroke="none" 
	d="
M256.674927,364.870239 
	C263.331909,369.551392 265.353271,375.724976 262.533600,381.794403 
	C260.194183,386.830078 254.269501,389.800507 248.864594,388.647583 
	C241.843857,387.149963 237.654968,380.158051 239.477386,372.978851 
	C241.400238,365.403992 247.622360,362.348541 256.674927,364.870239 
z"/>
<path fill="#FCFCFC" opacity="1.000000" stroke="none" 
	d="
M262.990356,441.597717 
	C265.970306,434.545563 270.633636,431.871857 277.070465,433.124084 
	C281.989655,434.081055 284.761658,437.460754 285.040314,443.234344 
	C278.097626,443.234344 271.167542,443.256104 264.238495,443.182343 
	C263.806030,443.177765 263.381500,442.424622 262.990356,441.597717 
z"/>
<path fill="#F3F3F3" opacity="1.000000" stroke="none" 
	d="
M253.899948,304.775055 
	C249.098251,304.776459 244.778152,304.776459 240.472916,304.776459 
	C240.126541,299.149994 243.993149,294.885620 249.894531,294.156158 
	C256.437653,293.347382 261.054688,296.907318 262.681488,304.773651 
	C259.820007,304.773651 257.100769,304.773651 253.899948,304.775055 
z"/>
<path fill="#FCFCFC" opacity="1.000000" stroke="none" 
	d="
M421.461853,368.786926 
	C422.118683,370.499817 422.552612,371.892426 423.112000,373.687561 
	C415.249573,373.687561 407.774261,373.687561 400.090027,373.687561 
	C400.549042,368.795471 403.252289,365.705902 407.607635,364.162079 
	C412.636383,362.379578 417.511169,364.063385 421.461853,368.786926 
z"/>
<path fill="#FCFCFC" opacity="1.000000" stroke="none" 
	d="
M166.671844,435.109680 
	C171.976730,440.233154 173.322464,445.106842 171.001724,450.572906 
	C169.001160,455.284821 165.408951,457.862976 160.205124,458.056763 
	C154.801300,458.257935 150.788940,455.904541 148.535934,451.096069 
	C146.317123,446.360596 146.809296,441.608429 150.146027,437.492828 
	C153.524033,433.326324 158.043823,432.185944 163.171677,433.499176 
	C164.277481,433.782379 165.290497,434.427948 166.671844,435.109680 
z"/>
<path fill="#FCFCFC" opacity="1.000000" stroke="none" 
	d="
M173.756607,388.816162 
	C164.786133,387.954102 160.184265,383.115021 160.607773,375.430145 
	C160.958115,369.073364 165.395477,364.338104 171.477112,363.831146 
	C177.992691,363.288055 183.224487,366.767883 184.763153,372.668121 
	C186.441269,379.103088 183.381836,385.599365 177.523392,387.911682 
	C176.450729,388.335052 175.277588,388.503876 173.756607,388.816162 
z"/>
<path fill="#D65031" opacity="1.000000" stroke="none" 
	d="
M478.146149,174.490601 
	C485.530975,177.343903 488.654663,183.155182 486.769958,189.954224 
	C485.014435,196.287292 478.079803,199.734344 470.658936,197.962677 
	C464.666077,196.531921 461.079437,190.824173 461.999084,184.181396 
	C462.965271,177.202560 468.982971,173.454147 478.146149,174.490601 
z"/>
<path fill="#D75032" opacity="1.000000" stroke="none" 
	d="
M610.129639,159.037292 
	C610.129639,155.601212 610.129639,152.654892 610.129639,149.210602 
	C617.548462,149.210602 624.487793,148.856354 631.371826,149.320984 
	C637.035339,149.703247 641.081665,155.258102 641.039551,161.357086 
	C640.998840,167.252472 637.007568,172.654587 631.571472,172.994583 
	C624.660950,173.426819 617.702881,173.099228 610.129700,173.099228 
	C610.129700,168.384567 610.129700,163.955811 610.129639,159.037292 
z"/>
</svg>