<svg version="1.1" id="Layer_1" xmlns="http://www.w3.org/2000/svg" xmlns:xlink="http://www.w3.org/1999/xlink" x="0px" y="0px"
	 width="100%" viewBox="0 0 2048 2048" enable-background="new 0 0 2048 2048" xml:space="preserve">
<path fill="#FFFFFF" opacity="1.000000" stroke="none" 
	d="
M1093.000000,2049.000000 
	C728.666687,2049.000000 364.833344,2049.000000 1.000000,2049.000000 
	C1.000000,1366.333374 1.000000,683.666687 1.000000,1.000000 
	C683.666687,1.000000 1366.333374,1.000000 2049.000000,1.000000 
	C2049.000000,683.666687 2049.000000,1366.333374 2049.000000,2049.000000 
	C1730.500000,2049.000000 1412.000000,2049.000000 1093.000000,2049.000000 
M1818.276489,839.574585 
	C1816.618164,839.498169 1814.959717,839.355896 1813.301392,839.355042 
	C1778.978882,839.337341 1744.656250,839.332153 1710.333740,839.331482 
	C1627.026611,839.329773 1543.719482,839.331726 1460.412354,839.332214 
	C1457.335571,839.332214 1454.258789,839.332214 1451.097900,839.332214 
	C1451.097900,963.509705 1451.097900,1086.742432 1451.097900,1210.667725 
	C1454.145142,1210.667725 1456.936646,1210.667847 1459.728149,1210.667725 
	C1577.691040,1210.663330 1695.653809,1210.661499 1813.616699,1210.629883 
	C1815.413696,1210.629395 1817.210571,1210.261597 1819.915527,1210.236938 
	C1820.395508,1208.300293 1821.294556,1206.363892 1821.295654,1204.426880 
	C1821.357666,1086.832520 1821.345703,969.238159 1821.340942,851.643799 
	C1821.340820,848.645691 1821.530029,845.628845 1821.234863,842.660156 
	C1821.138184,841.687500 1819.784912,840.839722 1818.276489,839.574585 
M230.709351,1210.396362 
	C232.536942,1210.481445 234.364487,1210.639404 236.192154,1210.640625 
	C266.350159,1210.661987 296.508209,1210.668579 326.666229,1210.668945 
	C413.974609,1210.670044 501.282990,1210.666870 588.591370,1210.665405 
	C592.001282,1210.665283 595.411255,1210.665405 598.904114,1210.665405 
	C598.904114,1086.491211 598.904114,963.255005 598.904114,839.337280 
	C595.856995,839.337280 593.064819,839.337280 590.272583,839.337402 
	C471.973053,839.341003 353.673553,839.342163 235.374039,839.371765 
	C233.566483,839.372253 231.759018,839.724304 229.115997,840.266907 
	C228.962692,843.570312 228.676147,846.873657 228.675369,850.177124 
	C228.647446,968.360596 228.640472,1086.544067 228.695862,1204.727539 
	C228.696701,1206.514404 229.516266,1208.300903 230.709351,1210.396362 
M1255.500000,1210.671143 
	C1305.816650,1210.670898 1356.133179,1210.687134 1406.449829,1210.655762 
	C1415.772583,1210.650024 1414.067993,1210.788696 1414.070190,1203.287598 
	C1414.105835,1084.160645 1414.096313,965.033752 1414.097168,845.906799 
	C1414.097168,843.955627 1414.097168,842.004517 1414.097168,839.678833 
	C1411.728271,839.540161 1409.935913,839.343384 1408.143555,839.343384 
	C1288.683472,839.344116 1169.223389,839.356018 1049.763306,839.389099 
	C1043.283081,839.390869 1043.286011,839.479065 1043.286133,845.962280 
	C1043.287354,965.089233 1043.288086,1084.216187 1043.287598,1203.343140 
	C1043.287598,1210.538086 1043.282104,1210.613037 1050.568237,1210.616577 
	C1118.545532,1210.650146 1186.522705,1210.655762 1255.500000,1210.671143 
M1007.181335,1202.428467 
	C1007.181335,1081.648560 1007.181335,960.868713 1007.181335,839.355713 
	C1004.448303,839.355713 1002.164917,839.355896 999.881592,839.355713 
	C881.071899,839.347046 762.262146,839.336121 643.452454,839.335083 
	C636.412170,839.335022 636.416382,839.371521 636.416443,846.335571 
	C636.417236,965.478577 636.417053,1084.621582 636.416382,1203.764648 
	C636.416382,1210.612671 636.413696,1210.662964 643.052734,1210.662842 
	C762.362305,1210.660889 881.671936,1210.645996 1000.981506,1210.633911 
	C1002.912537,1210.633789 1004.843567,1210.633911 1007.188171,1210.633911 
	C1007.188171,1207.681763 1007.188171,1205.541016 1007.181335,1202.428467 
z"/>
<path fill="#D74A2D" opacity="1.000000" stroke="none" 
	d="
M1255.000000,1210.670410 
	C1186.522705,1210.655762 1118.545532,1210.650146 1050.568237,1210.616577 
	C1043.282104,1210.613037 1043.287598,1210.538086 1043.287598,1203.343140 
	C1043.288086,1084.216187 1043.287354,965.089233 1043.286133,845.962280 
	C1043.286011,839.479065 1043.283081,839.390869 1049.763306,839.389099 
	C1169.223389,839.356018 1288.683472,839.344116 1408.143555,839.343384 
	C1409.935913,839.343384 1411.728271,839.540161 1414.097168,839.678833 
	C1414.097168,842.004517 1414.097168,843.955627 1414.097168,845.906799 
	C1414.096313,965.033752 1414.105835,1084.160645 1414.070190,1203.287598 
	C1414.067993,1210.788696 1415.772583,1210.650024 1406.449829,1210.655762 
	C1356.133179,1210.687134 1305.816650,1210.670898 1255.000000,1210.670410 
M1158.083984,1109.403564 
	C1165.499023,1116.016479 1172.245361,1123.649048 1180.463135,1129.037720 
	C1199.722290,1141.666748 1221.412964,1143.634277 1243.870605,1141.150635 
	C1290.797729,1135.960815 1323.630005,1092.461304 1314.375488,1046.317383 
	C1308.010254,1014.580078 1287.410522,995.658508 1256.790283,987.095581 
	C1250.812866,985.424011 1244.597534,984.603333 1237.918579,983.276306 
	C1252.256104,960.470764 1266.365967,938.027466 1280.858276,914.975891 
	C1261.903076,914.975891 1243.914551,915.084778 1225.929565,914.885254 
	C1222.264160,914.844543 1220.331543,916.155579 1218.434937,919.164124 
	C1197.480103,952.404236 1177.299438,986.186157 1155.031982,1018.528809 
	C1135.469727,1046.942383 1140.374023,1088.200562 1158.083984,1109.403564 
z"/>
<path fill="#D74A2C" opacity="1.000000" stroke="none" 
	d="
M229.951508,839.912231 
	C231.759018,839.724304 233.566483,839.372253 235.374039,839.371765 
	C353.673553,839.342163 471.973053,839.341003 590.272583,839.337402 
	C593.064819,839.337280 595.856995,839.337280 598.904114,839.337280 
	C598.904114,963.255005 598.904114,1086.491211 598.904114,1210.665405 
	C595.411255,1210.665405 592.001282,1210.665283 588.591370,1210.665405 
	C501.282990,1210.666870 413.974609,1210.670044 326.666229,1210.668945 
	C296.508209,1210.668579 266.350159,1210.661987 236.192154,1210.640625 
	C234.364487,1210.639404 232.536942,1210.481445 230.547241,1209.964355 
	C230.256866,1206.218628 230.017044,1202.905029 230.016510,1199.591309 
	C229.998230,1085.461426 230.003326,971.331604 230.001419,857.201782 
	C230.001328,851.438599 229.968887,845.675415 229.951508,839.912231 
M480.847412,1120.826050 
	C480.847412,1120.826050 480.675262,1120.802856 481.280121,1120.711914 
	C481.463379,1120.368530 481.646667,1120.025024 481.809784,1119.834961 
	C481.809784,1119.834961 481.682068,1119.747681 482.416779,1119.863281 
	C484.564209,1117.481201 486.711670,1115.099243 488.886902,1112.880493 
	C488.886902,1112.880493 488.722870,1112.856689 489.304382,1112.721558 
	C489.488129,1112.385498 489.671906,1112.049561 489.836487,1111.866455 
	C489.836487,1111.866455 489.702576,1111.790039 490.456665,1111.840332 
	C490.859222,1111.095825 491.261780,1110.351440 491.772644,1109.764404 
	C491.772644,1109.764404 491.582367,1109.782227 492.249603,1109.669800 
	C492.481506,1109.078003 492.713440,1108.486328 492.966461,1107.974121 
	C492.966461,1107.974121 492.887817,1107.949707 493.601013,1107.896606 
	C493.973206,1107.154907 494.345428,1106.413086 494.800934,1105.803711 
	C494.800934,1105.803711 494.644623,1105.806030 495.360962,1105.731689 
	C496.874115,1104.213135 498.807434,1102.934814 499.834229,1101.138306 
	C508.373322,1086.197876 513.575623,1069.957275 513.793762,1052.890625 
	C514.370544,1007.761902 513.960571,962.621094 514.062195,917.485291 
	C514.070068,913.987915 512.975525,912.900330 509.508057,912.931091 
	C493.520264,913.073242 477.530334,912.973328 461.541443,913.028809 
	C460.732147,913.031616 459.925110,913.672729 458.969421,914.731506 
	C458.786224,915.179382 458.603058,915.627197 457.738525,916.356201 
	C457.494720,917.277588 457.063171,918.192993 457.034027,919.121155 
	C455.494995,968.135925 460.327057,1017.274536 454.145264,1066.069214 
	C454.145264,1066.069214 454.272888,1066.101562 453.599670,1066.261475 
	C453.079346,1067.857910 452.558990,1069.454346 452.018219,1071.653320 
	C451.653046,1072.089111 451.287872,1072.524902 450.238556,1073.051270 
	C446.915833,1076.843750 443.593140,1080.636108 440.212708,1084.294556 
	C440.212708,1084.294556 440.347900,1084.349609 439.566895,1084.180664 
	C437.454651,1085.566895 435.342407,1086.953003 433.138306,1088.268921 
	C433.138306,1088.268921 433.241119,1088.215942 432.367981,1088.084106 
	C431.216644,1088.116211 429.985016,1087.891235 428.926971,1088.221924 
	C421.639252,1090.499390 414.340668,1092.044800 406.670441,1090.108276 
	C405.597351,1089.837402 404.252869,1090.641602 402.319611,1091.050537 
	C401.875488,1090.888184 401.431366,1090.725708 400.809143,1089.946533 
	C398.893677,1089.572021 396.978241,1089.197632 394.461792,1088.906372 
	C393.972626,1088.614990 393.483490,1088.323486 392.902161,1087.325562 
	C390.593689,1086.219604 388.285217,1085.113525 385.998047,1083.995605 
	C385.998047,1083.995605 385.994995,1084.019409 385.936981,1083.323853 
	C385.522675,1082.621216 385.241760,1081.779053 384.674347,1081.236694 
	C373.597565,1070.649048 369.863464,1057.415649 369.927643,1042.474243 
	C370.102783,1001.696838 369.994812,960.918152 369.987366,920.140015 
	C369.986145,913.315796 369.664154,913.093811 363.041382,912.975220 
	C348.102051,912.707764 333.164764,912.312744 318.224701,912.122375 
	C317.195679,912.109314 316.150604,913.359314 314.922058,914.751831 
	C314.702118,915.200439 314.482147,915.649048 313.621643,916.418579 
	C313.417480,917.859802 313.036011,919.300964 313.035004,920.742310 
	C313.006256,961.840149 312.838837,1002.939209 313.105072,1044.035278 
	C313.213593,1060.782349 314.843567,1077.454224 323.114288,1092.545166 
	C325.550232,1096.989990 329.024506,1100.865479 331.994049,1105.003906 
	C331.994049,1105.003906 332.000214,1104.975342 332.004181,1105.715576 
	C336.664673,1111.074341 341.315308,1116.441895 346.024994,1121.757080 
	C346.196106,1121.950195 346.946991,1121.629761 347.354553,1121.690186 
	C347.354553,1121.690186 347.441772,1121.536743 347.219055,1122.273926 
	C349.595825,1123.741211 351.972565,1125.208374 354.207947,1126.754883 
	C354.207947,1126.754883 354.227142,1126.593994 354.283539,1127.324219 
	C354.866211,1127.886719 355.378967,1128.553955 356.041809,1128.996338 
	C370.539612,1138.669800 387.195007,1141.568604 403.950745,1142.779541 
	C425.466339,1144.334351 446.639923,1141.710205 466.297394,1131.926514 
	C469.793640,1130.186401 472.595184,1127.050415 475.716888,1124.711304 
	C475.716888,1124.711304 475.610352,1124.602417 476.335876,1124.822876 
	C477.459320,1123.730957 478.582733,1122.639160 479.813385,1121.709229 
	C479.813385,1121.709229 479.620361,1121.729736 480.242554,1121.694458 
	C480.427979,1121.349365 480.613373,1121.004395 480.847412,1120.826050 
z"/>
<path fill="#D74A2C" opacity="1.000000" stroke="none" 
	d="
M1819.007568,1210.065308 
	C1817.210571,1210.261597 1815.413696,1210.629395 1813.616699,1210.629883 
	C1695.653809,1210.661499 1577.691040,1210.663330 1459.728149,1210.667725 
	C1456.936646,1210.667847 1454.145142,1210.667725 1451.097900,1210.667725 
	C1451.097900,1086.742432 1451.097900,963.509705 1451.097900,839.332214 
	C1454.258789,839.332214 1457.335571,839.332214 1460.412354,839.332214 
	C1543.719482,839.331726 1627.026611,839.329773 1710.333740,839.331482 
	C1744.656250,839.332153 1778.978882,839.337341 1813.301392,839.355042 
	C1814.959717,839.355896 1816.618164,839.498169 1818.792847,840.148560 
	C1819.537476,842.514709 1819.965088,844.306824 1819.965576,846.098999 
	C1819.997314,965.314514 1819.999634,1084.530029 1819.953613,1203.745605 
	C1819.952759,1205.852295 1819.336548,1207.958740 1819.007568,1210.065308 
M1543.922119,1120.496094 
	C1543.922119,1125.444214 1543.922119,1130.392334 1543.922119,1135.586182 
	C1561.591553,1135.586182 1578.657227,1135.586182 1596.523560,1135.586182 
	C1596.523560,1114.953979 1596.523560,1094.603760 1596.523560,1073.929688 
	C1598.805298,1073.929688 1600.287109,1073.929321 1601.769043,1073.929810 
	C1617.598145,1073.935059 1633.427856,1074.041016 1649.255981,1073.919189 
	C1667.147095,1073.781494 1684.011597,1069.953613 1698.501709,1058.802612 
	C1735.859253,1030.053955 1745.809326,974.344421 1703.585083,933.009460 
	C1690.013184,919.723206 1672.917114,913.942932 1654.025269,913.869812 
	C1619.035156,913.734314 1584.044189,913.802795 1549.053589,913.807678 
	C1547.461304,913.807922 1545.869019,914.017212 1543.924194,914.153870 
	C1543.924194,982.922058 1543.924194,1051.209961 1543.922119,1120.496094 
z"/>
<path fill="#D74A2D" opacity="1.000000" stroke="none" 
	d="
M1007.184753,1202.914307 
	C1007.188171,1205.541016 1007.188171,1207.681763 1007.188171,1210.633911 
	C1004.843567,1210.633911 1002.912537,1210.633789 1000.981506,1210.633911 
	C881.671936,1210.645996 762.362305,1210.660889 643.052734,1210.662842 
	C636.413696,1210.662964 636.416382,1210.612671 636.416382,1203.764648 
	C636.417053,1084.621582 636.417236,965.478577 636.416443,846.335571 
	C636.416382,839.371521 636.412170,839.335022 643.452454,839.335083 
	C762.262146,839.336121 881.071899,839.347046 999.881592,839.355713 
	C1002.164917,839.355896 1004.448303,839.355713 1007.181335,839.355713 
	C1007.181335,960.868713 1007.181335,1081.648560 1007.184753,1202.914307 
M832.179626,1080.675903 
	C849.808228,1056.432251 867.436829,1032.188599 885.065430,1007.944885 
	C885.535217,1008.154602 886.004944,1008.364319 886.474731,1008.573975 
	C886.474731,1050.973511 886.474731,1093.373169 886.474731,1135.831055 
	C904.432739,1135.831055 921.830322,1135.831055 939.379456,1135.831055 
	C939.379456,1061.721558 939.379456,987.992493 939.379456,913.788452 
	C923.886658,913.788452 908.745850,913.890076 893.608398,913.710266 
	C890.213196,913.669922 888.149170,914.782288 886.271362,917.557861 
	C871.250183,939.759888 856.114868,961.884827 840.983032,984.011780 
	C834.641113,993.285583 828.222900,1002.507263 821.626709,1012.060669 
	C820.079407,1009.905457 818.886108,1008.309692 817.761353,1006.666931 
	C797.347168,976.852478 776.917908,947.048279 756.577087,917.183838 
	C754.911377,914.738342 753.138733,913.640564 750.088013,913.733521 
	C742.596252,913.961670 735.092773,913.804871 727.593994,913.804138 
	C719.810913,913.803345 712.027832,913.803955 703.994995,913.803955 
	C703.994995,988.224915 703.994995,1062.044922 703.994995,1135.848145 
	C721.798340,1135.848145 739.040710,1135.848145 756.898804,1135.848145 
	C756.898804,1093.015991 756.898804,1050.531006 756.898804,1008.046021 
	C768.483459,1022.245972 779.040894,1036.740234 789.610535,1051.225708 
	C800.164978,1065.690430 810.731689,1080.146240 821.600952,1095.027466 
	C825.265564,1090.048218 828.505798,1085.645752 832.179626,1080.675903 
z"/>
<path fill="#AD4333" opacity="1.000000" stroke="none" 
	d="
M1819.461548,1210.151123 
	C1819.336548,1207.958740 1819.952759,1205.852295 1819.953613,1203.745605 
	C1819.999634,1084.530029 1819.997314,965.314514 1819.965576,846.098999 
	C1819.965088,844.306824 1819.537476,842.514709 1819.157837,840.328735 
	C1819.784912,840.839722 1821.138184,841.687500 1821.234863,842.660156 
	C1821.530029,845.628845 1821.340820,848.645691 1821.340942,851.643799 
	C1821.345703,969.238159 1821.357666,1086.832520 1821.295654,1204.426880 
	C1821.294556,1206.363892 1820.395508,1208.300293 1819.461548,1210.151123 
z"/>
<path fill="#AD4333" opacity="1.000000" stroke="none" 
	d="
M229.533752,840.089600 
	C229.968887,845.675415 230.001328,851.438599 230.001419,857.201782 
	C230.003326,971.331604 229.998230,1085.461426 230.016510,1199.591309 
	C230.017044,1202.905029 230.256866,1206.218628 230.169434,1209.810059 
	C229.516266,1208.300903 228.696701,1206.514404 228.695862,1204.727539 
	C228.640472,1086.544067 228.647446,968.360596 228.675369,850.177124 
	C228.676147,846.873657 228.962692,843.570312 229.533752,840.089600 
z"/>
<path fill="#FEFDFB" opacity="1.000000" stroke="none" 
	d="
M1157.858276,1109.130493 
	C1140.374023,1088.200562 1135.469727,1046.942383 1155.031982,1018.528809 
	C1177.299438,986.186157 1197.480103,952.404236 1218.434937,919.164124 
	C1220.331543,916.155579 1222.264160,914.844543 1225.929565,914.885254 
	C1243.914551,915.084778 1261.903076,914.975891 1280.858276,914.975891 
	C1266.365967,938.027466 1252.256104,960.470764 1237.918579,983.276306 
	C1244.597534,984.603333 1250.812866,985.424011 1256.790283,987.095581 
	C1287.410522,995.658508 1308.010254,1014.580078 1314.375488,1046.317383 
	C1323.630005,1092.461304 1290.797729,1135.960815 1243.870605,1141.150635 
	C1221.412964,1143.634277 1199.722290,1141.666748 1180.463135,1129.037720 
	C1172.245361,1123.649048 1165.499023,1116.016479 1157.858276,1109.130493 
M1196.618774,1050.363892 
	C1190.042114,1072.241089 1201.444946,1090.852173 1223.206299,1093.758789 
	C1248.765747,1097.172607 1267.279419,1078.858154 1262.698486,1054.691528 
	C1260.167358,1041.338257 1248.498657,1030.551270 1234.929932,1029.021118 
	C1216.766113,1026.972656 1203.601318,1034.088379 1196.618774,1050.363892 
z"/>
<path fill="#FEFDFB" opacity="1.000000" stroke="none" 
	d="
M458.419861,916.075012 
	C458.603058,915.627197 458.786224,915.179382 459.500519,914.415405 
	C477.319153,914.099243 494.606720,914.099243 512.277100,914.099243 
	C512.398499,916.444824 512.571167,918.231384 512.571716,920.017944 
	C512.583923,960.839050 512.705444,1001.660828 512.470947,1042.480591 
	C512.421448,1051.098022 511.445099,1059.764160 510.206818,1068.307983 
	C508.213867,1082.059082 501.913910,1094.167847 494.644623,1105.806030 
	C494.644623,1105.806030 494.800934,1105.803711 494.472900,1105.845459 
	C493.725830,1106.574585 493.306824,1107.262207 492.887817,1107.949707 
	C492.887817,1107.949707 492.966461,1107.974121 492.665710,1108.054810 
	C492.104095,1108.684448 491.843231,1109.233276 491.582336,1109.782227 
	C491.582367,1109.782227 491.772644,1109.764404 491.418884,1109.769653 
	C490.610962,1110.446655 490.156799,1111.118408 489.702576,1111.790039 
	C489.702576,1111.790039 489.836487,1111.866455 489.558594,1111.861084 
	C489.094788,1112.189331 488.908813,1112.523071 488.722839,1112.856689 
	C488.722870,1112.856689 488.886902,1112.880493 488.547241,1112.897949 
	C486.032410,1115.192749 483.857239,1117.470215 481.682068,1119.747681 
	C481.682068,1119.747681 481.809784,1119.834961 481.527191,1119.821289 
	C481.054840,1120.139282 480.865082,1120.471069 480.675293,1120.802856 
	C480.675262,1120.802856 480.847412,1120.826050 480.528259,1120.794434 
	C480.012848,1121.085083 479.816589,1121.407471 479.620361,1121.729736 
	C479.620361,1121.729736 479.813385,1121.709229 479.427551,1121.670410 
	C477.897949,1122.621948 476.754150,1123.612183 475.610352,1124.602417 
	C475.610352,1124.602417 475.716888,1124.711304 475.363892,1124.674805 
	C472.444244,1126.174194 469.934998,1127.817383 467.301880,1129.229614 
	C443.026733,1142.247925 417.097565,1143.343262 390.559052,1139.678223 
	C377.549713,1137.881714 365.717621,1132.678955 354.227142,1126.593994 
	C354.227142,1126.593994 354.207947,1126.754883 354.152161,1126.410889 
	C351.878174,1124.556885 349.659973,1123.046753 347.441772,1121.536743 
	C347.441772,1121.536743 347.354553,1121.690186 347.282379,1121.318115 
	C342.140228,1115.622437 337.070221,1110.298828 332.000214,1104.975342 
	C332.000214,1104.975342 331.994049,1105.003906 331.939514,1104.660156 
	C319.695831,1086.747192 314.677490,1067.044312 314.655548,1045.904297 
	C314.614624,1006.448730 314.658356,966.992981 314.633087,927.537354 
	C314.630646,923.724060 314.391479,919.910889 314.262207,916.097656 
	C314.482147,915.649048 314.702118,915.200439 315.475952,914.421509 
	C333.277802,914.091125 350.525757,914.091125 368.291870,914.091125 
	C368.291870,916.774902 368.292236,918.578796 368.291840,920.382629 
	C368.283478,958.328369 368.246368,996.274170 368.296234,1034.219849 
	C368.304077,1040.201904 368.284973,1046.234863 369.010956,1052.154541 
	C370.570282,1064.869751 374.717957,1076.395264 385.994995,1084.019409 
	C385.994995,1084.019409 385.998047,1083.995605 386.156860,1084.292725 
	C388.541901,1085.737183 390.768127,1086.884644 392.994324,1088.032104 
	C393.483490,1088.323486 393.972626,1088.614990 395.034851,1089.077881 
	C397.401001,1089.687378 399.194122,1090.125366 400.987244,1090.563354 
	C401.431366,1090.725708 401.875488,1090.888184 403.035095,1091.192871 
	C413.824524,1092.600098 423.796570,1092.901733 433.241119,1088.215942 
	C433.241119,1088.215942 433.138306,1088.268921 433.537781,1088.271484 
	C436.074158,1086.966064 438.211029,1085.657837 440.347900,1084.349609 
	C440.347900,1084.349609 440.212708,1084.294556 440.582245,1084.311646 
	C444.275391,1080.539307 447.599030,1076.749878 450.922668,1072.960571 
	C451.287872,1072.524902 451.653046,1072.089111 452.310242,1071.147949 
	C453.159149,1069.128784 453.716003,1067.615234 454.272888,1066.101562 
	C454.272888,1066.101562 454.145264,1066.069214 454.451782,1065.927368 
	C456.072601,1058.300537 458.448700,1050.826172 458.522980,1043.328979 
	C458.907013,1004.564209 458.709717,965.793640 458.690308,927.025146 
	C458.688477,923.375061 458.514099,919.725037 458.419861,916.075012 
z"/>
<path fill="#AD4333" opacity="1.000000" stroke="none" 
	d="
M495.002808,1105.768799 
	C501.913910,1094.167847 508.213867,1082.059082 510.206818,1068.307983 
	C511.445099,1059.764160 512.421448,1051.098022 512.470947,1042.480591 
	C512.705444,1001.660828 512.583923,960.839050 512.571716,920.017944 
	C512.571167,918.231384 512.398499,916.444824 512.277100,914.099243 
	C494.606720,914.099243 477.319153,914.099243 459.574310,914.057922 
	C459.925110,913.672729 460.732147,913.031616 461.541443,913.028809 
	C477.530334,912.973328 493.520264,913.073242 509.508057,912.931091 
	C512.975525,912.900330 514.070068,913.987915 514.062195,917.485291 
	C513.960571,962.621094 514.370544,1007.761902 513.793762,1052.890625 
	C513.575623,1069.957275 508.373322,1086.197876 499.834229,1101.138306 
	C498.807434,1102.934814 496.874115,1104.213135 495.002808,1105.768799 
z"/>
<path fill="#AD4333" opacity="1.000000" stroke="none" 
	d="
M385.966003,1083.671631 
	C374.717957,1076.395264 370.570282,1064.869751 369.010956,1052.154541 
	C368.284973,1046.234863 368.304077,1040.201904 368.296234,1034.219849 
	C368.246368,996.274170 368.283478,958.328369 368.291840,920.382629 
	C368.292236,918.578796 368.291870,916.774902 368.291870,914.091125 
	C350.525757,914.091125 333.277802,914.091125 315.571411,914.056519 
	C316.150604,913.359314 317.195679,912.109314 318.224701,912.122375 
	C333.164764,912.312744 348.102051,912.707764 363.041382,912.975220 
	C369.664154,913.093811 369.986145,913.315796 369.987366,920.140015 
	C369.994812,960.918152 370.102783,1001.696838 369.927643,1042.474243 
	C369.863464,1057.415649 373.597565,1070.649048 384.674347,1081.236694 
	C385.241760,1081.779053 385.522675,1082.621216 385.966003,1083.671631 
z"/>
<path fill="#AD4333" opacity="1.000000" stroke="none" 
	d="
M313.941925,916.258118 
	C314.391479,919.910889 314.630646,923.724060 314.633087,927.537354 
	C314.658356,966.992981 314.614624,1006.448730 314.655548,1045.904297 
	C314.677490,1067.044312 319.695831,1086.747192 331.953918,1104.659180 
	C329.024506,1100.865479 325.550232,1096.989990 323.114288,1092.545166 
	C314.843567,1077.454224 313.213593,1060.782349 313.105072,1044.035278 
	C312.838837,1002.939209 313.006256,961.840149 313.035004,920.742310 
	C313.036011,919.300964 313.417480,917.859802 313.941925,916.258118 
z"/>
<path fill="#AD4333" opacity="1.000000" stroke="none" 
	d="
M458.079163,916.215576 
	C458.514099,919.725037 458.688477,923.375061 458.690308,927.025146 
	C458.709717,965.793640 458.907013,1004.564209 458.522980,1043.328979 
	C458.448700,1050.826172 456.072601,1058.300537 454.458710,1065.992798 
	C460.327057,1017.274536 455.494995,968.135925 457.034027,919.121155 
	C457.063171,918.192993 457.494720,917.277588 458.079163,916.215576 
z"/>
<path fill="#AD4333" opacity="1.000000" stroke="none" 
	d="
M354.255341,1126.959106 
	C365.717621,1132.678955 377.549713,1137.881714 390.559052,1139.678223 
	C417.097565,1143.343262 443.026733,1142.247925 467.301880,1129.229614 
	C469.934998,1127.817383 472.444244,1126.174194 475.364197,1124.598633 
	C472.595184,1127.050415 469.793640,1130.186401 466.297394,1131.926514 
	C446.639923,1141.710205 425.466339,1144.334351 403.950745,1142.779541 
	C387.195007,1141.568604 370.539612,1138.669800 356.041809,1128.996338 
	C355.378967,1128.553955 354.866211,1127.886719 354.255341,1126.959106 
z"/>
<path fill="#AD4333" opacity="1.000000" stroke="none" 
	d="
M432.804565,1088.150024 
	C423.796570,1092.901733 413.824524,1092.600098 403.392303,1091.141724 
	C404.252869,1090.641602 405.597351,1089.837402 406.670441,1090.108276 
	C414.340668,1092.044800 421.639252,1090.499390 428.926971,1088.221924 
	C429.985016,1087.891235 431.216644,1088.116211 432.804565,1088.150024 
z"/>
<path fill="#AD4333" opacity="1.000000" stroke="none" 
	d="
M332.002197,1105.345459 
	C337.070221,1110.298828 342.140228,1115.622437 347.318970,1121.247314 
	C346.946991,1121.629761 346.196106,1121.950195 346.024994,1121.757080 
	C341.315308,1116.441895 336.664673,1111.074341 332.002197,1105.345459 
z"/>
<path fill="#AD4333" opacity="1.000000" stroke="none" 
	d="
M450.580597,1073.005859 
	C447.599030,1076.749878 444.275391,1080.539307 440.611115,1084.378662 
	C443.593140,1080.636108 446.915833,1076.843750 450.580597,1073.005859 
z"/>
<path fill="#AD4333" opacity="1.000000" stroke="none" 
	d="
M482.049438,1119.805420 
	C483.857239,1117.470215 486.032410,1115.192749 488.533356,1112.816162 
	C486.711670,1115.099243 484.564209,1117.481201 482.049438,1119.805420 
z"/>
<path fill="#AD4333" opacity="1.000000" stroke="none" 
	d="
M347.330414,1121.905273 
	C349.659973,1123.046753 351.878174,1124.556885 354.222839,1126.371338 
	C351.972565,1125.208374 349.595825,1123.741211 347.330414,1121.905273 
z"/>
<path fill="#AD4333" opacity="1.000000" stroke="none" 
	d="
M439.957397,1084.265137 
	C438.211029,1085.657837 436.074158,1086.966064 433.583740,1088.306641 
	C435.342407,1086.953003 437.454651,1085.566895 439.957397,1084.265137 
z"/>
<path fill="#AD4333" opacity="1.000000" stroke="none" 
	d="
M392.948242,1087.678833 
	C390.768127,1086.884644 388.541901,1085.737183 386.146210,1084.298584 
	C388.285217,1085.113525 390.593689,1086.219604 392.948242,1087.678833 
z"/>
<path fill="#AD4333" opacity="1.000000" stroke="none" 
	d="
M400.898193,1090.254883 
	C399.194122,1090.125366 397.401001,1089.687378 395.335327,1089.036255 
	C396.978241,1089.197632 398.893677,1089.572021 400.898193,1090.254883 
z"/>
<path fill="#AD4333" opacity="1.000000" stroke="none" 
	d="
M453.936279,1066.181519 
	C453.716003,1067.615234 453.159149,1069.128784 452.320465,1070.846680 
	C452.558990,1069.454346 453.079346,1067.857910 453.936279,1066.181519 
z"/>
<path fill="#AD4333" opacity="1.000000" stroke="none" 
	d="
M475.973145,1124.712646 
	C476.754150,1123.612183 477.897949,1122.621948 479.373962,1121.589600 
	C478.582733,1122.639160 477.459320,1123.730957 475.973145,1124.712646 
z"/>
<path fill="#AD4333" opacity="1.000000" stroke="none" 
	d="
M493.244385,1107.923096 
	C493.306824,1107.262207 493.725830,1106.574585 494.431274,1105.779297 
	C494.345428,1106.413086 493.973206,1107.154907 493.244385,1107.923096 
z"/>
<path fill="#AD4333" opacity="1.000000" stroke="none" 
	d="
M490.079651,1111.815186 
	C490.156799,1111.118408 490.610962,1110.446655 491.364746,1109.690918 
	C491.261780,1110.351440 490.859222,1111.095825 490.079651,1111.815186 
z"/>
<path fill="#AD4333" opacity="1.000000" stroke="none" 
	d="
M491.915955,1109.726074 
	C491.843231,1109.233276 492.104095,1108.684448 492.655151,1108.015015 
	C492.713440,1108.486328 492.481506,1109.078003 491.915955,1109.726074 
z"/>
<path fill="#AD4333" opacity="1.000000" stroke="none" 
	d="
M489.013611,1112.789062 
	C488.908813,1112.523071 489.094788,1112.189331 489.568176,1111.784668 
	C489.671906,1112.049561 489.488129,1112.385498 489.013611,1112.789062 
z"/>
<path fill="#AD4333" opacity="1.000000" stroke="none" 
	d="
M480.977722,1120.757324 
	C480.865082,1120.471069 481.054840,1120.139282 481.537262,1119.744629 
	C481.646667,1120.025024 481.463379,1120.368530 480.977722,1120.757324 
z"/>
<path fill="#AD4333" opacity="1.000000" stroke="none" 
	d="
M479.931458,1121.712158 
	C479.816589,1121.407471 480.012848,1121.085083 480.503967,1120.711060 
	C480.613373,1121.004395 480.427979,1121.349365 479.931458,1121.712158 
z"/>
<path fill="#FEFDFC" opacity="1.000000" stroke="none" 
	d="
M1543.923096,1119.996948 
	C1543.924194,1051.209961 1543.924194,982.922058 1543.924194,914.153870 
	C1545.869019,914.017212 1547.461304,913.807922 1549.053589,913.807678 
	C1584.044189,913.802795 1619.035156,913.734314 1654.025269,913.869812 
	C1672.917114,913.942932 1690.013184,919.723206 1703.585083,933.009460 
	C1745.809326,974.344421 1735.859253,1030.053955 1698.501709,1058.802612 
	C1684.011597,1069.953613 1667.147095,1073.781494 1649.255981,1073.919189 
	C1633.427856,1074.041016 1617.598145,1073.935059 1601.769043,1073.929810 
	C1600.287109,1073.929321 1598.805298,1073.929688 1596.523560,1073.929688 
	C1596.523560,1094.603760 1596.523560,1114.953979 1596.523560,1135.586182 
	C1578.657227,1135.586182 1561.591553,1135.586182 1543.922119,1135.586182 
	C1543.922119,1130.392334 1543.922119,1125.444214 1543.923096,1119.996948 
M1632.497437,1026.742065 
	C1636.827026,1026.737549 1641.159424,1026.831665 1645.485718,1026.710938 
	C1661.920288,1026.252197 1672.142456,1020.786194 1677.303955,1002.135742 
	C1683.312866,980.423096 1667.089966,960.100220 1646.192139,961.570374 
	C1631.279419,962.619568 1616.232422,961.752319 1601.245361,961.764954 
	C1599.500732,961.766418 1597.756348,961.925720 1596.187378,962.003113 
	C1596.187378,983.870361 1596.187378,1005.082642 1596.187378,1026.742065 
	C1608.234131,1026.742065 1619.866211,1026.742065 1632.497437,1026.742065 
z"/>
<path fill="#FEFDFB" opacity="1.000000" stroke="none" 
	d="
M831.962830,1080.959473 
	C828.505798,1085.645752 825.265564,1090.048218 821.600952,1095.027466 
	C810.731689,1080.146240 800.164978,1065.690430 789.610535,1051.225708 
	C779.040894,1036.740234 768.483459,1022.245972 756.898804,1008.046021 
	C756.898804,1050.531006 756.898804,1093.015991 756.898804,1135.848145 
	C739.040710,1135.848145 721.798340,1135.848145 703.994995,1135.848145 
	C703.994995,1062.044922 703.994995,988.224915 703.994995,913.803955 
	C712.027832,913.803955 719.810913,913.803345 727.593994,913.804138 
	C735.092773,913.804871 742.596252,913.961670 750.088013,913.733521 
	C753.138733,913.640564 754.911377,914.738342 756.577087,917.183838 
	C776.917908,947.048279 797.347168,976.852478 817.761353,1006.666931 
	C818.886108,1008.309692 820.079407,1009.905457 821.626709,1012.060669 
	C828.222900,1002.507263 834.641113,993.285583 840.983032,984.011780 
	C856.114868,961.884827 871.250183,939.759888 886.271362,917.557861 
	C888.149170,914.782288 890.213196,913.669922 893.608398,913.710266 
	C908.745850,913.890076 923.886658,913.788452 939.379456,913.788452 
	C939.379456,987.992493 939.379456,1061.721558 939.379456,1135.831055 
	C921.830322,1135.831055 904.432739,1135.831055 886.474731,1135.831055 
	C886.474731,1093.373169 886.474731,1050.973511 886.474731,1008.573975 
	C886.004944,1008.364319 885.535217,1008.154602 885.065430,1007.944885 
	C867.436829,1032.188599 849.808228,1056.432251 831.962830,1080.959473 
z"/>
<path fill="#D74A2D" opacity="1.000000" stroke="none" 
	d="
M1196.733398,1049.984375 
	C1203.601318,1034.088379 1216.766113,1026.972656 1234.929932,1029.021118 
	C1248.498657,1030.551270 1260.167358,1041.338257 1262.698486,1054.691528 
	C1267.279419,1078.858154 1248.765747,1097.172607 1223.206299,1093.758789 
	C1201.444946,1090.852173 1190.042114,1072.241089 1196.733398,1049.984375 
z"/>
<path fill="#D74A2D" opacity="1.000000" stroke="none" 
	d="
M1631.997803,1026.742065 
	C1619.866211,1026.742065 1608.234131,1026.742065 1596.187378,1026.742065 
	C1596.187378,1005.082642 1596.187378,983.870361 1596.187378,962.003113 
	C1597.756348,961.925720 1599.500732,961.766418 1601.245361,961.764954 
	C1616.232422,961.752319 1631.279419,962.619568 1646.192139,961.570374 
	C1667.089966,960.100220 1683.312866,980.423096 1677.303955,1002.135742 
	C1672.142456,1020.786194 1661.920288,1026.252197 1645.485718,1026.710938 
	C1641.159424,1026.831665 1636.827026,1026.737549 1631.997803,1026.742065 
z"/>
</svg>