<svg version="1.1" id="Layer_1" xmlns="http://www.w3.org/2000/svg" xmlns:xlink="http://www.w3.org/1999/xlink" x="0px" y="0px"
	 width="100%" viewBox="0 0 494 73" enable-background="new 0 0 494 73" xml:space="preserve">
<path fill="#FFFFFF" opacity="1.000000" stroke="none" 
	d="
M362.000000,74.000000 
	C241.666672,74.000000 121.333336,74.000000 1.000000,73.997200 
	C1.000000,72.662910 1.000000,71.331413 1.468654,69.501831 
	C23.858089,69.003738 45.778870,69.003738 67.694687,69.003738 
	C67.694687,46.369152 67.694687,24.317135 67.694687,2.000000 
	C45.257404,2.000000 23.128702,2.000000 1.000000,2.000000 
	C2.497522,1.666667 3.994876,1.042505 5.492589,1.041646 
	C87.381714,0.994681 169.270874,1.000000 251.160019,1.000000 
	C275.127563,1.000000 299.095123,1.000000 323.531342,1.466015 
	C324.000214,5.755194 323.904663,9.581446 324.027893,13.400642 
	C324.147614,17.112600 327.623718,20.031858 331.626801,19.999924 
	C336.463562,19.961338 338.805634,17.984886 338.967560,13.465717 
	C339.116272,9.315420 338.999664,5.155615 339.000000,1.000000 
	C390.936584,1.000000 442.873138,1.000000 494.904846,1.000000 
	C494.904846,25.239895 494.904846,49.480289 494.904846,74.000000 
	C451.979523,74.000000 408.958405,74.000000 365.468872,73.610291 
	C366.918304,68.689354 368.692841,64.087570 370.862305,59.680164 
	C371.358398,58.672260 373.215973,58.334503 375.003204,57.396297 
	C375.003204,61.174744 374.744507,63.676723 375.120972,66.079178 
	C375.289276,67.153412 376.740204,68.823273 377.595490,68.815041 
	C379.042877,68.801109 380.479523,67.669197 382.245117,66.697121 
	C388.097076,70.950668 393.214447,70.055695 394.574066,64.287483 
	C386.353088,65.449135 386.353088,65.449135 384.993896,62.910423 
	C388.457306,62.910423 391.678558,62.910423 394.880829,62.910423 
	C394.960724,57.562130 392.957489,55.139557 388.730164,55.001549 
	C384.580505,54.866074 382.102173,57.473854 382.006317,62.116825 
	C381.972015,63.777729 382.008240,65.440086 381.649109,66.956802 
	C376.157104,65.695374 376.633331,62.072018 377.287781,58.301445 
	C379.018677,58.010921 380.554932,57.753071 382.091187,57.495220 
	C382.039490,57.122334 381.987793,56.749451 381.936127,56.376564 
	C380.392303,56.162060 378.848480,55.947556 377.358643,55.740551 
	C377.029175,54.019073 376.731873,52.465755 376.434570,50.912437 
	C376.092255,50.957718 375.749939,51.003002 375.407654,51.048286 
	C375.117004,52.698902 374.826385,54.349518 374.513031,56.129166 
	C372.243164,56.129166 370.274689,56.129166 368.682373,56.129166 
	C367.491394,58.664688 366.442322,60.898022 365.056030,63.849331 
	C363.779999,61.432030 363.084595,59.643978 361.973358,58.169247 
	C361.186981,57.125565 359.837860,56.505882 358.739960,55.696926 
	C358.433777,56.079266 358.127594,56.461605 357.821411,56.843941 
	C360.789032,62.207283 364.362518,67.433914 362.000000,74.000000 
M404.162262,10.661549 
	C405.162781,10.175120 406.163330,9.688691 407.361023,9.106410 
	C402.136688,4.671525 399.274567,4.758407 395.993988,8.240254 
	C394.744812,2.644114 390.307526,9.193439 388.255127,5.057373 
	C388.255127,10.783104 388.255127,15.326289 388.255127,19.869474 
	C388.812286,19.988247 389.369415,20.107021 389.926575,20.225794 
	C390.284393,18.669676 390.859558,17.126818 390.955444,15.554724 
	C391.165161,12.117614 391.368530,8.847101 396.006683,9.731723 
	C398.635712,11.965940 401.264709,14.200158 404.499054,16.948793 
	C402.641235,16.818510 401.347778,16.948580 400.209595,16.588247 
	C398.977448,16.198172 397.890106,15.350637 396.739624,14.702615 
	C396.411133,14.985257 396.082672,15.267900 395.754181,15.550543 
	C396.254791,16.588615 396.482422,18.121843 397.305237,18.575489 
	C400.219788,20.182379 403.567627,21.546570 406.135590,18.253557 
	C409.262909,14.243299 405.418610,12.848407 403.289001,10.682597 
	C403.399475,10.541095 403.509949,10.399592 404.162262,10.661549 
M339.000092,58.885147 
	C339.000061,60.040577 339.105530,61.207569 338.980377,62.349285 
	C338.595734,65.858673 340.341980,68.206245 343.477234,68.886459 
	C347.608093,69.782669 351.066376,68.640060 352.568207,63.996716 
	C353.748016,60.348995 352.028412,57.975590 349.338654,56.149418 
	C345.299530,53.407120 342.024536,55.701790 338.981293,57.367851 
	C336.317444,50.189205 335.095367,49.704884 324.233459,51.556362 
	C324.233459,57.303730 324.233459,63.058537 324.233459,68.813339 
	C324.772644,68.966484 325.311859,69.119629 325.851044,69.272766 
	C326.432648,67.279671 327.014252,65.286575 327.708923,62.905910 
	C332.422516,63.881908 336.446777,62.580971 339.000092,58.885147 
M373.989960,7.206492 
	C371.871307,4.443566 370.909332,6.368201 369.979919,8.220255 
	C368.872101,10.427813 367.814148,12.660388 366.804474,14.738329 
	C364.196381,12.042100 365.752869,6.524962 359.482300,5.917380 
	C361.227661,10.264777 362.564728,13.853025 364.131165,17.338198 
	C364.594940,18.370089 365.704987,19.111532 366.518921,19.986053 
	C367.388824,19.161386 368.513275,18.481846 369.081573,17.485207 
	C370.880463,14.330414 372.471405,11.057069 374.013947,8.645938 
	C373.752014,9.567975 373.461151,10.482935 373.233459,11.413349 
	C372.480042,14.491824 375.217041,19.219297 378.174286,19.978773 
	C381.960785,20.951218 385.036774,19.115646 386.275208,15.145087 
	C383.121338,13.764066 379.257294,20.539261 376.249390,13.971357 
	C379.916626,13.971357 383.312683,13.971357 386.694702,13.971357 
	C386.898712,6.141070 381.992584,3.937224 373.989960,7.206492 
M208.365387,69.002174 
	C209.807312,68.927231 211.249252,68.852295 212.721451,68.775780 
	C212.721451,46.403732 212.721451,24.364359 212.721451,2.280480 
	C190.400024,2.280480 168.360504,2.280480 146.282455,2.280480 
	C146.282455,24.603920 146.282455,46.643456 146.282455,69.002190 
	C166.839859,69.002190 187.114334,69.002190 208.365387,69.002174 
M285.002808,7.610736 
	C285.002808,5.842263 285.002808,4.073791 285.002808,2.286156 
	C262.721283,2.286156 241.014374,2.286156 219.288116,2.286156 
	C219.288116,24.616520 219.288116,46.656536 219.288116,68.709488 
	C241.287430,68.709488 262.994476,68.709488 285.002808,68.709488 
	C285.002808,48.473297 285.002808,28.529055 285.002808,7.610736 
M115.500000,1.993934 
	C101.754196,1.993934 88.008392,1.993934 74.301071,1.993934 
	C74.301071,24.650272 74.301071,46.690651 74.301071,68.699051 
	C96.650017,68.699051 118.690392,68.699051 140.699158,68.699051 
	C140.699158,46.350220 140.699158,24.309813 140.699158,1.993933 
	C132.430176,1.993933 124.465080,1.993933 115.500000,1.993934 
M342.000000,38.370457 
	C342.000000,34.299068 342.000000,30.227680 342.000000,26.156292 
	C341.523163,25.887997 341.046326,25.619701 340.569489,25.351406 
	C337.957794,28.258039 335.346069,31.164671 333.049500,33.720577 
	C329.474213,31.771854 330.038879,25.588976 324.000946,26.128386 
	C324.000946,31.387321 323.936249,36.360321 324.060852,41.328579 
	C324.083160,42.217918 324.888123,43.087631 325.331726,43.966404 
	C325.887665,43.032497 326.850311,42.129047 326.922943,41.158958 
	C327.137329,38.295681 326.999512,35.406033 326.999512,31.879374 
	C329.263336,34.753555 330.998474,36.956501 333.058441,39.571838 
	C334.230713,38.122208 335.137634,37.034065 336.006805,35.916561 
	C336.900238,34.767921 337.756805,33.590618 339.005676,31.923788 
	C339.005676,35.857250 338.916382,39.019073 339.081390,42.167564 
	C339.114166,42.793194 340.121185,43.367771 340.678955,43.965893 
	C341.114960,43.416485 341.790955,42.921688 341.931274,42.305004 
	C342.147217,41.355946 341.995636,40.323261 342.000000,38.370457 
M442.589478,44.059135 
	C446.044617,43.939762 445.232269,41.086479 446.213654,39.087841 
	C448.121735,35.201962 445.846191,33.076878 443.626801,31.347923 
	C441.113464,29.389996 435.173981,31.275496 434.053802,33.858814 
	C430.998901,40.904011 435.897247,45.404232 442.589478,44.059135 
M412.006897,32.734180 
	C412.006836,35.892891 411.917908,39.056271 412.083527,42.206276 
	C412.115723,42.818607 413.139008,43.378830 413.705139,43.963074 
	C414.134430,43.403069 414.885895,42.869404 414.934204,42.278259 
	C415.096252,40.295975 414.683563,38.215546 415.136200,36.327400 
	C415.407104,35.197330 416.881805,34.355854 417.815399,33.384670 
	C418.543365,34.450150 419.745941,35.451355 419.900757,36.594437 
	C420.225525,38.992744 419.999268,41.465668 419.999268,43.907955 
	C420.612335,44.030766 421.225403,44.153572 421.838470,44.276379 
	C422.225616,42.995232 422.934998,41.714252 422.935669,40.432903 
	C422.937286,37.376598 423.075073,34.544559 426.452393,33.192963 
	C427.301605,35.471054 428.238342,37.722034 428.956543,40.040699 
	C429.239899,40.955513 428.760040,42.150646 429.146454,42.974979 
	C429.428528,43.576763 430.559479,43.780640 431.985260,44.502979 
	C431.985260,41.062771 432.362579,38.203094 431.845001,35.515770 
	C431.530273,33.881706 429.880127,31.277195 428.751129,31.235397 
	C423.205841,31.030107 417.634216,31.537579 412.006897,32.734180 
M409.000000,39.393726 
	C408.998901,37.566029 409.313660,35.659420 408.883850,33.938835 
	C408.604797,32.821774 407.275787,31.180168 406.355560,31.138597 
	C400.641907,30.880484 394.910797,31.008659 389.280426,31.008659 
	C389.280426,35.732761 389.280426,39.816730 389.280426,43.900703 
	C390.840698,43.567940 391.744812,42.816898 391.921173,41.922375 
	C392.205231,40.481720 391.594818,38.772694 392.128967,37.498455 
	C392.698395,36.140171 394.158295,35.155193 395.229431,34.007244 
	C396.152832,35.258205 397.342499,36.395683 397.935608,37.787411 
	C398.770660,39.746704 399.163391,41.894508 399.745239,43.961712 
	C400.163605,41.895985 400.360687,39.750244 401.069733,37.789654 
	C401.645721,36.197060 402.835876,34.826595 403.753693,33.357628 
	C404.833466,34.805241 406.359100,36.110626 406.877960,37.737175 
	C407.498779,39.683075 407.259247,41.903454 407.392334,44.004948 
	C407.802429,43.979897 408.212494,43.954849 408.622559,43.929798 
	C408.748383,42.723228 408.874176,41.516655 409.000000,39.393726 
M462.000000,35.451927 
	C462.000000,32.002522 462.000000,28.553118 462.000000,24.740908 
	C456.776459,25.622086 460.373444,29.691172 458.801666,31.279818 
	C456.817169,31.184906 454.900787,30.900099 453.016907,31.043245 
	C449.059448,31.343952 447.274445,34.431404 448.008728,39.368713 
	C448.510132,42.740219 452.194794,45.561089 455.307159,44.895576 
	C457.489105,44.429031 459.649811,43.863007 462.000000,43.298126 
	C462.000000,41.066593 462.000000,38.739380 462.000000,35.451927 
M473.999481,39.480007 
	C475.062042,40.978367 476.124634,42.476730 477.187195,43.975082 
	C478.132477,43.252731 479.531281,42.728264 479.947205,41.774944 
	C482.147461,36.732208 484.100433,31.581564 486.139099,26.468327 
	C485.664764,26.211119 485.190430,25.953911 484.716064,25.696703 
	C479.623749,28.205793 480.728638,34.868614 477.344177,38.592182 
	C476.216095,36.013664 475.138977,33.509033 474.025970,31.020445 
	C473.042725,28.821943 473.283661,25.207560 468.709229,26.493874 
	C470.531036,30.732687 472.240723,34.710705 473.999481,39.480007 
M374.376953,41.913536 
	C377.993469,46.398876 382.522552,43.633991 386.736450,43.845543 
	C386.736450,39.402397 386.736450,35.342236 386.736450,31.313370 
	C374.399200,30.269447 371.233490,32.780849 374.376953,41.913536 
M412.444977,68.980690 
	C412.963928,66.673286 413.183838,64.237473 414.101257,62.101192 
	C414.773590,60.535618 416.361389,59.363190 417.541168,58.015526 
	C418.360718,59.355850 419.552704,60.606308 419.903412,62.059765 
	C420.320679,63.788925 419.945740,65.697144 420.069061,67.517281 
	C420.102539,68.011414 420.614746,68.739311 421.052307,68.868439 
	C421.534180,69.010651 422.691772,68.564148 422.685059,68.412659 
	C422.513397,64.538536 422.836700,60.464737 421.641022,56.907307 
	C421.205231,55.610729 417.106171,55.545425 414.299469,54.820507 
	C413.978546,53.700867 413.409576,51.715824 412.840607,49.730782 
	C412.402710,49.880447 411.964783,50.030109 411.526886,50.179771 
	C411.526886,56.416286 411.526886,62.652805 412.444977,68.980690 
M359.000000,39.320545 
	C359.000000,40.857334 359.000000,42.394123 359.000000,43.930916 
	C359.594696,44.039013 360.189362,44.147110 360.784058,44.255207 
	C361.189331,43.076893 361.910675,41.905994 361.938538,40.718834 
	C362.011841,37.595142 361.827087,33.407753 365.569916,33.492912 
	C369.225098,33.576073 369.142517,37.773636 369.003937,40.920883 
	C368.982117,41.416771 368.805176,42.092686 369.053253,42.376740 
	C369.670807,43.083736 370.492157,43.612705 371.607758,44.518467 
	C372.720886,31.668676 371.143219,29.650908 362.273346,31.464434 
	C361.812683,25.652821 361.812683,25.652821 359.000000,25.480421 
	C359.000000,29.783808 359.000000,34.073025 359.000000,39.320545 
M354.747284,31.245338 
	C352.926910,31.164141 351.106384,31.013491 349.286194,31.017380 
	C346.255859,31.023851 344.278320,32.594616 344.074432,35.589088 
	C343.857635,38.773762 343.347107,42.283360 347.299988,43.993210 
	C350.630554,45.433872 353.885468,45.027142 356.035004,42.288818 
	C358.702423,38.890808 358.452911,35.139332 354.747284,31.245338 
M429.062653,13.393666 
	C425.851410,6.516943 425.851410,6.516943 423.010223,6.501321 
	C423.368347,12.705676 431.725922,17.486256 425.574921,24.738277 
	C430.128937,24.247509 431.155273,22.462402 436.329041,5.985943 
	C434.695099,6.804585 433.358032,7.954740 432.329163,9.334704 
	C431.274750,10.748944 430.522003,12.388119 429.062653,13.393666 
M425.051544,68.092644 
	C427.418701,69.960365 428.040405,68.792297 428.002655,66.411652 
	C427.948639,63.001953 427.550049,58.262276 431.894470,58.385014 
	C436.285828,58.509083 434.619110,63.397350 435.066101,66.450508 
	C435.205292,67.401131 436.114319,68.239037 436.670898,69.128540 
	C437.304932,68.873863 437.938965,68.619194 438.572998,68.364517 
	C437.922394,64.604546 438.091125,60.427353 436.436768,57.178520 
	C433.681000,51.766750 428.983734,57.815090 425.005005,55.770386 
	C425.005005,59.905884 425.005005,63.538307 425.051544,68.092644 
M450.028442,58.480469 
	C452.598907,58.992638 455.169373,59.504803 459.048035,60.277630 
	C456.087067,55.989651 453.356171,54.199001 449.586304,55.224453 
	C445.611847,56.305569 443.957794,59.416664 445.142914,63.188805 
	C445.822784,65.352821 447.582367,68.124619 449.477783,68.756027 
	C453.055603,69.947922 456.584808,68.871605 458.100067,64.197563 
	C456.706238,64.197563 455.587982,64.077507 454.505798,64.223953 
	C452.582275,64.484268 450.680542,64.906036 448.769714,65.260269 
	C448.994385,63.187054 449.219086,61.113838 450.028442,58.480469 
M405.498871,64.999229 
	C403.760895,64.922707 401.825378,65.265175 400.373871,64.580971 
	C399.714783,64.270309 399.545776,61.769386 399.958221,60.529339 
	C402.094788,54.105457 406.007416,61.927597 408.944550,59.376202 
	C409.021088,55.636040 406.152618,55.070538 403.419830,55.077175 
	C399.275482,55.087242 396.751740,57.650490 396.077301,61.580948 
	C395.484924,65.033417 397.070984,68.149033 400.535675,68.611885 
	C403.102692,68.954811 406.668457,68.276329 408.408173,66.610474 
	C410.289703,64.808876 408.603394,63.428043 405.498871,64.999229 
M348.502747,6.000816 
	C346.411530,6.196972 344.320282,6.393128 342.479614,6.565784 
	C342.479614,10.967769 342.479614,15.434845 342.479614,19.901920 
	C343.867584,17.230865 343.954712,14.358128 344.891418,11.795965 
	C345.340027,10.568797 347.397461,9.929778 348.726257,9.024376 
	C349.484039,10.269496 350.613800,11.433588 350.907074,12.779895 
	C351.288239,14.529735 350.902100,16.433573 351.064667,18.251596 
	C351.118408,18.852501 351.746124,19.589424 352.310089,19.884882 
	C352.632202,20.053619 353.609070,19.606827 353.856903,19.183157 
	C355.944885,15.613658 353.152130,7.585964 348.502747,6.000816 
M418.000061,12.394806 
	C416.851501,8.698259 420.032562,9.223933 421.863556,8.433043 
	C420.575958,6.963696 419.253021,5.522792 418.029114,4.002184 
	C417.769562,3.679722 418.041504,2.859903 417.767761,2.634392 
	C417.333588,2.276785 416.187469,1.981684 416.133331,2.082986 
	C415.046265,4.115740 413.418701,6.159728 413.256714,8.303951 
	C413.088501,10.529536 414.191895,12.930556 415.057800,15.129392 
	C415.729797,16.835863 416.577576,18.792160 417.960327,19.773706 
	C418.724548,20.316225 420.750366,19.081488 421.392273,18.890488 
	C419.967651,16.524380 418.983948,14.890530 418.000061,12.394806 
M353.999969,55.635242 
	C354.001648,59.467571 353.929291,63.302792 354.078461,67.129372 
	C354.103088,67.761391 355.097931,68.355591 355.644379,68.967262 
	C356.091431,68.425499 356.917267,67.890274 356.926727,67.340965 
	C357.018707,62.011055 357.012939,56.677933 356.897156,51.348728 
	C356.887390,50.899471 355.929382,50.282509 355.311157,50.114937 
	C355.006226,50.032288 354.171783,50.748817 354.098816,51.190048 
	C353.910706,52.327202 354.013458,53.512463 353.999969,55.635242 
M487.000000,39.328598 
	C487.000092,39.828430 486.872314,40.372128 487.025696,40.819378 
	C487.393707,41.892387 487.893829,42.920090 488.340637,43.966099 
	C488.893707,42.859993 489.864471,41.775723 489.923645,40.643784 
	C490.123474,36.822178 490.095795,32.979683 489.937408,29.154184 
	C489.893646,28.097427 489.092529,27.072031 488.638916,26.032240 
	C488.092651,27.145662 487.161194,28.230230 487.075226,29.378128 
	C486.851868,32.360401 487.000061,35.370506 487.000000,39.328598 
M409.000000,12.528544 
	C409.000122,14.004819 408.824829,15.509619 409.058685,16.947891 
	C409.229950,18.001249 409.938599,18.967228 410.407776,19.972160 
	C410.938385,19.028988 411.788086,18.130981 411.929382,17.132700 
	C412.179779,15.363791 412.216675,13.500139 411.941864,11.738698 
	C411.639496,9.800550 410.884827,7.932954 410.327209,6.034624 
	C409.884796,7.884209 409.442383,9.733793 409.000000,12.528544 
M356.000000,16.303736 
	C356.578888,17.522173 357.157806,18.740610 357.736694,19.959049 
	C358.157806,18.745842 358.861694,17.551144 358.942535,16.315664 
	C359.124268,13.539001 359.092102,10.736437 358.926605,7.957538 
	C358.886597,7.285795 357.990204,6.665054 357.487640,6.020876 
	C356.993286,6.673420 356.121399,7.298977 356.072479,7.983350 
	C355.897491,10.431533 356.001526,12.899658 356.000000,16.303736 
M442.999969,59.682758 
	C442.418182,58.468956 441.836365,57.255150 441.254578,56.041336 
	C440.836395,57.255817 440.152405,58.449680 440.056274,59.689144 
	C439.866760,62.132549 439.896545,64.608978 440.074249,67.054413 
	C440.123138,67.727226 441.016357,68.338684 441.522156,68.978294 
	C442.013275,68.323715 442.866394,67.701286 442.927917,67.008553 
	C443.115631,64.894630 442.998505,62.753628 442.999969,59.682758 
z"/>
<path fill="#EA3D17" opacity="1.000000" stroke="none" 
	d="
M1.000000,2.468657 
	C23.128702,2.000000 45.257404,2.000000 67.694687,2.000000 
	C67.694687,24.317135 67.694687,46.369152 67.694687,69.003738 
	C45.778870,69.003738 23.858089,69.003738 1.468654,69.001869 
	C1.000000,46.979103 1.000000,24.958210 1.000000,2.468657 
M26.693306,16.901999 
	C23.608456,16.441561 20.523605,15.981124 17.074398,15.466304 
	C17.074398,24.718882 16.721458,33.027473 17.172266,41.292225 
	C17.636112,49.796051 23.602102,55.355026 31.959888,56.063160 
	C42.277309,56.937328 50.283001,52.978931 51.321445,44.586617 
	C52.484280,35.189018 51.588478,25.536694 51.588478,16.078890 
	C48.562866,16.078890 45.774490,16.078890 42.517109,16.078890 
	C42.517109,23.765034 42.612022,31.226801 42.486481,38.684856 
	C42.389530,44.444290 39.441681,47.503208 34.469006,47.405952 
	C29.781124,47.314270 26.929264,44.237152 26.836538,38.805492 
	C26.717266,31.818909 26.795586,24.828955 26.693306,16.901999 
z"/>
<path fill="#2D2D2E" opacity="1.000000" stroke="none" 
	d="
M362.375000,74.000000 
	C364.362518,67.433914 360.789032,62.207283 357.821411,56.843941 
	C358.127594,56.461605 358.433777,56.079266 358.739960,55.696926 
	C359.837860,56.505882 361.186981,57.125565 361.973358,58.169247 
	C363.084595,59.643978 363.779999,61.432030 365.056030,63.849331 
	C366.442322,60.898022 367.491394,58.664688 368.682373,56.129166 
	C370.274689,56.129166 372.243164,56.129166 374.513031,56.129166 
	C374.826385,54.349518 375.117004,52.698902 375.407654,51.048286 
	C375.749939,51.003002 376.092255,50.957718 376.434570,50.912437 
	C376.731873,52.465755 377.029175,54.019073 377.358643,55.740551 
	C378.848480,55.947556 380.392303,56.162060 381.936127,56.376564 
	C381.987793,56.749451 382.039490,57.122334 382.091187,57.495220 
	C380.554932,57.753071 379.018677,58.010921 377.287781,58.301445 
	C376.633331,62.072018 376.157104,65.695374 381.636597,66.923111 
	C381.987244,67.034409 381.920685,67.007301 381.920685,67.007301 
	C380.479523,67.669197 379.042877,68.801109 377.595490,68.815041 
	C376.740204,68.823273 375.289276,67.153412 375.120972,66.079178 
	C374.744507,63.676723 375.003204,61.174744 375.003204,57.396297 
	C373.215973,58.334503 371.358398,58.672260 370.862305,59.680164 
	C368.692841,64.087570 366.918304,68.689354 365.000214,73.610291 
	C364.250000,74.000000 363.500000,74.000000 362.375000,74.000000 
z"/>
<path fill="#FFFFFF" opacity="1.000000" stroke="none" 
	d="
M327.000000,1.000000 
	C329.700623,1.000000 332.401276,1.000000 335.550964,1.464508 
	C335.999969,5.224402 335.917450,8.522481 336.024963,11.814356 
	C336.117706,14.654732 335.242920,16.824923 332.152588,16.933830 
	C328.904938,17.048285 327.136414,15.072837 327.029663,11.873853 
	C326.908813,8.252938 327.000641,4.624926 327.000000,1.000000 
z"/>
<path fill="#2D2D2E" opacity="1.000000" stroke="none" 
	d="
M326.625000,1.000000 
	C327.000641,4.624926 326.908813,8.252938 327.029663,11.873853 
	C327.136414,15.072837 328.904938,17.048285 332.152588,16.933830 
	C335.242920,16.824923 336.117706,14.654732 336.024963,11.814356 
	C335.917450,8.522481 335.999969,5.224402 336.000000,1.464508 
	C336.750000,1.000000 337.500000,1.000000 338.625000,1.000000 
	C338.999664,5.155615 339.116272,9.315420 338.967560,13.465717 
	C338.805634,17.984886 336.463562,19.961338 331.626801,19.999924 
	C327.623718,20.031858 324.147614,17.112600 324.027893,13.400642 
	C323.904663,9.581446 324.000214,5.755194 324.000000,1.466015 
	C324.750000,1.000000 325.500000,1.000000 326.625000,1.000000 
z"/>
<path fill="#EA3C16" opacity="1.000000" stroke="none" 
	d="
M207.877090,69.002182 
	C187.114334,69.002190 166.839859,69.002190 146.282455,69.002190 
	C146.282455,46.643456 146.282455,24.603920 146.282455,2.280480 
	C168.360504,2.280480 190.400024,2.280480 212.721451,2.280480 
	C212.721451,24.364359 212.721451,46.403732 212.721451,68.775780 
	C211.249252,68.852295 209.807312,68.927231 207.877090,69.002182 
M170.144394,53.587082 
	C174.135590,54.406647 178.142212,55.963413 182.114502,55.880211 
	C188.767487,55.740860 194.141327,50.234818 194.955826,43.964321 
	C195.860565,36.998997 192.304565,31.337971 185.453323,28.843019 
	C184.264511,28.410101 183.070724,27.990849 181.610001,27.469126 
	C183.941528,23.643259 186.130234,20.051758 188.492371,16.175674 
	C178.232224,15.303056 178.231949,15.302883 173.418488,22.954662 
	C171.202988,26.476580 168.927231,29.962370 166.786804,33.529354 
	C162.244736,41.098610 163.119354,47.080551 170.144394,53.587082 
z"/>
<path fill="#EA3C16" opacity="1.000000" stroke="none" 
	d="
M285.002808,8.097775 
	C285.002808,28.529055 285.002808,48.473297 285.002808,68.709488 
	C262.994476,68.709488 241.287430,68.709488 219.288116,68.709488 
	C219.288116,46.656536 219.288116,24.616520 219.288116,2.286156 
	C241.014374,2.286156 262.721283,2.286156 285.002808,2.286156 
	C285.002808,4.073791 285.002808,5.842263 285.002808,8.097775 
M266.836945,22.885956 
	C264.242615,20.660864 261.830139,16.836441 259.019165,16.516874 
	C251.241516,15.632660 243.297623,16.210680 235.445618,16.210680 
	C235.445618,29.142944 235.445618,41.909531 235.445618,54.861649 
	C238.600494,54.861649 241.491592,54.861649 244.993286,54.861649 
	C244.993286,51.190609 244.993286,47.804260 244.993286,43.838066 
	C249.738281,43.838066 253.937622,44.293911 257.990021,43.717213 
	C262.567413,43.065804 266.237061,39.967140 267.255341,35.589085 
	C268.135651,31.804029 267.238464,27.605572 266.836945,22.885956 
z"/>
<path fill="#EA3E18" opacity="1.000000" stroke="none" 
	d="
M116.000000,1.993933 
	C124.465080,1.993933 132.430176,1.993933 140.699158,1.993933 
	C140.699158,24.309813 140.699158,46.350220 140.699158,68.699051 
	C118.690392,68.699051 96.650017,68.699051 74.301071,68.699051 
	C74.301071,46.690651 74.301071,24.650272 74.301071,1.993934 
	C88.008392,1.993934 101.754196,1.993934 116.000000,1.993933 
M118.608864,38.899170 
	C118.608864,44.167931 118.608864,49.436691 118.608864,54.832031 
	C122.062798,54.832031 124.942696,54.832031 127.813446,54.832031 
	C127.813446,41.622669 127.813446,28.735800 127.813446,16.196138 
	C121.695030,14.277863 117.715958,16.188601 114.854759,21.557259 
	C112.807770,25.398159 109.928864,28.795687 107.112091,32.834137 
	C104.130348,28.555408 101.144333,25.118793 99.134026,21.183718 
	C96.238869,15.516641 91.947426,14.613165 86.247467,16.095390 
	C86.247467,28.963179 86.247467,41.857376 86.247467,54.926308 
	C89.414810,54.926308 92.331413,54.926308 95.926743,54.926308 
	C95.926743,47.920567 95.926743,41.114460 95.926743,33.086754 
	C100.191322,38.732124 103.607719,43.254677 107.193466,48.001423 
	C110.930969,42.928947 114.238441,38.440105 118.232216,33.019825 
	C118.419289,35.506165 118.513947,36.764278 118.608864,38.899170 
z"/>
<path fill="#2D2D2E" opacity="1.000000" stroke="none" 
	d="
M342.000000,38.848259 
	C341.995636,40.323261 342.147217,41.355946 341.931274,42.305004 
	C341.790955,42.921688 341.114960,43.416485 340.678955,43.965889 
	C340.121185,43.367771 339.114166,42.793194 339.081390,42.167564 
	C338.916382,39.019073 339.005676,35.857250 339.005676,31.923788 
	C337.756805,33.590618 336.900238,34.767921 336.006805,35.916561 
	C335.137634,37.034065 334.230713,38.122208 333.058441,39.571838 
	C330.998474,36.956501 329.263336,34.753555 326.999512,31.879374 
	C326.999512,35.406033 327.137329,38.295681 326.922943,41.158958 
	C326.850311,42.129047 325.887665,43.032497 325.331726,43.966408 
	C324.888123,43.087631 324.083160,42.217918 324.060852,41.328579 
	C323.936249,36.360321 324.000946,31.387321 324.000946,26.128386 
	C330.038879,25.588976 329.474213,31.771854 333.049500,33.720577 
	C335.346069,31.164671 337.957794,28.258039 340.569489,25.351406 
	C341.046326,25.619701 341.523163,25.887997 342.000000,26.156292 
	C342.000000,30.227680 342.000000,34.299068 342.000000,38.848259 
z"/>
<path fill="#2D2D2E" opacity="1.000000" stroke="none" 
	d="
M442.276611,44.300476 
	C435.897247,45.404232 430.998901,40.904011 434.053802,33.858814 
	C435.173981,31.275496 441.113464,29.389996 443.626801,31.347923 
	C445.846191,33.076878 448.121735,35.201962 446.213654,39.087841 
	C445.232269,41.086479 446.044617,43.939762 442.276611,44.300476 
z"/>
<path fill="#2D2D2E" opacity="1.000000" stroke="none" 
	d="
M412.039368,32.263744 
	C417.634216,31.537579 423.205841,31.030107 428.751129,31.235397 
	C429.880127,31.277195 431.530273,33.881706 431.845001,35.515770 
	C432.362579,38.203094 431.985260,41.062771 431.985260,44.502979 
	C430.559479,43.780640 429.428528,43.576763 429.146454,42.974979 
	C428.760040,42.150646 429.239899,40.955513 428.956543,40.040699 
	C428.238342,37.722034 427.301605,35.471054 426.452393,33.192963 
	C423.075073,34.544559 422.937286,37.376598 422.935669,40.432903 
	C422.934998,41.714252 422.225616,42.995232 421.838470,44.276379 
	C421.225403,44.153572 420.612335,44.030766 419.999268,43.907955 
	C419.999268,41.465668 420.225525,38.992744 419.900757,36.594437 
	C419.745941,35.451355 418.543365,34.450150 417.815430,33.384666 
	C416.881805,34.355854 415.407104,35.197330 415.136200,36.327400 
	C414.683563,38.215546 415.096252,40.295975 414.934204,42.278259 
	C414.885895,42.869404 414.134430,43.403069 413.705139,43.963081 
	C413.139008,43.378830 412.115723,42.818607 412.083527,42.206276 
	C411.917908,39.056271 412.006836,35.892891 412.039368,32.263744 
z"/>
<path fill="#2D2D2E" opacity="1.000000" stroke="none" 
	d="
M409.000000,39.851906 
	C408.874176,41.516655 408.748383,42.723228 408.622559,43.929798 
	C408.212494,43.954849 407.802429,43.979897 407.392334,44.004948 
	C407.259247,41.903454 407.498779,39.683075 406.877960,37.737175 
	C406.359100,36.110626 404.833466,34.805241 403.753693,33.357628 
	C402.835876,34.826595 401.645721,36.197060 401.069733,37.789654 
	C400.360687,39.750244 400.163605,41.895985 399.745239,43.961708 
	C399.163391,41.894508 398.770660,39.746704 397.935608,37.787411 
	C397.342499,36.395683 396.152832,35.258205 395.229431,34.007240 
	C394.158295,35.155193 392.698395,36.140171 392.128967,37.498455 
	C391.594818,38.772694 392.205231,40.481720 391.921173,41.922375 
	C391.744812,42.816898 390.840698,43.567940 389.280426,43.900703 
	C389.280426,39.816730 389.280426,35.732761 389.280426,31.008659 
	C394.910797,31.008659 400.641907,30.880484 406.355560,31.138597 
	C407.275787,31.180168 408.604797,32.821774 408.883850,33.938835 
	C409.313660,35.659420 408.998901,37.566029 409.000000,39.851906 
z"/>
<path fill="#2D2D2E" opacity="1.000000" stroke="none" 
	d="
M462.000000,35.932045 
	C462.000000,38.739380 462.000000,41.066593 462.000000,43.298126 
	C459.649811,43.863007 457.489105,44.429031 455.307159,44.895576 
	C452.194794,45.561089 448.510132,42.740219 448.008728,39.368713 
	C447.274445,34.431404 449.059448,31.343952 453.016907,31.043245 
	C454.900787,30.900099 456.817169,31.184906 458.801666,31.279818 
	C460.373444,29.691172 456.776459,25.622086 462.000000,24.740908 
	C462.000000,28.553118 462.000000,32.002522 462.000000,35.932045 
M458.991669,37.508320 
	C457.866699,34.815838 456.160400,32.393074 453.066772,34.197468 
	C451.832428,34.917408 450.927429,37.881287 451.346405,39.423164 
	C452.363525,43.166245 454.995941,42.716698 458.991669,37.508320 
z"/>
<path fill="#2D2D2E" opacity="1.000000" stroke="none" 
	d="
M374.029144,7.953737 
	C381.992584,3.937224 386.898712,6.141070 386.694702,13.971357 
	C383.312683,13.971357 379.916626,13.971357 376.249390,13.971357 
	C379.257294,20.539261 383.121338,13.764066 386.275208,15.144848 
	C385.036774,19.115646 381.960785,20.951218 378.174286,19.978773 
	C375.217041,19.219297 372.480042,14.491824 373.233459,11.413349 
	C373.461151,10.482935 373.752014,9.567975 374.051300,8.270033 
	C374.088654,7.894128 374.029144,7.953737 374.029144,7.953737 
z"/>
<path fill="#2D2D2E" opacity="1.000000" stroke="none" 
	d="
M381.999756,67.068092 
	C382.008240,65.440086 381.972015,63.777729 382.006317,62.116825 
	C382.102173,57.473854 384.580505,54.866074 388.730164,55.001549 
	C392.957489,55.139557 394.960724,57.562130 394.880829,62.910423 
	C391.678558,62.910423 388.457306,62.910423 384.993896,62.910423 
	C386.353088,65.449135 386.353088,65.449135 394.574066,64.287483 
	C393.214447,70.055695 388.097076,70.950668 382.245117,66.697121 
	C381.920685,67.007301 381.987244,67.034409 381.999756,67.068092 
z"/>
<path fill="#2D2D2E" opacity="1.000000" stroke="none" 
	d="
M338.984711,58.028118 
	C336.446777,62.580971 332.422516,63.881908 327.708923,62.905910 
	C327.014252,65.286575 326.432648,67.279671 325.851044,69.272766 
	C325.311859,69.119629 324.772644,68.966484 324.233459,68.813339 
	C324.233459,63.058537 324.233459,57.303730 324.233459,51.556362 
	C335.095367,49.704884 336.317444,50.189205 338.953308,57.727612 
	C338.925323,58.087372 338.984711,58.028118 338.984711,58.028118 
M333.316101,53.824104 
	C331.354889,53.479210 329.393677,53.134312 327.359009,52.776501 
	C327.359009,55.599064 327.359009,57.762745 327.359009,60.829319 
	C330.247345,59.904739 332.680450,59.363682 334.802155,58.236553 
	C335.203552,58.023327 334.368286,55.482162 333.316101,53.824104 
z"/>
<path fill="#2D2D2E" opacity="1.000000" stroke="none" 
	d="
M473.974976,39.084366 
	C472.240723,34.710705 470.531036,30.732687 468.709229,26.493874 
	C473.283661,25.207560 473.042725,28.821943 474.025970,31.020445 
	C475.138977,33.509033 476.216095,36.013664 477.344177,38.592182 
	C480.728638,34.868614 479.623749,28.205793 484.716064,25.696703 
	C485.190430,25.953911 485.664764,26.211119 486.139099,26.468327 
	C484.100433,31.581564 482.147461,36.732208 479.947205,41.774944 
	C479.531281,42.728264 478.132477,43.252731 477.187195,43.975090 
	C476.124634,42.476730 475.062042,40.978367 473.974976,39.084366 
z"/>
<path fill="#2D2D2E" opacity="1.000000" stroke="none" 
	d="
M374.116760,41.606602 
	C371.233490,32.780849 374.399200,30.269447 386.736450,31.313370 
	C386.736450,35.342236 386.736450,39.402397 386.736450,43.845543 
	C382.522552,43.633991 377.993469,46.398876 374.116760,41.606602 
M380.406403,33.061882 
	C377.559357,33.706879 375.493805,35.323895 376.268829,38.370895 
	C376.624268,39.768219 378.415253,41.441940 379.814789,41.730259 
	C380.945435,41.963173 383.694794,40.081917 383.593567,39.528748 
	C383.212555,37.446583 381.959320,35.524017 380.406403,33.061882 
z"/>
<path fill="#2D2D2E" opacity="1.000000" stroke="none" 
	d="
M411.985931,68.935005 
	C411.526886,62.652805 411.526886,56.416286 411.526886,50.179771 
	C411.964783,50.030109 412.402710,49.880447 412.840607,49.730782 
	C413.409576,51.715824 413.978546,53.700867 414.299469,54.820507 
	C417.106171,55.545425 421.205231,55.610729 421.641022,56.907307 
	C422.836700,60.464737 422.513397,64.538536 422.685059,68.412659 
	C422.691772,68.564148 421.534180,69.010651 421.052307,68.868439 
	C420.614746,68.739311 420.102539,68.011414 420.069061,67.517281 
	C419.945740,65.697144 420.320679,63.788925 419.903412,62.059765 
	C419.552704,60.606308 418.360718,59.355850 417.541168,58.015530 
	C416.361389,59.363190 414.773590,60.535618 414.101257,62.101192 
	C413.183838,64.237473 412.963928,66.673286 411.985931,68.935005 
z"/>
<path fill="#2D2D2E" opacity="1.000000" stroke="none" 
	d="
M359.000000,38.841393 
	C359.000000,34.073025 359.000000,29.783808 359.000000,25.480421 
	C361.812683,25.652821 361.812683,25.652821 362.273346,31.464434 
	C371.143219,29.650908 372.720886,31.668676 371.607758,44.518467 
	C370.492157,43.612705 369.670807,43.083736 369.053253,42.376740 
	C368.805176,42.092686 368.982117,41.416771 369.003937,40.920883 
	C369.142517,37.773636 369.225098,33.576073 365.569916,33.492912 
	C361.827087,33.407753 362.011841,37.595142 361.938538,40.718834 
	C361.910675,41.905994 361.189331,43.076893 360.784058,44.255207 
	C360.189362,44.147110 359.594696,44.039013 359.000000,43.930916 
	C359.000000,42.394123 359.000000,40.857334 359.000000,38.841393 
z"/>
<path fill="#2D2D2E" opacity="1.000000" stroke="none" 
	d="
M338.898010,58.119179 
	C342.024536,55.701790 345.299530,53.407120 349.338654,56.149418 
	C352.028412,57.975590 353.748016,60.348995 352.568207,63.996716 
	C351.066376,68.640060 347.608093,69.782669 343.477234,68.886459 
	C340.341980,68.206245 338.595734,65.858673 338.980377,62.349285 
	C339.105530,61.207569 339.000061,60.040577 338.992401,58.456635 
	C338.984711,58.028118 338.925323,58.087372 338.898010,58.119179 
M349.045654,60.350422 
	C347.603516,58.314686 345.691650,56.768024 343.643616,59.061291 
	C342.539276,60.297836 342.132355,62.632385 342.354095,64.349762 
	C342.445831,65.060707 345.665710,66.310837 346.310730,65.815460 
	C347.753326,64.707558 348.472595,62.657837 349.045654,60.350422 
z"/>
<path fill="#2D2D2E" opacity="1.000000" stroke="none" 
	d="
M355.027832,31.554882 
	C358.452911,35.139332 358.702423,38.890808 356.035004,42.288818 
	C353.885468,45.027142 350.630554,45.433872 347.299988,43.993210 
	C343.347107,42.283360 343.857635,38.773762 344.074432,35.589088 
	C344.278320,32.594616 346.255859,31.023851 349.286194,31.017380 
	C351.106384,31.013491 352.926910,31.164141 355.027832,31.554882 
M349.945312,33.578808 
	C348.804504,35.048126 346.881256,36.461075 346.770081,38.004574 
	C346.680847,39.243004 348.993561,41.864170 349.880646,41.716122 
	C351.841125,41.388939 353.574921,39.703571 356.160095,38.102116 
	C353.764038,35.986816 352.144958,34.557484 349.945312,33.578808 
z"/>
<path fill="#2D2D2E" opacity="1.000000" stroke="none" 
	d="
M395.947327,9.058806 
	C399.274567,4.758407 402.136688,4.671525 407.361023,9.106410 
	C406.163330,9.688691 405.162781,10.175120 403.652405,10.190707 
	C402.152557,9.522186 401.162628,9.324506 400.172668,9.126826 
	C400.101715,9.570446 400.030762,10.014066 399.959808,10.457686 
	C400.947479,10.664298 401.935150,10.870910 402.922821,11.077520 
	C405.418610,12.848407 409.262909,14.243299 406.135590,18.253557 
	C403.567627,21.546570 400.219788,20.182379 397.305237,18.575489 
	C396.482422,18.121843 396.254791,16.588615 395.754181,15.550543 
	C396.082672,15.267900 396.411133,14.985257 396.739624,14.702615 
	C397.890106,15.350637 398.977448,16.198172 400.209595,16.588247 
	C401.347778,16.948580 402.641235,16.818510 404.499054,16.948793 
	C401.264709,14.200158 398.635712,11.965940 396.005157,9.365867 
	C396.003632,9.000010 395.947327,9.058806 395.947327,9.058806 
z"/>
<path fill="#2D2D2E" opacity="1.000000" stroke="none" 
	d="
M429.349945,13.661254 
	C430.522003,12.388119 431.274750,10.748944 432.329163,9.334704 
	C433.358032,7.954740 434.695099,6.804585 436.329041,5.985943 
	C431.155273,22.462402 430.128937,24.247509 425.574921,24.738277 
	C431.725922,17.486256 423.368347,12.705676 423.010223,6.501321 
	C425.851410,6.516943 425.851410,6.516943 429.349945,13.661254 
z"/>
<path fill="#2D2D2E" opacity="1.000000" stroke="none" 
	d="
M425.028259,67.631683 
	C425.005005,63.538307 425.005005,59.905884 425.005005,55.770386 
	C428.983734,57.815090 433.681000,51.766750 436.436768,57.178520 
	C438.091125,60.427353 437.922394,64.604546 438.572998,68.364517 
	C437.938965,68.619194 437.304932,68.873863 436.670898,69.128540 
	C436.114319,68.239037 435.205292,67.401131 435.066101,66.450508 
	C434.619110,63.397350 436.285828,58.509083 431.894470,58.385014 
	C427.550049,58.262276 427.948639,63.001953 428.002655,66.411652 
	C428.040405,68.792297 427.418701,69.960365 425.028259,67.631683 
z"/>
<path fill="#2D2D2E" opacity="1.000000" stroke="none" 
	d="
M449.736084,58.760544 
	C449.219086,61.113838 448.994385,63.187054 448.769714,65.260269 
	C450.680542,64.906036 452.582275,64.484268 454.505798,64.223953 
	C455.587982,64.077507 456.706238,64.197563 458.100067,64.197563 
	C456.584808,68.871605 453.055603,69.947922 449.477783,68.756027 
	C447.582367,68.124619 445.822784,65.352821 445.142914,63.188805 
	C443.957794,59.416664 445.611847,56.305569 449.586304,55.224453 
	C453.356171,54.199001 456.087067,55.989651 459.048035,60.277630 
	C455.169373,59.504803 452.598907,58.992638 449.736084,58.760544 
z"/>
<path fill="#2D2D2E" opacity="1.000000" stroke="none" 
	d="
M405.781189,64.717590 
	C408.603394,63.428043 410.289703,64.808876 408.408173,66.610474 
	C406.668457,68.276329 403.102692,68.954811 400.535675,68.611885 
	C397.070984,68.149033 395.484924,65.033417 396.077301,61.580948 
	C396.751740,57.650490 399.275482,55.087242 403.419830,55.077175 
	C406.152618,55.070538 409.021088,55.636040 408.944550,59.376202 
	C406.007416,61.927597 402.094788,54.105457 399.958221,60.529339 
	C399.545776,61.769386 399.714783,64.270309 400.373871,64.580971 
	C401.825378,65.265175 403.760895,64.922707 405.781189,64.717590 
z"/>
<path fill="#2D2D2E" opacity="1.000000" stroke="none" 
	d="
M348.923187,6.002619 
	C353.152130,7.585964 355.944885,15.613658 353.856903,19.183157 
	C353.609070,19.606827 352.632202,20.053619 352.310089,19.884882 
	C351.746124,19.589424 351.118408,18.852501 351.064667,18.251596 
	C350.902100,16.433573 351.288239,14.529735 350.907074,12.779895 
	C350.613800,11.433588 349.484039,10.269496 348.726257,9.024380 
	C347.397461,9.929778 345.340027,10.568797 344.891418,11.795965 
	C343.954712,14.358128 343.867584,17.230865 342.479614,19.901920 
	C342.479614,15.434845 342.479614,10.967769 342.479614,6.565784 
	C344.320282,6.393128 346.411530,6.196972 348.923187,6.002619 
z"/>
<path fill="#2D2D2E" opacity="1.000000" stroke="none" 
	d="
M374.115723,7.861851 
	C372.471405,11.057069 370.880463,14.330414 369.081573,17.485207 
	C368.513275,18.481846 367.388824,19.161386 366.518921,19.986057 
	C365.704987,19.111532 364.594940,18.370089 364.131165,17.338198 
	C362.564728,13.853025 361.227661,10.264777 359.482300,5.917380 
	C365.752869,6.524962 364.196381,12.042100 366.804474,14.738329 
	C367.814148,12.660388 368.872101,10.427813 369.979919,8.220255 
	C370.909332,6.368201 371.871307,4.443566 374.009552,7.580114 
	C374.029144,7.953737 374.088654,7.894128 374.115723,7.861851 
z"/>
<path fill="#2D2D2E" opacity="1.000000" stroke="none" 
	d="
M418.000122,12.825743 
	C418.983948,14.890530 419.967651,16.524380 421.392273,18.890488 
	C420.750366,19.081488 418.724548,20.316225 417.960327,19.773706 
	C416.577576,18.792160 415.729797,16.835863 415.057800,15.129392 
	C414.191895,12.930556 413.088501,10.529536 413.256714,8.303951 
	C413.418701,6.159728 415.046265,4.115740 416.133331,2.082986 
	C416.187469,1.981684 417.333588,2.276785 417.767761,2.634392 
	C418.041504,2.859903 417.769562,3.679722 418.029114,4.002184 
	C419.253021,5.522792 420.575958,6.963696 421.863556,8.433043 
	C420.032562,9.223933 416.851501,8.698259 418.000122,12.825743 
z"/>
<path fill="#2D2D2E" opacity="1.000000" stroke="none" 
	d="
M396.033020,8.971844 
	C391.368530,8.847101 391.165161,12.117614 390.955444,15.554724 
	C390.859558,17.126818 390.284393,18.669676 389.926575,20.225794 
	C389.369415,20.107021 388.812286,19.988247 388.255127,19.869474 
	C388.255127,15.326289 388.255127,10.783104 388.255127,5.057373 
	C390.307526,9.193439 394.744812,2.644114 395.970642,8.649530 
	C395.947327,9.058806 396.003632,9.000010 396.033020,8.971844 
z"/>
<path fill="#2D2D2E" opacity="1.000000" stroke="none" 
	d="
M354.000000,55.156876 
	C354.013458,53.512463 353.910706,52.327202 354.098816,51.190048 
	C354.171783,50.748817 355.006226,50.032288 355.311157,50.114937 
	C355.929382,50.282509 356.887390,50.899471 356.897156,51.348728 
	C357.012939,56.677933 357.018707,62.011055 356.926727,67.340965 
	C356.917267,67.890274 356.091431,68.425499 355.644379,68.967262 
	C355.097931,68.355591 354.103088,67.761391 354.078461,67.129372 
	C353.929291,63.302792 354.001648,59.467571 354.000000,55.156876 
z"/>
<path fill="#2D2D2E" opacity="1.000000" stroke="none" 
	d="
M487.000000,38.849052 
	C487.000061,35.370506 486.851868,32.360401 487.075226,29.378128 
	C487.161194,28.230230 488.092651,27.145662 488.638916,26.032242 
	C489.092529,27.072031 489.893646,28.097427 489.937408,29.154184 
	C490.095795,32.979683 490.123474,36.822178 489.923645,40.643784 
	C489.864471,41.775723 488.893707,42.859993 488.340637,43.966095 
	C487.893829,42.920090 487.393707,41.892387 487.025696,40.819378 
	C486.872314,40.372128 487.000092,39.828430 487.000000,38.849052 
z"/>
<path fill="#2D2D2E" opacity="1.000000" stroke="none" 
	d="
M409.000000,12.055961 
	C409.442383,9.733793 409.884796,7.884209 410.327209,6.034621 
	C410.884827,7.932954 411.639496,9.800550 411.941864,11.738698 
	C412.216675,13.500139 412.179779,15.363791 411.929382,17.132700 
	C411.788086,18.130981 410.938385,19.028988 410.407776,19.972158 
	C409.938599,18.967228 409.229950,18.001249 409.058685,16.947891 
	C408.824829,15.509619 409.000122,14.004819 409.000000,12.055961 
z"/>
<path fill="#2D2D2E" opacity="1.000000" stroke="none" 
	d="
M356.000000,15.831987 
	C356.001526,12.899658 355.897491,10.431533 356.072479,7.983350 
	C356.121399,7.298977 356.993286,6.673420 357.487610,6.020868 
	C357.990204,6.665054 358.886597,7.285795 358.926605,7.957538 
	C359.092102,10.736437 359.124268,13.539001 358.942535,16.315664 
	C358.861694,17.551144 358.157806,18.745842 357.736694,19.959049 
	C357.157806,18.740610 356.578888,17.522173 356.000000,15.831987 
z"/>
<path fill="#2D2D2E" opacity="1.000000" stroke="none" 
	d="
M443.000000,60.152962 
	C442.998505,62.753628 443.115631,64.894630 442.927917,67.008553 
	C442.866394,67.701286 442.013275,68.323715 441.522156,68.978294 
	C441.016357,68.338684 440.123138,67.727226 440.074249,67.054413 
	C439.896545,64.608978 439.866760,62.132549 440.056274,59.689144 
	C440.152405,58.449680 440.836395,57.255817 441.254578,56.041344 
	C441.836365,57.255150 442.418182,58.468956 443.000000,60.152962 
z"/>
<path fill="#FFFCFA" opacity="1.000000" stroke="none" 
	d="
M26.741049,17.371225 
	C26.795586,24.828955 26.717266,31.818909 26.836538,38.805492 
	C26.929264,44.237152 29.781124,47.314270 34.469006,47.405952 
	C39.441681,47.503208 42.389530,44.444290 42.486481,38.684856 
	C42.612022,31.226801 42.517109,23.765034 42.517109,16.078890 
	C45.774490,16.078890 48.562866,16.078890 51.588478,16.078890 
	C51.588478,25.536694 52.484280,35.189018 51.321445,44.586617 
	C50.283001,52.978931 42.277309,56.937328 31.959888,56.063160 
	C23.602102,55.355026 17.636112,49.796051 17.172266,41.292225 
	C16.721458,33.027473 17.074398,24.718882 17.074398,15.466304 
	C20.523605,15.981124 23.608456,16.441561 26.741049,17.371225 
z"/>
<path fill="#FFFBF9" opacity="1.000000" stroke="none" 
	d="
M169.848053,53.350803 
	C163.119354,47.080551 162.244736,41.098610 166.786804,33.529354 
	C168.927231,29.962370 171.202988,26.476580 173.418488,22.954662 
	C178.231949,15.302883 178.232224,15.303056 188.492371,16.175674 
	C186.130234,20.051758 183.941528,23.643259 181.610001,27.469126 
	C183.070724,27.990849 184.264511,28.410101 185.453323,28.843019 
	C192.304565,31.337971 195.860565,36.998997 194.955826,43.964321 
	C194.141327,50.234818 188.767487,55.740860 182.114502,55.880211 
	C178.142212,55.963413 174.135590,54.406647 169.848053,53.350803 
M173.694168,40.918953 
	C174.157303,45.806065 176.520493,48.611927 180.104538,47.491913 
	C182.202194,46.836391 184.906876,44.435078 185.138641,42.548820 
	C185.364044,40.714230 183.225952,37.658062 181.335159,36.702541 
	C178.117249,35.076347 175.301636,36.753807 173.694168,40.918953 
z"/>
<path fill="#FFFAF7" opacity="1.000000" stroke="none" 
	d="
M266.981995,23.237907 
	C267.238464,27.605572 268.135651,31.804029 267.255341,35.589085 
	C266.237061,39.967140 262.567413,43.065804 257.990021,43.717213 
	C253.937622,44.293911 249.738281,43.838066 244.993286,43.838066 
	C244.993286,47.804260 244.993286,51.190609 244.993286,54.861649 
	C241.491592,54.861649 238.600494,54.861649 235.445618,54.861649 
	C235.445618,41.909531 235.445618,29.142944 235.445618,16.210680 
	C243.297623,16.210680 251.241516,15.632660 259.019165,16.516874 
	C261.830139,16.836441 264.242615,20.660864 266.981995,23.237907 
M258.902100,31.999470 
	C259.371796,24.644463 256.184937,22.923012 245.062042,24.700552 
	C245.062042,28.224401 245.062042,31.788349 245.062042,36.087051 
	C249.851868,35.025017 254.989380,37.822723 258.902100,31.999470 
z"/>
<path fill="#FFFCFB" opacity="1.000000" stroke="none" 
	d="
M118.608734,38.460785 
	C118.513947,36.764278 118.419289,35.506165 118.232216,33.019825 
	C114.238441,38.440105 110.930969,42.928947 107.193466,48.001423 
	C103.607719,43.254677 100.191322,38.732124 95.926743,33.086754 
	C95.926743,41.114460 95.926743,47.920567 95.926743,54.926308 
	C92.331413,54.926308 89.414810,54.926308 86.247467,54.926308 
	C86.247467,41.857376 86.247467,28.963179 86.247467,16.095390 
	C91.947426,14.613165 96.238869,15.516641 99.134026,21.183718 
	C101.144333,25.118793 104.130348,28.555408 107.112091,32.834137 
	C109.928864,28.795687 112.807770,25.398159 114.854759,21.557259 
	C117.715958,16.188601 121.695030,14.277863 127.813446,16.196138 
	C127.813446,28.735800 127.813446,41.622669 127.813446,54.832031 
	C124.942696,54.832031 122.062798,54.832031 118.608864,54.832031 
	C118.608864,49.436691 118.608864,44.167931 118.608734,38.460785 
z"/>
<path fill="#FFFFFF" opacity="1.000000" stroke="none" 
	d="
M458.974091,37.884277 
	C454.995941,42.716698 452.363525,43.166245 451.346405,39.423164 
	C450.927429,37.881287 451.832428,34.917408 453.066772,34.197468 
	C456.160400,32.393074 457.866699,34.815838 458.974091,37.884277 
z"/>
<path fill="#FFFFFF" opacity="1.000000" stroke="none" 
	d="
M333.709900,53.919632 
	C334.368286,55.482162 335.203552,58.023327 334.802155,58.236553 
	C332.680450,59.363682 330.247345,59.904739 327.359009,60.829319 
	C327.359009,57.762745 327.359009,55.599064 327.359009,52.776501 
	C329.393677,53.134312 331.354889,53.479210 333.709900,53.919632 
z"/>
<path fill="#FFFFFF" opacity="1.000000" stroke="none" 
	d="
M380.719604,33.301777 
	C381.959320,35.524017 383.212555,37.446583 383.593567,39.528748 
	C383.694794,40.081917 380.945435,41.963173 379.814789,41.730259 
	C378.415253,41.441940 376.624268,39.768219 376.268829,38.370895 
	C375.493805,35.323895 377.559357,33.706879 380.719604,33.301777 
z"/>
<path fill="#FFFFFF" opacity="1.000000" stroke="none" 
	d="
M349.266052,60.671074 
	C348.472595,62.657837 347.753326,64.707558 346.310730,65.815460 
	C345.665710,66.310837 342.445831,65.060707 342.354095,64.349762 
	C342.132355,62.632385 342.539276,60.297836 343.643616,59.061291 
	C345.691650,56.768024 347.603516,58.314686 349.266052,60.671074 
z"/>
<path fill="#FFFFFF" opacity="1.000000" stroke="none" 
	d="
M350.235596,33.353477 
	C352.144958,34.557484 353.764038,35.986816 356.160095,38.102116 
	C353.574921,39.703571 351.841125,41.388939 349.880646,41.716122 
	C348.993561,41.864170 346.680847,39.243004 346.770081,38.004574 
	C346.881256,36.461075 348.804504,35.048126 350.235596,33.353477 
z"/>
<path fill="#FFFFFF" opacity="1.000000" stroke="none" 
	d="
M403.105896,10.880059 
	C401.935150,10.870910 400.947479,10.664298 399.959808,10.457686 
	C400.030762,10.014066 400.101715,9.570446 400.172668,9.126826 
	C401.162628,9.324506 402.152557,9.522186 403.381470,9.988977 
	C403.509949,10.399592 403.399475,10.541095 403.105896,10.880059 
z"/>
<path fill="#EB421C" opacity="1.000000" stroke="none" 
	d="
M173.787354,40.570499 
	C175.301636,36.753807 178.117249,35.076347 181.335159,36.702541 
	C183.225952,37.658062 185.364044,40.714230 185.138641,42.548820 
	C184.906876,44.435078 182.202194,46.836391 180.104538,47.491913 
	C176.520493,48.611927 174.157303,45.806065 173.787354,40.570499 
z"/>
<path fill="#EB431D" opacity="1.000000" stroke="none" 
	d="
M258.739624,32.372200 
	C254.989380,37.822723 249.851868,35.025017 245.062042,36.087051 
	C245.062042,31.788349 245.062042,28.224401 245.062042,24.700552 
	C256.184937,22.923012 259.371796,24.644463 258.739624,32.372200 
z"/>
</svg>