<?xml version="1.0" standalone="no"?>
<!DOCTYPE svg PUBLIC "-//W3C//DTD SVG 20010904//EN"
 "http://www.w3.org/TR/2001/REC-SVG-20010904/DTD/svg10.dtd">
<svg version="1.0" xmlns="http://www.w3.org/2000/svg"
 width="494.000000pt" height="73.000000pt" viewBox="0 0 494.000000 73.000000"
 preserveAspectRatio="xMidYMid meet">

<g transform="translate(0.000000,73.000000) scale(0.100000,-0.100000)"
fill="#000000" stroke="none">
<path d="M3240 651 c0 -82 13 -101 70 -101 53 0 70 26 70 107 0 35 -4 63 -10
63 -6 0 -10 -26 -10 -58 0 -80 -34 -117 -79 -86 -18 13 -21 25 -21 80 0 36 -4
64 -10 64 -6 0 -10 -30 -10 -69z"/>
<path d="M3555 710 c-3 -5 1 -10 9 -10 9 0 16 5 16 10 0 6 -4 10 -9 10 -6 0
-13 -4 -16 -10z"/>
<path d="M4080 710 c0 -5 7 -10 16 -10 8 0 12 5 9 10 -3 6 -10 10 -16 10 -5 0
-9 -4 -9 -10z"/>
<path d="M10 385 l0 -325 325 0 325 0 0 325 0 325 -325 0 -325 0 0 -325z m250
64 c6 -155 16 -179 75 -179 64 0 69 13 75 172 l5 143 50 0 50 0 0 -145 c0
-128 -2 -149 -21 -180 -53 -90 -184 -114 -275 -49 -49 35 -59 73 -59 234 l0
146 48 -3 47 -3 5 -136z"/>
<path d="M730 385 l0 -325 330 0 330 0 0 325 0 325 -330 0 -330 0 0 -325z
m269 118 c31 -45 59 -82 62 -83 3 0 32 38 63 86 l57 85 47 -3 47 -3 0 -200 0
-200 -50 0 -50 0 -5 107 -5 107 -49 -70 c-27 -38 -52 -69 -55 -69 -3 0 -28 32
-56 71 l-50 70 -5 -108 -5 -108 -47 -3 -48 -3 0 206 0 206 47 -3 c46 -3 47 -4
102 -85z"/>
<path d="M1460 385 l0 -325 325 0 325 0 0 325 0 325 -325 0 -325 0 0 -325z
m413 199 c3 -4 -9 -31 -28 -60 -38 -60 -40 -64 -24 -64 27 0 83 -36 100 -64
24 -39 25 -109 2 -148 -58 -98 -224 -95 -278 5 -31 58 -18 110 60 231 l67 106
47 0 c26 0 50 -3 54 -6z"/>
<path d="M1742 358 c-7 -7 -12 -24 -12 -38 0 -34 17 -50 55 -50 38 0 55 16 55
50 0 34 -17 50 -55 50 -17 0 -36 -5 -43 -12z"/>
<path d="M2180 385 l0 -325 330 0 330 0 0 325 0 325 -330 0 -330 0 0 -325z
m410 189 c79 -32 113 -137 68 -204 -38 -56 -69 -72 -147 -78 l-70 -5 -3 -51
-3 -51 -45 0 -45 0 -3 203 -2 202 105 0 c73 0 117 -5 145 -16z"/>
<path d="M2440 440 l0 -50 60 0 c55 0 62 2 72 25 8 19 8 31 0 50 -10 23 -17
25 -72 25 l-60 0 0 -50z"/>
<path d="M4150 690 c0 -12 -7 -20 -17 -20 -16 0 -16 -1 0 -12 10 -8 17 -31 19
-58 3 -41 6 -45 31 -48 15 -2 27 1 27 7 0 6 -9 11 -20 11 -17 0 -20 7 -20 44
0 38 3 45 23 49 l22 4 -22 2 c-16 1 -23 7 -23 21 0 11 -4 20 -10 20 -5 0 -10
-9 -10 -20z"/>
<path d="M3455 670 c-11 -4 -26 -5 -32 -3 -10 4 -13 -11 -13 -56 0 -34 4 -61
10 -61 6 0 10 18 10 39 0 33 19 71 35 71 25 0 35 -17 35 -61 0 -28 5 -49 10
-49 7 0 10 22 8 56 -3 61 -21 79 -63 64z"/>
<path d="M3770 673 c-39 -14 -54 -78 -24 -107 19 -20 77 -21 93 -3 17 21 1 28
-24 11 -18 -12 -28 -13 -44 -4 -35 18 -24 30 29 30 46 0 50 2 50 24 0 35 -44
62 -80 49z m48 -25 c21 -21 13 -28 -28 -28 -22 0 -40 4 -40 8 0 14 23 32 40
32 9 0 21 -5 28 -12z"/>
<path d="M3982 669 c-32 -12 -29 -47 6 -60 15 -5 34 -12 42 -15 12 -5 12 -8
-4 -20 -17 -12 -23 -12 -42 1 -25 16 -40 9 -23 -12 15 -17 73 -17 88 1 17 21
3 44 -35 56 -19 6 -34 16 -34 21 0 16 29 22 45 9 16 -14 31 -8 21 8 -9 15 -39
20 -64 11z"/>
<path d="M3560 610 c0 -33 4 -60 10 -60 6 0 10 27 10 60 0 33 -4 60 -10 60 -6
0 -10 -27 -10 -60z"/>
<path d="M3604 653 c26 -71 43 -103 54 -103 7 0 23 25 37 56 29 65 28 64 15
64 -6 0 -20 -21 -32 -47 l-20 -48 -20 48 c-11 26 -25 47 -30 47 -6 0 -7 -8 -4
-17z"/>
<path d="M3880 608 c0 -32 4 -58 10 -58 6 0 10 20 10 44 0 34 5 47 23 59 22
15 22 15 -10 15 l-33 -1 0 -59z"/>
<path d="M4080 610 c0 -33 4 -60 10 -60 6 0 10 27 10 60 0 33 -4 60 -10 60 -6
0 -10 -27 -10 -60z"/>
<path d="M4230 665 c0 -2 11 -30 25 -61 18 -41 22 -61 15 -74 -13 -24 -13 -33
1 -28 8 3 79 150 79 165 0 2 -5 3 -10 3 -6 0 -17 -18 -26 -40 -9 -22 -19 -40
-24 -40 -4 0 -15 18 -25 40 -10 22 -22 40 -27 40 -4 0 -8 -2 -8 -5z"/>
<path d="M3240 388 c0 -103 17 -113 22 -13 l3 60 23 -37 c13 -21 27 -38 31
-38 4 0 20 17 34 37 l27 38 0 -62 c0 -34 5 -65 10 -68 6 -4 10 27 10 84 0 50
-3 91 -7 91 -5 0 -21 -21 -38 -45 -16 -25 -32 -45 -35 -45 -3 0 -18 21 -35 45
-16 25 -33 45 -37 45 -5 0 -8 -41 -8 -92z"/>
<path d="M3590 388 c0 -57 4 -88 9 -82 5 5 11 27 13 48 3 42 24 63 52 53 12
-5 16 -19 16 -57 0 -27 5 -50 10 -50 6 0 10 24 10 54 0 63 -15 81 -60 72 -28
-5 -30 -3 -30 24 0 17 -4 30 -10 30 -6 0 -10 -37 -10 -92z"/>
<path d="M4580 451 c0 -28 -2 -29 -34 -24 -63 10 -101 -62 -56 -107 15 -15 31
-20 65 -18 l45 3 0 88 c0 51 -4 87 -10 87 -5 0 -10 -13 -10 -29z m-12 -53 c7
-7 12 -21 12 -33 0 -47 -62 -63 -81 -21 -22 47 33 90 69 54z"/>
<path d="M4690 471 c0 -24 64 -171 75 -171 11 0 75 147 75 171 0 28 -20 0 -45
-62 -15 -39 -31 -67 -35 -62 -4 4 -17 36 -30 71 -12 34 -26 62 -31 62 -5 0 -9
-4 -9 -9z"/>
<path d="M4867 473 c-11 -10 -8 -161 3 -168 6 -4 10 27 10 84 0 91 -1 97 -13
84z"/>
<path d="M3450 410 c-11 -11 -20 -31 -20 -45 0 -55 77 -87 113 -47 37 41 6
112 -48 112 -14 0 -34 -9 -45 -20z m78 -12 c30 -30 3 -83 -39 -76 -32 5 -45
31 -31 62 13 28 49 35 70 14z"/>
<path d="M3747 412 c-22 -24 -22 -76 -1 -97 12 -12 29 -15 63 -12 l46 4 3 53
c2 29 -2 58 -7 63 -8 8 -11 7 -11 -1 0 -9 -5 -10 -19 -2 -29 15 -56 12 -74 -8z
m77 -21 c23 -25 13 -59 -19 -67 -44 -11 -74 29 -49 64 19 27 45 28 68 3z"/>
<path d="M3890 363 c0 -35 4 -63 10 -63 6 0 10 20 10 44 0 46 19 72 45 62 10
-4 15 -19 15 -50 0 -25 5 -48 10 -51 6 -4 10 9 10 32 0 47 19 77 46 71 15 -2
20 -13 22 -56 2 -28 8 -52 13 -52 6 0 9 24 7 56 -4 68 -21 85 -68 67 -16 -6
-32 -7 -35 -3 -3 5 -23 8 -45 7 l-40 -1 0 -63z"/>
<path d="M4110 363 c0 -35 4 -63 10 -63 6 0 10 20 10 44 0 88 61 88 71 0 6
-54 17 -43 21 21 3 35 6 40 28 40 22 0 25 -5 28 -45 5 -67 22 -75 22 -9 0 30
-5 60 -12 67 -15 15 -54 16 -63 2 -4 -6 -13 -7 -23 -1 -10 5 -34 9 -55 8 l-37
-1 0 -63z"/>
<path d="M4352 414 c-47 -33 -18 -114 41 -114 25 0 63 27 52 38 -3 3 -11 0
-17 -6 -15 -15 -51 -15 -66 0 -22 22 -13 28 38 28 42 0 50 3 50 18 0 24 -31
52 -56 52 -11 0 -30 -7 -42 -16z m76 -26 c3 -15 -4 -18 -37 -18 -43 0 -50 7
-29 28 18 18 62 11 66 -10z"/>
<path d="M3540 151 c0 -54 4 -91 10 -91 6 0 10 35 10 84 0 47 -4 88 -10 91 -6
4 -10 -27 -10 -84z"/>
<path d="M4108 234 c-12 -11 -10 -174 2 -174 6 0 10 14 10 31 0 43 17 69 44
69 27 0 36 -17 36 -66 0 -19 5 -34 10 -34 15 0 12 83 -4 105 -10 14 -21 17
-49 12 -35 -5 -36 -5 -39 30 -2 19 -6 31 -10 27z"/>
<path d="M3240 145 c0 -50 4 -85 10 -85 6 0 10 14 10 30 0 28 2 30 39 30 45 0
71 20 71 54 0 36 -30 56 -83 56 l-47 0 0 -85z m103 44 c18 -29 1 -49 -43 -49
-39 0 -40 1 -40 36 0 34 1 35 36 32 21 -2 42 -10 47 -19z"/>
<path d="M4396 221 c-4 -5 -2 -12 3 -15 5 -4 12 -2 15 3 4 5 2 12 -3 15 -5 4
-12 2 -15 -3z"/>
<path d="M3740 201 c0 -11 -6 -22 -12 -25 -10 -5 -10 -7 0 -12 7 -3 12 -24 12
-49 0 -45 19 -68 48 -58 18 7 15 21 -5 19 -14 -1 -19 8 -21 42 -3 37 -1 42 17
42 12 0 21 5 21 10 0 6 -9 10 -20 10 -13 0 -20 7 -20 20 0 11 -4 20 -10 20 -5
0 -10 -9 -10 -19z"/>
<path d="M3396 158 c-23 -33 -19 -64 11 -88 46 -36 103 -8 103 50 0 56 -83 83
-114 38z m92 -42 c3 -20 -3 -29 -22 -38 -22 -9 -29 -8 -46 7 -26 24 -25 50 2
69 19 13 25 14 43 2 11 -7 21 -25 23 -40z"/>
<path d="M3586 158 c3 -13 15 -40 25 -60 15 -29 17 -43 9 -63 -12 -32 -12 -35
-1 -35 7 0 81 158 81 174 0 3 -4 6 -9 6 -5 0 -17 -21 -28 -47 l-20 -48 -24 48
c-24 48 -46 65 -33 25z"/>
<path d="M3832 167 c-6 -6 -13 -24 -17 -39 -5 -21 -1 -33 19 -52 28 -29 53
-33 82 -12 26 20 13 30 -20 15 -24 -11 -30 -10 -49 9 l-21 22 57 0 c62 0 69 8
41 48 -17 25 -74 31 -92 9z m83 -27 c4 -6 -10 -10 -34 -10 -43 0 -53 12 -24
29 18 9 46 0 58 -19z"/>
<path d="M3976 164 c-24 -24 -20 -80 6 -98 30 -21 51 -20 79 4 27 22 13 26
-25 9 -35 -16 -58 4 -54 45 2 26 8 32 31 34 16 2 35 -2 43 -9 21 -17 28 -5 9
15 -21 20 -69 21 -89 0z"/>
<path d="M4250 118 c0 -66 17 -79 22 -17 3 45 24 67 52 56 11 -5 16 -19 16
-52 0 -25 5 -45 10 -45 15 0 12 96 -3 108 -7 6 -32 10 -55 9 l-42 -1 0 -58z"/>
<path d="M4400 120 c0 -33 4 -60 10 -60 6 0 10 27 10 60 0 33 -4 60 -10 60 -6
0 -10 -27 -10 -60z"/>
<path d="M4456 158 c-30 -42 -14 -88 35 -103 23 -8 73 21 63 36 -4 6 -13 4
-24 -6 -37 -34 -92 21 -60 60 15 18 51 20 68 3 17 -17 28 -2 12 17 -19 23 -76
19 -94 -7z"/>
</g>
</svg>
