<?xml version="1.0" encoding="UTF-8"?>
<svg version="1.1" viewBox="0 0 1600 1128" width="1280" height="1280" xmlns="http://www.w3.org/2000/svg">
<path transform="translate(0)" d="m0 0h1600v1128h-1600v-1128z" fill="#FCFDFD"/>
<path transform="translate(1161 205)" d="m0 0c2.38-0.00136 4.76-0.00314 7.14-0.00531 6.4-0.00452 12.8-0.00281 19.2 3.79e-4 4.01 0.00152 8.01 0.00144 12 5.1e-4 0.669-1.53e-4 1.34-3.06e-4 2.03-4.64e-4 1.36-3.2e-4 2.72-6.44e-4 4.08-9.73e-4 12.7-0.00284 25.4 4.07e-4 38.1 0.0058 10.9 0.00447 21.7 0.00368 32.6-9.19e-4 12.7-0.00536 25.3-0.00745 38-0.00439 1.35 3.19e-4 2.7 6.33e-4 4.05 9.43e-4 0.665 1.54e-4 1.33 3.09e-4 2.01 4.68e-4 4.66 8.6e-4 9.32-6.36e-4 14-0.00295 6.28-0.0029 12.6-8.72e-4 18.8 0.00489 2.3 0.00132 4.6 9.5e-4 6.89-0.00126 3.15-0.00275 6.29 7.14e-4 9.44 0.00568 0.9-0.00223 1.8-0.00446 2.73-0.00676 17.6 0.0536 17.6 0.0536 19.7 2.13 0.0967 1.47 0.124 2.94 0.123 4.42 0.00199 0.96 0.00398 1.92 0.00603 2.91-0.00291 1.07-0.00583 2.13-0.00883 3.23 0.00128 1.69 0.00128 1.69 0.00259 3.41 0.00166 3.8-0.00387 7.59-0.00932 11.4-8.37e-4 2.71-1.68e-4 5.42 4.43e-4 8.13 5.25e-4 5.85-0.00262 11.7-0.00824 17.5-0.00811 8.46-0.0107 16.9-0.012 25.4-0.00219 13.7-0.00885 27.4-0.0183 41.2-0.00917 13.3-0.0163 26.7-0.0205 40-3.94e-4 1.23-3.94e-4 1.23-7.96e-4 2.49-0.0013 4.12-0.00257 8.24-0.00381 12.4-0.0104 34.2-0.028 68.4-0.0503 103-31 0.0229-62 0.0406-93 0.0511-3.67 0.00125-7.35 0.00254-11 0.00387-1.1 3.93e-4 -1.1 3.93e-4 -2.22 7.95e-4 -11.8 0.00433-23.6 0.0122-35.3 0.0214-12.1 0.00941-24.2 0.0149-36.4 0.0169-6.79 0.00124-13.6 0.00417-20.4 0.0116-6.42 0.00688-12.8 0.00886-19.3 0.00738-2.33 2.71e-4 -4.67 0.0022-7 0.0061-12.7 0.0201-25.3-0.142-38-0.564-1.23-0.0388-2.45-0.0776-3.72-0.118-1.13-0.0414-2.25-0.0828-3.41-0.125-1-0.0359-2.01-0.0719-3.04-0.109-2.27-0.204-2.27-0.204-3.27-1.2-0.0985-1.45-0.127-2.91-0.129-4.37-0.00322-0.948-0.00645-1.9-0.00977-2.87 0.00155-1.05 0.0031-2.11 0.00469-3.19-0.00227-1.11-0.00453-2.22-0.00687-3.36-0.00637-3.75-0.00551-7.5-0.00469-11.3-0.00299-2.68-0.00636-5.35-0.0102-8.03-0.00832-6.53-0.0111-13.1-0.0116-19.6-4.74e-4 -5.31-0.00253-10.6-0.0057-15.9-0.00881-15-0.0134-30.1-0.0127-45.1 4e-5 -0.811 7.99e-5 -1.62 1.21e-4 -2.46 4.09e-5 -0.812 8.18e-5 -1.62 1.24e-4 -2.46 4.07e-4 -13.2-0.00917-26.3-0.0233-39.5-0.0143-13.5-0.0213-27-0.0204-40.5 3.33e-4 -7.59-0.00244-15.2-0.0132-22.8-0.00908-6.46-0.0113-12.9-0.00449-19.4 0.00328-3.3 0.0022-6.6-0.00535-9.9-0.00765-3.57-0.00312-7.14 0.00463-10.7-0.00514-1.05-0.0103-2.1-0.0156-3.19 0.0046-0.951 0.0092-1.9 0.0139-2.88-2.17e-4 -0.825-4.35e-4 -1.65-6.59e-4 -2.5 0.25-1.99 0.25-1.99 2.25-3.99 2.73-0.32 5.37-0.512 8.11-0.617 1.26-0.0564 1.26-0.0564 2.55-0.114 10.9-0.438 21.7-0.409 32.6-0.398z" fill="#D94A2B"/>
<path transform="translate(556 205)" d="m0 0c2.24-0.00136 4.47-0.00314 6.71-0.00531 6-0.00451 12-0.00281 18 3.79e-4 6.32 0.00256 12.6 1.77e-4 19-0.00139 11.3-0.00193 22.6 0.00115 33.9 0.00626 10.2 0.00447 20.4 0.00369 30.6-9.19e-4 11.9-0.00538 23.8-0.00733 35.7-0.00439 6.28 0.00155 12.6 0.0018 18.8-0.00154 5.9-0.00292 11.8-8.32e-4 17.7 0.00489 2.15 0.00131 4.3 9.7e-4 6.45-0.00126 10.6-0.01 21.3 0.103 31.9 0.578 0.904 0.0387 1.81 0.0775 2.74 0.117 6.25 0.313 6.25 0.313 7.37 1.44 0.0967 1.46 0.124 2.93 0.123 4.4 0.00199 0.956 0.00398 1.91 0.00603 2.9-0.00291 1.06-0.00583 2.13-0.00883 3.22 0.00128 1.68 0.00128 1.68 0.00259 3.39 0.00166 3.78-0.00387 7.57-0.00932 11.4-8.37e-4 2.7-1.68e-4 5.4 4.43e-4 8.1 5.25e-4 5.83-0.00262 11.7-0.00824 17.5-0.00811 8.43-0.0107 16.9-0.012 25.3-0.00219 13.7-0.00885 27.3-0.0183 41-0.00917 13.3-0.0163 26.6-0.0205 39.8-3.94e-4 1.23-3.94e-4 1.23-7.96e-4 2.48-0.0013 4.1-0.00257 8.21-0.00381 12.3-0.0104 34.1-0.028 68.1-0.0503 102-13.7 0.81-27.4 1.15-41.2 1.13-2.03 0.00136-4.07 0.00314-6.1 0.00531-5.47 0.00451-10.9 0.00281-16.4-3.79e-4 -5.79-0.00256-11.6-1.75e-4 -17.4 0.00139-9.74 0.00181-19.5-5.6e-4 -29.2-0.00534-11.1-0.00541-22.3-0.0037-33.4 0.00183-9.66 0.00459-19.3 0.00515-29 0.00256-5.73-0.00153-11.5-0.00184-17.2 0.00154-22.2 0.0113-44.5-0.0681-66.7-0.582-0.893-0.0194-1.79-0.0388-2.71-0.0588-2.48-0.0554-4.95-0.118-7.43-0.184-0.733-0.0163-1.47-0.0326-2.22-0.0494-4.98-0.147-4.98-0.147-6.09-1.26-0.0985-1.45-0.127-2.91-0.129-4.37-0.00322-0.948-0.00645-1.9-0.00977-2.87 0.00155-1.05 0.0031-2.11 0.00469-3.19-0.00227-1.11-0.00453-2.22-0.00687-3.36-0.00637-3.75-0.00551-7.5-0.00469-11.3-0.00299-2.68-0.00636-5.35-0.0102-8.03-0.00832-6.53-0.0111-13.1-0.0116-19.6-4.74e-4 -5.31-0.00253-10.6-0.0057-15.9-0.00881-15-0.0134-30.1-0.0127-45.1 4e-5 -0.811 7.99e-5 -1.62 1.21e-4 -2.46 4.09e-5 -0.812 8.18e-5 -1.62 1.24e-4 -2.46 4.07e-4 -13.2-0.00917-26.3-0.0233-39.5-0.0143-13.5-0.0213-27-0.0204-40.5 3.33e-4 -7.59-0.00244-15.2-0.0132-22.8-0.00908-6.46-0.0113-12.9-0.00449-19.4 0.00328-3.3 0.0022-6.6-0.00535-9.9-0.00765-3.57-0.00312-7.14 0.00463-10.7-0.00514-1.05-0.0103-2.1-0.0156-3.19 0.0046-0.951 0.0092-1.9 0.0139-2.88-2.17e-4 -0.825-4.35e-4 -1.65-6.59e-4 -2.5 0.25-1.99 0.25-1.99 2.25-3.99 3.08-0.318 6.08-0.512 9.18-0.617 0.938-0.0376 1.88-0.0752 2.84-0.114 10.7-0.393 21.4-0.41 32.1-0.398z" fill="#D94A2B"/>
<path transform="translate(252 205)" d="m0 0c2.5 2.83e-4 4.99 1.23e-4 7.49-4.43e-4 5.33-2.26e-4 10.7 0.00257 16 0.00824 7.71 0.00819 15.4 0.0107 23.1 0.012 12.5 0.00218 25 0.00881 37.5 0.0183 12.1 0.00921 24.3 0.0163 36.4 0.0205 1.13 3.94e-4 1.13 3.94e-4 2.27 7.96e-4 3.77 0.00131 7.53 0.00257 11.3 0.00381 31.2 0.0103 62.3 0.028 93.5 0.0503 1.2 2.39 1.12 3.85 1.12 6.53 0.00199 0.958 0.00398 1.92 0.00603 2.9-0.00291 1.06-0.00583 2.12-0.00883 3.21 0.00128 1.68 0.00128 1.68 0.00259 3.4 0.00166 3.78-0.00387 7.56-0.00932 11.3-8.38e-4 2.7-1.68e-4 5.4 4.43e-4 8.1 5.25e-4 5.83-0.00262 11.7-0.00824 17.5-0.00812 8.42-0.0107 16.8-0.012 25.3-0.00219 13.7-0.00885 27.3-0.0183 41-0.00917 13.3-0.0163 26.6-0.0205 39.8-3.94e-4 1.23-3.94e-4 1.23-7.96e-4 2.48-0.00131 4.1-0.00257 8.21-0.00381 12.3-0.0104 34.1-0.028 68.1-0.0503 102-28 0.771-55.9 1.15-83.9 1.13-5.02-0.00261-10-1.62e-4 -15.1 0.00139-8.41 0.0018-16.8-5.17e-4 -25.2-0.00534-9.59-0.00544-19.2-0.00367-28.8 0.00183-8.38 0.0046-16.8 0.00515-25.1 0.00256-4.94-0.00152-9.88-0.00187-14.8 0.00154-20.7 0.0123-41.5-0.13-62.2-0.582-0.951-0.0194-1.9-0.0388-2.88-0.0588-2.66-0.0557-5.32-0.118-7.98-0.184-0.796-0.0163-1.59-0.0326-2.41-0.0494-5.44-0.147-5.44-0.147-6.55-1.26-0.0985-1.45-0.127-2.91-0.129-4.37-0.00322-0.948-0.00645-1.9-0.00977-2.87 0.00155-1.05 0.0031-2.11 0.00469-3.19-0.00227-1.11-0.00453-2.22-0.00687-3.36-0.00637-3.75-0.00551-7.5-0.00469-11.3-0.00299-2.68-0.00636-5.35-0.0102-8.03-0.00832-6.53-0.0111-13.1-0.0116-19.6-4.74e-4 -5.31-0.00253-10.6-0.0057-15.9-0.00881-15-0.0134-30.1-0.0127-45.1 4e-5 -0.811 7.99e-5 -1.62 1.21e-4 -2.46 4.09e-5 -0.812 8.18e-5 -1.62 1.24e-4 -2.46 4.07e-4 -13.2-0.00917-26.3-0.0233-39.5-0.0143-13.5-0.0213-27-0.0204-40.5 3.33e-4 -7.59-0.00244-15.2-0.0132-22.8-0.00908-6.46-0.0113-12.9-0.00449-19.4 0.00328-3.3 0.0022-6.6-0.00535-9.9-0.00765-3.57-0.00312-7.14 0.00463-10.7-0.00514-1.05-0.0103-2.1-0.0156-3.19 0.0046-0.951 0.0092-1.9 0.0139-2.88-2.17e-4 -0.825-4.35e-4 -1.65-6.59e-4 -2.5 0.25-1.99 0.25-1.99 2.25-3.99 2.71-0.321 5.32-0.513 8.04-0.618 1.26-0.0565 1.26-0.0565 2.55-0.114 11.3-0.452 22.5-0.4 33.8-0.382z" fill="#D94A2B"/>
<path transform="translate(858 205)" d="m0 0c2.3-0.00136 4.6-0.00314 6.9-0.00531 6.19-0.00452 12.4-0.00281 18.6 3.79e-4 6.51 0.00255 13 1.78e-4 19.5-0.00139 11.6-0.00193 23.2 0.00116 34.9 0.00626 10.5 0.00447 21 0.00369 31.5-9.19e-4 12.3-0.00537 24.5-0.00733 36.8-0.00439 6.47 0.00155 12.9 0.00179 19.4-0.00154 6.08-0.00291 12.2-8.49e-4 18.2 0.00489 2.22 0.00131 4.44 9.61e-4 6.65-0.00126 9.99-0.00908 20 0.0219 29.9 0.578 0.713 0.0387 1.43 0.0775 2.16 0.117 4.82 0.31 4.82 0.31 5.95 1.44 0.0967 1.46 0.124 2.93 0.123 4.4 0.00199 0.956 0.00398 1.91 0.00603 2.9-0.00291 1.06-0.00583 2.13-0.00883 3.22 0.00128 1.68 0.00128 1.68 0.00259 3.39 0.00166 3.78-0.00387 7.57-0.00932 11.4-8.37e-4 2.7-1.68e-4 5.4 4.43e-4 8.1 5.25e-4 5.83-0.00262 11.7-0.00824 17.5-0.00811 8.43-0.0107 16.9-0.012 25.3-0.00219 13.7-0.00885 27.3-0.0183 41-0.00917 13.3-0.0163 26.6-0.0205 39.8-3.94e-4 1.23-3.94e-4 1.23-7.96e-4 2.48-0.0013 4.1-0.00257 8.21-0.00381 12.3-0.0104 34.1-0.028 68.1-0.0503 102-29.8 0.743-59.6 1.15-89.4 1.13-5.15-0.00262-10.3-1.62e-4 -15.4 0.00139-8.61 0.00179-17.2-5.12e-4 -25.8-0.00534-9.84-0.00546-19.7-0.00366-29.5 0.00183-8.59 0.00459-17.2 0.00516-25.8 0.00256-5.07-0.00153-10.1-0.00185-15.2 0.00154-19.3 0.0111-38.7-0.0577-58-0.582-0.76-0.0194-1.52-0.0388-2.3-0.0588-2.1-0.0554-4.21-0.118-6.31-0.184-1.18-0.0358-2.37-0.0716-3.58-0.109-2.63-0.203-2.63-0.203-3.63-1.2-0.0985-1.45-0.127-2.91-0.129-4.37-0.00322-0.948-0.00645-1.9-0.00977-2.87 0.00155-1.05 0.0031-2.11 0.00469-3.19-0.00227-1.11-0.00453-2.22-0.00687-3.36-0.00637-3.75-0.00551-7.5-0.00469-11.3-0.00299-2.68-0.00636-5.35-0.0102-8.03-0.00832-6.53-0.0111-13.1-0.0116-19.6-4.74e-4 -5.31-0.00253-10.6-0.0057-15.9-0.00881-15-0.0134-30.1-0.0127-45.1 4e-5 -0.811 7.99e-5 -1.62 1.21e-4 -2.46 4.09e-5 -0.812 8.18e-5 -1.62 1.24e-4 -2.46 4.07e-4 -13.2-0.00917-26.3-0.0233-39.5-0.0143-13.5-0.0213-27-0.0204-40.5 3.33e-4 -7.59-0.00244-15.2-0.0132-22.8-0.00908-6.46-0.0113-12.9-0.00449-19.4 0.00328-3.3 0.0022-6.6-0.00535-9.9-0.00765-3.57-0.00312-7.14 0.00463-10.7-0.00514-1.05-0.0103-2.1-0.0156-3.19 0.0046-0.951 0.0092-1.9 0.0139-2.88-2.17e-4 -0.825-4.35e-4 -1.65-6.59e-4 -2.5 0.25-1.99 0.25-1.99 2.25-3.99 2.75-0.319 5.4-0.512 8.15-0.617 0.844-0.0376 1.69-0.0752 2.56-0.114 10.6-0.428 21.2-0.409 31.8-0.398z" fill="#D84B2B"/>
<path transform="translate(231 205)" d="m0 0c1.33-0.00299 1.33-0.00299 2.69-0.00603 0.976 0.00291 1.95 0.00583 2.96 0.00883 1.04-8.54e-4 2.07-0.00171 3.14-0.00259 3.49-0.00165 6.97 0.00386 10.5 0.00932 2.49 2.82e-4 4.99 1.24e-4 7.48-4.43e-4 5.38-2.28e-4 10.8 0.00262 16.1 0.00824 7.77 0.00812 15.5 0.0107 23.3 0.012 12.6 0.00219 25.2 0.00885 37.8 0.0183 12.3 0.00918 24.5 0.0163 36.8 0.0205 0.755 2.63e-4 1.51 5.25e-4 2.29 7.96e-4 3.79 0.00131 7.57 0.00257 11.4 0.00381 31.4 0.0104 62.9 0.0281 94.3 0.0503 0.33 0.99 0.66 1.98 1 3-3.63 0.33-7.26 0.66-11 1-0.33 1.65-0.66 3.3-1 5h2v10h-3v2c-1.18 1.14-1.18 1.14-2.38 2.31-2.72 2.43-2.72 2.43-3.62 5.25-1.33 3.25-3.11 4.51-6 6.44-1.32 0.368-2.66 0.712-4 1-0.33 0.66-0.66 1.32-1 2h-2v-3c-0.743 0.495-1.49 0.99-2.25 1.5-2.75 1.5-2.75 1.5-6.75 1.5v3h-2v5h-2c-0.0619 0.557-0.124 1.11-0.188 1.69-1.39 3.97-4.06 6.45-7.82 8.3-3.89 1.52-6.8 2.02-11 2.02 0.00999 1.96 0.00999 1.96 0.0202 3.95 0.0611 12.4 0.106 24.7 0.135 37.1 0.0156 6.35 0.0367 12.7 0.0709 19.1 0.0328 6.14 0.0506 12.3 0.0583 18.4 0.0055 2.33 0.0162 4.66 0.0326 6.99 0.162 24.2-2 45.9-19.2 64.5-15.6 14.9-36.6 18.4-57.3 18.2-20.4-0.806-37.2-6.88-51.9-21.2-0.908-0.804-1.82-1.61-2.75-2.44-9.86-11.2-15.2-26.9-15.9-41.7-0.0375-0.771-0.0751-1.54-0.114-2.34-0.432-9.78-0.436-19.6-0.44-29.3-0.00322-2.03-0.00659-4.06-0.0101-6.1-0.00593-4.22-0.00785-8.43-0.00725-12.6 1.03e-4 -5.41-0.0137-10.8-0.0308-16.2-0.0111-4.18-0.0131-8.35-0.0126-12.5-0.00118-2-0.00561-3.99-0.0133-5.99-0.00974-2.77-0.00695-5.54-8.95e-4 -8.31-0.00562-0.825-0.0112-1.65-0.017-2.5 0.0316-5.66 0.0316-5.66 2.26-7.89 2.38-0.414 2.38-0.414 5.12-0.625 0.91-0.0748 1.82-0.15 2.76-0.227 0.699-0.049 1.4-0.098 2.12-0.148-2.64-0.33-5.28-0.66-8-1-0.625-3.44-1-6.49-1-10h-4v-4c-1.3 0.0206-2.6 0.0412-3.94 0.0625-1.35 0.0215-2.71 0.00898-4.06-0.0625-0.33-0.33-0.66-0.66-1-1-1.68-0.233-3.37-0.413-5.06-0.562-0.919-0.0838-1.84-0.168-2.79-0.254-1.07-0.0909-1.07-0.0909-2.15-0.184v-3c-1.11 0.0206-2.23 0.0412-3.38 0.0625-3.62-0.0625-3.62-0.0625-5.62-1.06v-3c-0.66-0.33-1.32-0.66-2-1v-4c-0.66-0.33-1.32-0.66-2-1-3-3.58-3-3.58-3-6-0.99-0.33-1.98-0.66-3-1-2-2-2-2-2.2-4.6 0.0232-0.998 0.0464-2 0.0703-3.02 0.018-1 0.0361-2.01 0.0547-3.04 0.0232-0.771 0.0464-1.54 0.0703-2.34h-3v-3c-0.66-0.66-1.32-1.32-2-2 2.79-0.929 4.44-1.12 7.32-1.12z" fill="#D94E2D"/>
<path transform="translate(569 261)" d="m0 0c0.738-0.0138 1.48-0.0275 2.24-0.0417 1.56-0.0233 3.13-0.0405 4.69-0.0523 2.38-0.0269 4.76-0.102 7.14-0.177 11-0.194 11-0.194 14.8 2.05 1.59 1.8 2.65 3.54 3.76 5.67 0.868 1.26 1.75 2.51 2.63 3.75 0.836 1.27 1.67 2.54 2.49 3.81 0.416 0.634 0.833 1.27 1.26 1.92 0.817 1.24 1.63 2.49 2.44 3.74 0.775 1.18 1.56 2.35 2.37 3.51 2.81 4.07 2.81 4.07 2.81 6.27h2c1.41 1.97 2.7 3.96 4 6 0.956 1.42 1.92 2.84 2.88 4.25 0.523 0.767 1.05 1.53 1.59 2.32 0.547 0.8 1.09 1.6 1.66 2.43 0.85 1.25 0.85 1.25 1.72 2.52 3.99 5.83 8.06 11.6 12.3 17.3 2.9 3.97 2.9 3.97 2.9 6.19 2.3 0.545 2.3 0.545 5 0 1.82-2.16 3.19-4.11 4.62-6.5 0.872-1.38 1.75-2.76 2.62-4.14 0.45-0.718 0.899-1.44 1.36-2.18 2.27-3.56 4.67-7.03 7.08-10.5 0.464-0.674 0.928-1.35 1.41-2.04 2.54-3.69 5.12-7.36 7.72-11 2.85-4.04 5.38-8.21 7.83-12.5 1.36-2.13 1.36-2.13 2.82-3.58 2.07-2.08 3.44-4.42 4.98-6.93 6.09-9.89 6.09-9.89 9.56-11.6 2.54-0.0987 5.06-0.14 7.6-0.133 0.749-9.57e-4 1.5-0.00191 2.27-0.0029 1.58-6.81e-4 3.17 0.00117 4.75 0.00534 2.43 0.00536 4.87 4.76e-5 7.3-0.00635 1.54 6.61e-4 3.07 0.00194 4.61 0.00391 0.732-0.00202 1.46-0.00405 2.22-0.00613 5.13 0.024 5.13 0.024 6.25 1.14 0.0969 2.13 0.122 4.26 0.12 6.38 0.00128 1.01 0.00128 1.01 0.00259 2.04 0.00166 2.28-0.00387 4.55-0.00932 6.83-2.82e-4 1.63-1.24e-4 3.25 4.43e-4 4.88 2.88e-4 4.43-0.00561 8.85-0.0126 13.3-0.00623 4.62-0.00684 9.24-0.00803 13.9-0.00311 8.76-0.0113 17.5-0.0213 26.3-0.0112 9.97-0.0167 19.9-0.0217 29.9-0.0105 20.5-0.0281 41-0.0503 61.5-5.23 0.0494-10.5 0.0857-15.7 0.11-1.78 0.0101-3.56 0.0237-5.34 0.041-2.56 0.0242-5.11 0.0356-7.67 0.0444-0.799 0.0103-1.6 0.0206-2.42 0.0313-1.96 3.99e-4 -3.91-0.104-5.87-0.227-2.61-2.61-2.24-4.41-2.25-7.96 0.0108-1.25 0.0108-1.25 0.0218-2.53-2.92e-4 -0.878-5.84e-4 -1.76-8.85e-4 -2.66 0.0014-2.91 0.017-5.82 0.0326-8.73 0.00373-2.01 0.00658-4.03 0.00858-6.04 0.00765-5.31 0.0273-10.6 0.0494-15.9 0.0204-5.42 0.0296-10.8 0.0397-16.2 0.0215-10.6 0.0556-21.3 0.0977-31.9-4.2 1.86-6.12 4.59-8.62 8.31-0.883 1.28-1.77 2.55-2.66 3.82-0.45 0.646-0.9 1.29-1.36 1.96-2.07 2.91-4.27 5.72-6.48 8.53-4.09 5.22-7.74 10.6-11.3 16.2-0.526 0.715-1.05 1.43-1.59 2.17h-2c-0.228 0.684-0.456 1.37-0.691 2.07-1.64 3.66-3.81 6.58-6.25 9.74-0.443 0.597-0.886 1.19-1.34 1.81-1.17 1.52-2.44 2.96-3.72 4.38-3 0-3 0-5.19-1.81-3.33-3.52-6.05-7.53-8.85-11.5-1.26-1.75-2.57-3.47-3.92-5.16-2.34-2.94-4.51-5.99-6.67-9.06-4.23-5.97-8.62-11.8-13.1-17.6-2.8-3.61-5.54-7.26-8.26-10.9-1-1.33-2-2.67-3-4-0.99 0.495-0.99 0.495-2 1v92c-37 0-37 0-39-1-1.09-21.2-1.16-42.4-1.13-63.6 0.00401-2.77 0.0065-5.55 0.00867-8.32 0.0209-23.2 0.116-46.5 0.495-69.7 0.0153-1.11 0.0306-2.23 0.0463-3.37 0.0442-3.06 0.102-6.11 0.165-9.17 0.0116-0.882 0.0231-1.76 0.035-2.67 0.2-7.98 2.44-8.48 9.8-8.6z" fill="#FCFDFD"/>
<path transform="translate(1380,206)" d="m0 0c1.81-0.0269 3.62-0.0463 5.44-0.0625 1.01-0.0116 2.02-0.0232 3.06-0.0352 2.5 0.0977 2.5 0.0977 3.5 1.1 0.0967 1.47 0.124 2.94 0.123 4.42 0.00199 0.96 0.00398 1.92 0.00603 2.91-0.00291 1.07-0.00583 2.13-0.00883 3.23 0.00128 1.69 0.00128 1.69 0.00259 3.41 0.00166 3.8-0.00387 7.59-0.00932 11.4-8.37e-4 2.71-1.68e-4 5.42 4.43e-4 8.13 5.25e-4 5.85-0.00262 11.7-0.00824 17.5-0.00811 8.46-0.0107 16.9-0.012 25.4-0.00219 13.7-0.00885 27.4-0.0183 41.2-0.00917 13.3-0.0163 26.7-0.0205 40-2.63e-4 0.821-5.25e-4 1.64-7.96e-4 2.49-0.0013 4.12-0.00257 8.24-0.00381 12.4-0.0104 34.2-0.0288 68.4-0.0503 103h-77v-1c6.93-0.33 13.9-0.66 21-1v-3h2v-2h-2c0.371-0.866 0.371-0.866 0.75-1.75 0.0825-0.742 0.165-1.48 0.25-2.25-0.639-0.598-1.28-1.2-1.94-1.81-2.06-2.19-2.06-2.19-2.38-5.69 0.237-2.66 0.504-4.97 1.31-7.5h3c0.934-3.01 1.04-3.87 0-7h2v-2h2v-2h2v-4c-0.66-0.33-1.32-0.66-2-1h2c-0.495-3.47-0.495-3.47-1-7 0.634-0.367 1.27-0.735 1.92-1.11 2.79-2.53 2.85-4.39 3.33-8.07 0.15-1.09 0.299-2.17 0.453-3.29 0.098-0.831 0.196-1.66 0.297-2.52h2c-0.33-3.3-0.66-6.6-1-10h-2c-1.62-1.25-1.62-1.25-3-3v-4h3c-1.32-0.33-2.64-0.66-4-1v-4h4c0.33-3.63 0.66-7.26 1-11-1.32 0.33-2.64 0.66-4 1v-3h-3c0.33-1.32 0.66-2.64 1-4h-6c-0.0427-1.67-0.0406-3.33 0-5 0.33-0.33 0.66-0.66 1-1 0.233-1.68 0.413-3.37 0.562-5.06 0.126-1.38 0.126-1.38 0.254-2.79 0.0606-0.71 0.121-1.42 0.184-2.15h-6v-2h-2v-2c-0.763 0.186-1.53 0.371-2.31 0.562-2.69 0.438-2.69 0.438-5.69-0.562-0.33 0.99-0.66 1.98-1 3h-3c-0.33 0.99-0.66 1.98-1 3-5.94 3.14-5.94 3.14-9.44 2.69-0.773-0.34-0.773-0.34-1.56-0.688 0-3.48 0.34-3.68 2.62-6.06 10.2-11.5 14.8-25.5 14.6-40.7-1.02-15.6-5.81-28.3-16.2-40.2-0.559-0.677-1.12-1.35-1.7-2.05-8.32-9.28-19.7-14.6-32-15.8-4.78-0.236-9.53-0.34-14.3-0.164-1.41-2.64-2.37-5.07-3-8-0.687-0.049-1.37-0.098-2.08-0.148-0.901-0.0748-1.8-0.15-2.73-0.227-0.893-0.0696-1.79-0.139-2.71-0.211-2.48-0.414-2.48-0.414-5.48-2.41-2.25-0.278-2.25-0.278-4.62-0.188-0.797 0.00645-1.59 0.0129-2.41 0.0195-1.96-0.0439-1.96-0.0439-2.96 1.17-2.19 0.0726-4.38 0.0837-6.56 0.0625-1.8-0.0135-1.8-0.0135-3.63-0.0273-0.927-0.0116-1.85-0.0232-2.81-0.0352 0.0602-1.77 0.149-3.54 0.25-5.31 0.0464-0.986 0.0928-1.97 0.141-2.99 0.609-2.7 0.609-2.7 2.37-4.51 2.44-1.29 4.12-1.67 6.87-1.88 1.3-0.0967 1.3-0.0967 2.62-0.195 4.25-0.181 8.49-0.199 12.8-0.117 0.33-1.65 0.66-3.3 1-5h4v-4c11.4-2.92 24.2-3.17 35 2v2h2v2c7.59 0.99 15.2 1.98 23 3 0.99 4.45 0.99 4.45 2 9 0.66-0.33 1.32-0.66 2-1v2c0.908 0.0825 1.82 0.165 2.75 0.25 3.67 0.847 4.95 1.83 7.25 4.75v2h3v-4h5v-4c-0.454 0.495-0.908 0.99-1.38 1.5-1.62 1.5-1.62 1.5-3.62 1.5 0.33-1.32 0.66-2.64 1-4 1.58-0.196 3.17-0.382 4.75-0.562 0.882-0.104 1.76-0.209 2.67-0.316 2.46-0.116 4.24 0.143 6.58 0.879v2h6v-4h2c0.33 1.32 0.66 2.64 1 4 0.33-0.99 0.66-1.98 1-3h2c-0.227-0.681-0.454-1.36-0.688-2.06-0.435-4.09 0.889-6.27 2.69-9.94h2v-3c3.33-2.5 4.73-3 9-3 1.98-0.495 1.98-0.495 4-1 0.33-2.97 0.66-5.94 1-9h2v-8c1.98-0.33 3.96-0.66 6-1v-1z" fill="#D84C2B"/>
<path transform="translate(1201 261)" d="m0 0c0.73-0.00336 1.46-0.00672 2.21-0.0102 2.39-0.00944 4.79-0.0115 7.18-0.0125 1.68-0.00322 3.37-0.00658 5.05-0.0101 3.52-0.00598 7.05-0.00784 10.6-0.00725 4.48 1.01e-4 8.96-0.0135 13.4-0.0308 3.48-0.0112 6.95-0.0131 10.4-0.0126 1.65-0.00117 3.3-0.00552 4.95-0.0133 19.6-0.0843 36.4 1.62 51 16.1 12.3 12.8 18.2 27.9 18.8 45.6-0.35 14.3-5.25 27.5-14.3 38.6h-2c-0.245 0.581-0.49 1.16-0.742 1.76-4.68 8.33-15.8 13.8-24.7 16.6-9.57 2.26-19.8 1.64-29.6 1.61-2.04 0.00609-4.08 0.0167-6.12 0.0279-7.63 0.0413-15.3 0.0263-22.9-0.0279 0.00222 0.562 0.00444 1.12 0.00673 1.7 0.0221 5.82 0.0372 11.6 0.0482 17.5 0.00504 2.18 0.0119 4.35 0.0205 6.53 0.0121 3.12 0.0178 6.24 0.0222 9.36 0.00516 0.979 0.0103 1.96 0.0156 2.97 7.55e-5 0.901 1.51e-4 1.8 2.29e-4 2.73 0.00222 0.797 0.00444 1.59 0.00673 2.42-0.12 1.83-0.12 1.83-1.12 2.83-2.63 0.113-5.24 0.164-7.87 0.168-0.791 0.00333-1.58 0.00666-2.4 0.0101-1.68 0.00507-3.35 0.00741-5.03 0.00725-2.57 0.00218-5.13 0.0203-7.7 0.0393-1.63 0.00293-3.25 0.00492-4.88 0.00586-0.769 0.00719-1.54 0.0144-2.33 0.0218-3.81-0.0163-5.56-0.088-8.8-2.25-0.372-2.06-0.372-2.06-0.367-4.65-0.00557-0.981-0.0111-1.96-0.0169-2.97 0.0138-1.62 0.0138-1.62 0.0279-3.28-0.00204-1.14-0.00409-2.27-0.0062-3.45-0.00303-3.8 0.0156-7.59 0.0345-11.4 0.00306-2.66 0.00504-5.32 0.00568-7.98 0.0037-5.62 0.0187-11.2 0.0412-16.8 0.0283-7.08 0.0391-14.2 0.0438-21.2 0.0166-24.9 0.0762-49.8 0.691-74.6 0.0192-0.821 0.0384-1.64 0.0581-2.49 0.0542-2.23 0.116-4.47 0.181-6.7 0.0351-1.22 0.0701-2.44 0.106-3.7 0.201-2.68 0.201-2.68 1.2-3.68 4.91-0.881 9.66-1.13 14.6-1.15z" fill="#FCFDFD"/>
<path transform="translate(542 205)" d="m0 0c1.42-0.00128 1.42-0.00128 2.86-0.00259 3.16-0.00165 6.33 0.00386 9.49 0.00932 2.27 2.82e-4 4.53 1.24e-4 6.8-4.43e-4 6.16-2.87e-4 12.3 0.0056 18.5 0.0126 6.43 0.00625 12.9 0.00684 19.3 0.00803 10.8 0.00276 21.6 0.00901 32.4 0.0179 11.1 0.00918 22.2 0.0163 33.4 0.0205 0.686 2.63e-4 1.37 5.25e-4 2.08 7.96e-4 3.44 0.00131 6.88 0.00257 10.3 0.00381 28.5 0.0104 57.1 0.028 85.6 0.0503 0.33 0.99 0.66 1.98 1 3h-11v2h3v3h-3v2h3v3h3v2l-3 3c-0.33 0.99-0.66 1.98-1 3-3.12 0.914-3.12 0.914-7 1.62-4.33 0.461-4.33 0.461-8 2.38-2.33 0.345-4.67 0.678-7 1-0.99 0.33-1.98 0.66-3 1v3h11c-3 4-3 4-5.19 4.75-0.598 0.0825-1.2 0.165-1.81 0.25 1.58 0.0815 3.17 0.139 4.75 0.188 0.882 0.0348 1.76 0.0696 2.67 0.105 3.02-0.344 4.33-1.3 6.58-3.29v5h-5c0.0722 0.603 0.144 1.21 0.219 1.83 0.0928 0.799 0.186 1.6 0.281 2.42 0.0928 0.789 0.186 1.58 0.281 2.39 0.219 2.36 0.219 2.36 0.219 6.36h2v5c-0.33-0.66-0.66-1.32-1-2-1.92-0.0542-3.83-0.0929-5.75-0.125-1.07-0.0232-2.13-0.0464-3.23-0.0703-2.91-0.0264-2.91-0.0264-4.8 1.18-2.94 1.35-5.39 1.32-8.62 1.39-1.24 0.0342-2.47 0.0683-3.75 0.104-1.29 0.0264-2.58 0.0529-3.9 0.0801-2.55 0.0599-5.11 0.123-7.66 0.191-1.7 0.0359-1.7 0.0359-3.43 0.0725-2.92 0.0553-2.92 0.0553-5.85 1.17-0.33 0.99-0.66 1.98-1 3h-2c-0.186 0.784-0.371 1.57-0.562 2.38-2 5.06-4.94 9.46-8.44 13.6h-2c-0.274 0.738-0.547 1.48-0.829 2.23-1.1 2.6-2.31 4.69-3.91 7.01-0.532 0.78-1.06 1.56-1.61 2.36-0.546 0.791-1.09 1.58-1.65 2.4-0.51 0.747-1.02 1.49-1.54 2.26-1.56 2.29-3.13 4.58-4.71 6.86-4.59 6.68-9.13 13.4-13.6 20.2-1.97 2.98-3.98 5.89-6.16 8.72-2.18-0.0586-2.18-0.0586-5-1-1.93-2.33-3.52-4.53-5.12-7.06-0.963-1.46-1.93-2.92-2.89-4.38-0.49-0.753-0.981-1.51-1.49-2.28-2.4-3.65-4.89-7.25-7.37-10.8-0.44-0.641-0.879-1.28-1.33-1.94-2.16-3.15-4.35-6.26-6.61-9.33-2.18-3.16-2.18-3.16-2.18-5.16h-2c-1.47-2.06-2.81-4.1-4.12-6.25-0.806-1.28-1.61-2.57-2.42-3.85-0.612-0.977-0.612-0.977-1.24-1.97-1.83-2.9-3.7-5.76-5.59-8.62-0.626-0.953-1.25-1.91-1.9-2.89-1.51-2.13-2.71-3.79-4.73-5.43-2.22-0.412-2.22-0.412-4.67-0.293-0.893 0.00967-1.79 0.0193-2.71 0.0293-1.39 0.0377-1.39 0.0377-2.81 0.0762-0.94 0.0135-1.88 0.0271-2.85 0.041-2.32 0.0354-4.64 0.0847-6.96 0.146v-3h-16c-0.33 1.65-0.66 3.3-1 5h-2c0.351 0.887 0.701 1.77 1.06 2.69 1.62 5.59 0.955 11.7-0.0625 17.3-0.99 0.495-0.99 0.495-2 1-0.495-3.47-0.495-3.47-1-7h-2v10h-2c-0.169-1.75-0.335-3.5-0.5-5.25-0.0928-0.975-0.186-1.95-0.281-2.95-0.177-2.26-0.219-4.53-0.219-6.8-0.66-0.33-1.32-0.66-2-1v-2h-5v3h5v2h-10v6h-1c-0.197-1.42-0.382-2.83-0.562-4.25-0.104-0.789-0.209-1.58-0.316-2.39-0.121-2.36 0.183-4.11 0.879-6.36-1.32-0.33-2.64-0.66-4-1v-5c-1.49 0.495-1.49 0.495-3 1 0.33 0.66 0.66 1.32 1 2h-3v-2h-7v-5h7v2h5v-2h7c0.33 1.32 0.66 2.64 1 4 2.64-0.66 5.28-1.32 8-2 0.33 0.99 0.66 1.98 1 3h2v-13h-6c-0.66-0.33-1.32-0.66-2-1v-3c1.09-0.144 2.19-0.289 3.31-0.438 3.62-0.445 3.62-0.445 6.69-1.56-1.32-0.99-2.64-1.98-4-3 0.99-0.66 1.98-1.32 3-2 0.99 0.33 1.98 0.66 3 1v-2h-5v-3c2.45-1.23 3.84-1.03 6.57-0.879 1.34 0.0725 1.34 0.0725 2.71 0.146 0.937 0.0561 1.87 0.112 2.84 0.17 0.945 0.0522 1.89 0.104 2.86 0.158 2.34 0.13 4.67 0.265 7.01 0.404v-5c-1.42-0.0545-2.83-0.093-4.25-0.125-1.18-0.0348-1.18-0.0348-2.39-0.0703-2.37 0.0328-2.37 0.0328-4.24 1.24-5.39 2.42-13.4-0.161-18.8-1.94-2.17-0.933-4.22-1.97-6.29-3.11-1.18-0.536-2.35-1.07-3.56-1.62-2.44-2.38-2.44-2.38-2.73-4.78 0.043-2.72 0.043-2.72 0.277-5.35 0.00516-0.74 0.0103-1.48 0.0156-2.24-0.66-0.66-1.32-1.32-2-2h2v-2c-0.99-0.33-1.98-0.66-3-1v-1c4.78-1.23 9.44-1.14 14.3-1.12z" fill="#D84B2B"/>
<path transform="translate(953 261)" d="m0 0c0.844 0.0413 1.69 0.0826 2.56 0.125 0.879 0.0113 1.76 0.0226 2.66 0.0343 2.79 0.0446 5.58 0.145 8.37 0.247 1.9 0.0401 3.8 0.0766 5.7 0.109 4.64 0.0879 9.28 0.226 13.9 0.391 1.15 1.72 1.15 1.72 2 4-0.852 2.16-0.852 2.16-2.41 4.5-0.572 0.878-1.14 1.76-1.73 2.66-0.633 0.937-1.27 1.87-1.92 2.84-0.634 0.967-1.27 1.93-1.92 2.93-1.99 3.03-4 6.05-6.02 9.07-1.87 2.83-3.73 5.66-5.59 8.5-1.13 1.72-2.27 3.44-3.41 5.16-0.512 0.777-1.02 1.55-1.55 2.36-0.45 0.677-0.901 1.35-1.36 2.05-1.11 1.98-1.65 3.72-2.08 5.94 1.14 0.28 2.27 0.559 3.45 0.848 19.3 4.93 33.5 12 44.6 29.2 7.85 13.3 9.52 29.9 6.28 45-0.91 3.12-1.96 6.03-3.28 9-0.509 1.19-0.509 1.19-1.03 2.39-6.93 14.1-19.9 23.6-34 29.6-17.8 5.88-39.3 4.13-56-4-0.767-0.347-1.53-0.694-2.32-1.05-12.4-6.1-23.1-17.7-28-30.5-5.58-17.1-4.1-32.3 3.88-48.4 4.14-8.02 9.08-15.5 14.1-23 2.09-3.14 4.13-6.3 6.16-9.47 0.369-0.573 0.738-1.15 1.12-1.74 2.65-4.13 5.19-8.33 7.69-12.6 1.78-2.93 3.69-5.75 5.61-8.59 2.76-4.19 5.38-8.47 7.99-12.7 0.79-1.28 1.59-2.55 2.41-3.81 0.896-1.39 1.76-2.8 2.6-4.23 3.26-5.08 5.47-6.8 11.5-6.8z" fill="#FCFDFD"/>
<path transform="translate(278 262)" d="m0 0c0.771 0.00719 1.54 0.0144 2.34 0.0218 0.791 4.58e-4 1.58 9.16e-4 2.4 0.00139 1.67 0.00302 3.35 0.0109 5.02 0.0233 2.57 0.0182 5.14 0.0205 7.7 0.0203 1.63 0.00492 3.25 0.0107 4.88 0.0176 1.16 0.00167 1.16 0.00167 2.34 0.00337 5.43 0.0485 5.43 0.0485 7.66 1.16 0.00547 1.89 0.00547 1.89 0.011 3.82 0.0371 11.9 0.0949 23.9 0.173 35.8 0.0394 6.13 0.0716 12.3 0.0871 18.4 0.0152 5.93 0.0498 11.9 0.0973 17.8 0.0148 2.25 0.0227 4.51 0.0236 6.76-0.437 21.6-0.437 21.6 9.82 39.9 7.53 6.64 14.4 7.94 24.1 7.96 0.899 0.0245 1.8 0.049 2.72 0.0742 8.74 0.0379 16-2.71 22.5-8.71 9.64-11.2 7.76-29.3 7.65-43-0.0258-3.2-0.0386-6.4-0.0483-9.59-0.0227-6.77-0.0613-13.5-0.102-20.3-0.0472-7.89-0.0879-15.8-0.112-23.7-0.013-3.15-0.038-6.31-0.0634-9.46-0.00726-1.92-0.014-3.84-0.02-5.76-0.0103-0.879-0.0207-1.76-0.0313-2.66-3.68e-4 -2.09 0.103-4.18 0.227-6.26 2.58-2.58 4.32-2.24 7.84-2.25 0.796 0.00719 1.59 0.0144 2.41 0.0218 0.816 4.58e-4 1.63 9.16e-4 2.47 0.00139 1.73 0.00302 3.45 0.0109 5.18 0.0233 2.65 0.0183 5.3 0.0205 7.95 0.0203 1.67 0.00491 3.35 0.0107 5.02 0.0176 1.2 0.00167 1.2 0.00167 2.42 0.00337 5.59 0.0485 5.59 0.0485 6.7 1.16 0.102 1.36 0.135 2.72 0.14 4.07 0.00571 0.879 0.0114 1.76 0.0173 2.66 0.00168 1.46 0.00168 1.46 0.00339 2.94 0.00496 1.02 0.00993 2.04 0.015 3.09 0.0147 3.39 0.0214 6.78 0.0269 10.2 0.00575 2.36 0.0115 4.72 0.0173 7.08 0.0105 4.96 0.0164 9.93 0.0198 14.9 0.00545 6.32 0.0294 12.6 0.058 19 0.0188 4.88 0.0238 9.77 0.0254 14.7 0.00301 2.33 0.011 4.66 0.0242 6.99 0.127 24.1-2.04 45.9-19.2 64.4-15.6 14.9-36.6 18.4-57.3 18.2-20.4-0.806-37.2-6.88-51.9-21.2-1.36-1.21-1.36-1.21-2.75-2.44-9.86-11.2-15.2-26.9-15.9-41.7-0.0375-0.771-0.0751-1.54-0.114-2.34-0.432-9.78-0.436-19.6-0.44-29.3-0.00322-2.03-0.00659-4.06-0.0101-6.1-0.00593-4.22-0.00785-8.43-0.00725-12.6 1.03e-4 -5.41-0.0137-10.8-0.0308-16.2-0.0111-4.18-0.0131-8.35-0.0126-12.5-0.00118-2-0.00561-3.99-0.0133-5.99-0.00974-2.77-0.00695-5.54-8.95e-4 -8.31-0.00562-0.825-0.0112-1.65-0.017-2.5 0.038-6.8 1.07-8.11 7.92-8.14z" fill="#FCFDFD"/>
<path transform="translate(469,208)" d="m0 0h12v273c-49.5 1.15-49.5 1.15-72.7 1.06-2.41-0.00505-4.81-0.00961-7.22-0.0137-5.7-0.0106-11.4-0.027-17.1-0.0488-0.33-0.66-0.66-1.32-1-2 17.5-0.33 35-0.66 53-1v-2h-7v-1c2.31-0.33 4.62-0.66 7-1v-6h-6v-14h-2v-14h2v-3h-2v-2c1.61-1.59 1.61-1.59 3.75-3.38 0.731-0.625 1.46-1.25 2.21-1.89 0.672-0.571 1.34-1.14 2.04-1.73 2.58-2.3 3.91-3.82 5.44-6.94 1.74-3.41 3.69-5.56 6.56-8.06h2v-3h-2v-15h2v-9c-1.32-0.33-2.64-0.66-4-1v-3c-1.32-0.33-2.64-0.66-4-1v-7h-6v-2h-4c-0.33-1.32-0.66-2.64-1-4 1.65-0.33 3.3-0.66 5-1h-4c-2.21-5.52-2.77-10.5-1.49-16.3 0.577-3.16 0.546-6.09 0.488-9.29-0.0523-6.19 0.327-12.2 1-18.4-1.65 8.04-2.54 16-3.12 24.2-0.0864 1.14-0.173 2.29-0.262 3.46-0.21 2.78-0.414 5.57-0.613 8.35-0.66-0.33-1.32-0.66-2-1-0.155-12.7 0.38-25.3 1.22-37.9 0.153-2.33 0.296-4.66 0.439-6.99 0.0489-0.693 0.0978-1.39 0.148-2.1 0.29-4.82-0.1-9.21-0.808-14-0.0376 1.44-0.0376 1.44-0.0759 2.91-0.0941 3.55-0.194 7.1-0.296 10.7-0.0434 1.54-0.085 3.08-0.125 4.62-0.0577 2.21-0.121 4.42-0.186 6.63-0.0251 1.03-0.0251 1.03-0.0506 2.09-0.152 4.88-0.152 4.88-1.27 7.11-0.154 2.1-0.25 4.21-0.316 6.32-0.0628 1.89-0.0628 1.89-0.127 3.81-0.0393 1.32-0.0786 2.64-0.119 4-0.0432 1.34-0.0868 2.68-0.131 4.02-0.106 3.29-0.208 6.57-0.307 9.86-0.66 0.33-1.32 0.66-2 1 0.0412 1.2 0.0825 2.39 0.125 3.62 0.0107 6.71-0.0913 15.3-3.12 21.4h-2c-0.33 1.32-0.66 2.64-1 4h-2c-0.33 1.65-0.66 3.3-1 5h-1c0.368-4.12 0.802-8.11 1.71-12.2 2.79-12.6 2.77-25 2.81-37.8 0.0169-2.38 0.035-4.75 0.0544-7.13 0.0472-6.2 0.0772-12.4 0.103-18.6 0.03-6.35 0.0764-12.7 0.121-19 0.0856-12.4 0.153-24.8 0.209-37.3h2l1-2c0.99 0.33 1.98 0.66 3 1 2.25-0.381 2.25-0.381 4.56-1.19 0.785-0.241 1.57-0.482 2.38-0.73 2.54-1.33 3.03-2.45 4.06-5.08 0.667-1.33 1.33-2.67 2-4h2c-0.0412-0.743-0.0825-1.49-0.125-2.25 0.135-2.96 0.293-4.42 2.12-6.75 2.94-0.688 2.94-0.688 6-1 1.49-0.495 1.49-0.495 3-1v3h2c0.33-0.99 0.66-1.98 1-3 2.31-1.06 2.31-1.06 5-2 2.25-0.708 2.25-0.708 4-2 0.753-2.43 0.753-2.43 1-5 0.495-1.49 0.495-1.49 1-3 2.56-1.19 2.56-1.19 5-2v-2h3c-0.186-1.09-0.371-2.19-0.562-3.31-0.438-3.69-0.438-3.69 0.562-6.69h-2v-6z" fill="#D94A2B"/>
<path transform="translate(838 205)" d="m0 0c0.83-0.00199 1.66-0.00398 2.52-0.00603 0.907 0.00291 1.81 0.00583 2.75 0.00883 0.967-8.54e-4 1.93-0.00171 2.93-0.00259 3.25-0.00165 6.5 0.00386 9.75 0.00932 2.33 2.82e-4 4.65 1.24e-4 6.98-4.43e-4 6.32-2.88e-4 12.6 0.0056 19 0.0126 5.93 0.00561 11.9 0.00662 17.8 0.00765 11.8 0.00219 23.5 0.00884 35.3 0.0183 11.4 0.00918 22.8 0.0163 34.3 0.0205 1.06 3.94e-4 1.06 3.94e-4 2.13 7.96e-4 3.53 0.00131 7.06 0.00257 10.6 0.00381 29.3 0.0104 58.6 0.0281 87.9 0.0503 0.33 0.99 0.66 1.98 1 3-0.66 0.33-1.32 0.66-2 1 0.99 0.66 1.98 1.32 3 2v2h2c0.312 2.81 0.312 2.81 0 6-1.64 1.05-3.3 2.05-5 3-0.851 2.34-0.851 2.34-1 5-0.186 1.09-0.371 2.19-0.562 3.31-0.144 0.887-0.289 1.77-0.438 2.69h-3c-0.33 0.66-0.66 1.32-1 2-2.56 0.625-2.56 0.625-5 1-0.33 1.65-0.66 3.3-1 5h-2c-0.371 1.11-0.371 1.11-0.75 2.25-1.25 2.75-1.25 2.75-3.3 4.53-3.21 3.66-2.35 7.36-2.22 12 0.316 3.69 1.13 6.69 2.27 10.2 0.833 6.11-1.78 11.4-4 17h-2c0.217 1.32 0.217 1.32 0.438 2.67 0.186 1.16 0.371 2.32 0.562 3.52 0.186 1.15 0.371 2.3 0.562 3.48 0.372 2.84 0.523 5.48 0.438 8.33-3.46 0.495-3.46 0.495-7 1v5h-4v2h-2v-2h-3v3c-1.43-0.23-1.43-0.23-2.88-0.465-4.67-0.667-9.35-0.879-14.1-1.1-1.31-0.0648-1.31-0.0648-2.65-0.131-2.14-0.105-4.27-0.206-6.41-0.307 0.33-1.32 0.66-2.64 1-4-0.99-0.66-1.98-1.32-3-2-2.01 0.629-4.01 1.3-6 2-0.99-0.33-1.98-0.66-3-1v-2c-0.619-0.0825-1.24-0.165-1.88-0.25-2.12-0.75-2.12-0.75-3.25-2.47-1.02-2.67-1.07-4.68-1-7.53 0.018-0.892 0.0361-1.78 0.0547-2.7 0.0232-0.675 0.0464-1.35 0.0703-2.05 2-1 3.83-1.49 6-2-0.33-2.31-0.66-4.62-1-7-0.99 2.31-1.98 4.62-3 7-1.16-3.47-1.07-6.36-1-10 0.804-0.248 1.61-0.495 2.44-0.75 2.73-0.972 2.73-0.972 3.38-3.38 0.0619-0.619 0.124-1.24 0.188-1.88 7.75-0.125 7.75-0.125 10 1-0.186-0.598-0.371-1.2-0.562-1.81-0.438-2.19-0.438-2.19 0.562-5.19h-2v-2h-3c-1.69-1.5-1.69-1.5-3-3v3h-2v-4c-2.48 0.495-2.48 0.495-5 1 0.33-1.32 0.66-2.64 1-4 1.32 0.33 2.64 0.66 4 1v-3h-5c-0.99-1.98-0.99-1.98-2-4l5-1c-0.639-0.103-1.28-0.206-1.94-0.312-0.681-0.227-1.36-0.454-2.06-0.688-0.33-0.99-0.66-1.98-1-3l5-1c-1.32-0.33-2.64-0.66-4-1v-2h-2v-4c-1.07 0.0412-2.14 0.0825-3.25 0.125-3.64-0.121-4.71-0.508-7.75-2.12-2.33-0.355-4.66-0.691-7-1-0.33-0.33-0.66-0.66-1-1-7.23-1.06-14.4-1.15-21.7-1.13-1.18-9.57e-4 -2.37-0.00191-3.59-0.0029-2.48-6.77e-4 -4.97 0.00114-7.45 0.00534-3.82 0.00539-7.64 1.96e-5 -11.5-0.00635-2.42 6.6e-4 -4.83 0.00194-7.25 0.00391-1.15-0.00202-2.3-0.00405-3.48-0.00613-1.05 0.00315-2.1 0.0063-3.19 0.00955-0.93 7.96e-4 -1.86 0.00159-2.82 0.00241-2.1-0.108-2.1-0.108-3.11 1.13-2.33 0.0409-4.67 0.0424-7 0v3c0.66 0.33 1.32 0.66 2 1-0.99 2.97-0.99 2.97-2 6 1.49 0.495 1.49 0.495 3 1 0.73 2.07 0.73 2.07 1.19 4.56 0.238 1.24 0.238 1.24 0.48 2.5 0.164 0.957 0.164 0.957 0.332 1.93h-2c0.99 2.97 0.99 2.97 2 6h-7c-0.371 0.959-0.371 0.959-0.75 1.94-0.619 1.02-0.619 1.02-1.25 2.06-0.621 0.144-1.24 0.289-1.88 0.438-2.57 0.682-3.48 1.67-5.24 3.62-1.51 1.66-1.51 1.66-2.88 2.94h-2v2c-1.79 0.402-1.79 0.402-3.62 0.812-3.75 0.928-6.98 2.32-10.4 4.19v2h-3c-0.33-0.33-0.66-0.66-1-1-1.49 0.495-1.49 0.495-3 1v-3c-1.98-0.33-3.96-0.66-6-1v-11h-2v-2h-2v8h-1v-6h-2v-2h-2v-18h1v7h2c0.33 0.99 0.66 1.98 1 3 0.0269-1.81 0.0463-3.62 0.0625-5.44 0.0116-1.01 0.0232-2.02 0.0352-3.06 0.188-2.44 0.188-2.44-1.1-3.5-0.0725-1.64-0.0838-3.29-0.0625-4.94 0.00902-0.896 0.018-1.79 0.0273-2.71 0.0116-0.775 0.0232-1.55 0.0352-2.35 0-2.88-1.06-5.29-2-8h-4v-4h-4c-1.48-2.96-1.06-5.74-1-9-0.99 0.33-1.98 0.66-3 1v5c-0.99 0.495-0.99 0.495-2 1 0.0412-1.11 0.0825-2.23 0.125-3.38 0.286-3.67 0.286-3.67-2.12-5.62 0.99-0.66 1.98-1.32 3-2-0.99-0.66-1.98-1.32-3-2 2.8-0.792 5.27-1.12 8.18-1.12z" fill="#D94E2D"/>
<path transform="translate(1322,359)" d="m0 0h8v2h2v2h6c0.185 10.6 0.185 10.6-1 15h7c-0.99 1.65-1.98 3.3-3 5h3v3c1.65-0.66 3.3-1.32 5-2-0.66 3.96-1.32 7.92-2 12h-4v4c1.32-0.33 2.64-0.66 4-1v2h-3v4c1.48 0.495 1.48 0.495 3 1v2h2c0.363 1.29 0.715 2.58 1.06 3.88 0.197 0.719 0.394 1.44 0.598 2.18 0.34 1.95 0.34 1.95-0.66 3.95h-2c-0.0258 0.904-0.0516 1.81-0.0781 2.74-0.0851 1.77-0.0851 1.77-0.172 3.57-0.0464 1.17-0.0928 2.34-0.141 3.55-0.736 3.79-1.64 3.97-4.61 6.14-0.483 2.74-0.483 2.74-0.25 5.69 0.0361 0.994 0.0722 1.99 0.109 3.01 0.0464 0.759 0.0928 1.52 0.141 2.3h-2v2h-2v2h-2v2c0.66 0.33 1.32 0.66 2 1-0.66 1.65-1.32 3.3-2 5-1.48-0.495-1.48-0.495-3-1-0.0271 1.77-0.0464 3.54-0.0625 5.31-0.0116 0.986-0.0232 1.97-0.0352 2.99-0.0256 2.8-0.0256 2.8 1.1 5.7 1.48 0.495 1.48 0.495 3 1-0.99 0.495-0.99 0.495-2 1v3h2v2h-2v3h8v1c-15.3 0.648-30.6 1.1-45.9 1.12-1.31 0.00451-2.63 0.00902-3.98 0.0137-1.23-0.00193-2.46-0.00387-3.73-0.00586-1.08-0.00113-2.17-0.00226-3.28-0.00342-3.07-0.129-3.07-0.129-5.72-0.618-5.09-0.777-10.2-0.75-15.3-0.828-1.72-0.0312-1.72-0.0312-3.47-0.063-3.65-0.0652-7.29-0.124-10.9-0.183-2.48-0.0432-4.96-0.0868-7.43-0.131-6.06-0.107-12.1-0.209-18.2-0.307v-2c3.46-0.495 3.46-0.495 7-1-2.31-0.66-4.62-1.32-7-2v-2c2.47-0.495 2.47-0.495 5-1v2c1.23-0.217 1.23-0.217 2.48-0.438 10.9-1.66 21.7-1.7 32.8-1.49 1.22 0.0168 2.44 0.0335 3.69 0.0508 1.1 0.0232 2.19 0.0464 3.33 0.0703 4.03-0.287 6.07-2.39 8.75-5.2h-3v-2c1.62-1.06 3.27-2.07 4.94-3.06 3.84-2.5 3.84-2.5 5.95-6.4 0.214-2.23 0.285-4.31 0.113-6.54h2v-2h-2v-2c-3.27-0.029-6.54-0.0468-9.81-0.0625-0.929-0.00838-1.86-0.0168-2.81-0.0254-0.893-0.00322-1.79-0.00645-2.71-0.00977-0.822-0.00524-1.64-0.0105-2.49-0.0159-2.36 0.0261-2.36 0.0261-5.18 1.11 0.495-1.98 0.495-1.98 1-4-3.63-0.66-7.26-1.32-11-2-0.33-1.65-0.66-3.3-1-5-1.85-1.05-1.85-1.05-4-2-1.36-1.64-2.7-3.31-4-5-0.66-0.33-1.32-0.66-2-1-0.125-2.38-0.125-2.38 0-5 0.66-0.66 1.32-1.32 2-2 0.206-2 0.206-2 0.0625-4.31-0.138-6.27 0.39-12.4 0.938-18.7h-6c0.33-0.66 0.66-1.32 1-2 2.32-0.407 4.66-0.744 7-1v-5c1.65-0.33 3.3-0.66 5-1-1.65-0.33-3.3-0.66-5-1 0.33-0.99 0.66-1.98 1-3 12.4-0.99 12.4-0.99 25-2-0.495-0.99-0.495-0.99-1-2 1.03-0.352 2.05-0.704 3.11-1.07 7.84-2.77 14.8-5.69 21.7-10.5 2.18-1.38 3.69-2.1 6.23-2.42 0.99 0.33 1.98 0.66 3 1 4.85-1.45 4.85-1.45 8-5 0.99-0.33 1.98-0.66 3-1 0.33-0.66 0.66-1.32 1-2z" fill="#D94E2D"/>
<path transform="translate(1141 205)" d="m0 0c1.28-0.00299 1.28-0.00299 2.58-0.00603 1.41 0.00437 1.41 0.00437 2.84 0.00883 0.995-8.54e-4 1.99-0.00171 3.01-0.00259 3.35-0.00165 6.7 0.00386 10 0.00932 2.39 2.82e-4 4.79 1.24e-4 7.18-4.43e-4 5.16-2.28e-4 10.3 0.00262 15.5 0.00824 7.46 0.00812 14.9 0.0107 22.4 0.012 12.1 0.00219 24.2 0.00885 36.3 0.0183 11.8 0.00918 23.5 0.0163 35.3 0.0205 0.725 2.63e-4 1.45 5.25e-4 2.2 7.96e-4 3.64 0.00131 7.27 0.00257 10.9 0.00381 30.2 0.0104 60.4 0.0281 90.5 0.0503 0.33 0.99 0.66 1.98 1 3-1.98 0.33-3.96 0.66-6 1-0.33 2.31-0.66 4.62-1 7h-2c0.227 0.701 0.454 1.4 0.688 2.12 0.417 3.84-0.585 5.69-2.69 8.88-2.81 1.27-4.83 1-8 1-1.34 0.298-2.68 0.622-4 1v3h-2c-1.15 3.94-1.53 7.94-2 12h-2c-0.33 1.32-0.66 2.64-1 4h-1v-5h-2v4h-6v-2c-7.06-0.15-7.06-0.15-14 1-0.33 0.99-0.66 1.98-1 3 0.99-0.99 0.99-0.99 2-2 0.99-0.33 1.98-0.66 3-1v4h-5v4h-3v-2c-1.32-0.66-2.64-1.32-4-2v-2c-2.64-0.33-5.28-0.66-8-1-1.32-3.62-2-6.1-2-10-1.24 0.0412-2.47 0.0825-3.75 0.125-6.2 0.00985-13.6-0.319-19.2-3.12v-2h-2v-2c-5.7-1.59-11-2.42-16.9-2.69-1.18-0.0608-1.18-0.0608-2.38-0.123-5.34-0.235-10.4-0.0708-15.7 0.81v4h-4v4c0.66 0.33 1.32 0.66 2 1-4.24 1.41-8.43 0.975-12.8 0.785-5.14-0.106-8.55 0.913-13.2 3.21-0.495 4.95-0.495 4.95-1 10 1.98 0.0269 3.96 0.0463 5.94 0.0625 1.65 0.0174 1.65 0.0174 3.34 0.0352 2.64 0.215 2.64 0.215 3.72-1.1 1.96-0.168 1.96-0.168 4.38-0.188 1.19-0.0213 1.19-0.0213 2.4-0.043 2.23 0.23 2.23 0.23 5.23 2.23 2.51 0.456 2.51 0.456 5.19 0.625 0.901 0.0748 1.8 0.15 2.73 0.227 0.687 0.049 1.37 0.098 2.08 0.148 0.495 2.47 0.495 2.47 1 5 1.48 0.495 1.48 0.495 3 1-4.35 4.35-13.2 3.05-19.1 3.1-2.18-0.00681-4.36-0.0187-6.55-0.0352-1.75-0.00568-1.75-0.00568-3.53-0.0115-3.69-0.0121-7.38-0.0307-11.1-0.051-4.88-0.0267-9.76-0.0466-14.6-0.0625-1.11-0.0083-2.22-0.0166-3.37-0.0251-7.93-0.041-7.93-0.041-15.7 1.09-1.51 1.94-1.51 1.94-2 4-1.02-3.24-1.16-4.63 0.188-7.81 0.598-0.722 1.2-1.44 1.81-2.19h4c-0.66-0.66-1.32-1.32-2-2 0.639-0.124 1.28-0.248 1.94-0.375 0.681-0.206 1.36-0.412 2.06-0.625 0.495-0.99 0.495-0.99 1-2h2v2c0.784 0.144 1.57 0.289 2.38 0.438 2.62 0.562 2.62 0.562 4.62 1.56 0.495-0.99 0.495-0.99 1-2 1.32 0.66 2.64 1.32 4 2v-10c-0.681 0.186-1.36 0.371-2.06 0.562-3.51 0.523-6.46 0.0513-9.94-0.562v3c1.65 0.33 3.3 0.66 5 1v1h-7v-9h-4c-0.33 1.32-0.66 2.64-1 4v-4h-4v4h-10v2h-3c-0.33 0.99-0.66 1.98-1 3h-3v2c-5.62 0.25-5.62 0.25-9-2-0.188-2.62-0.188-2.62 0-5-0.33 1.65-0.66 3.3-1 5h-4v-4c-0.66 1.32-1.32 2.64-2 4-0.33-1.32-0.66-2.64-1-4h-2c-0.33-2.31-0.66-4.62-1-7h-3c-0.33-2.64-0.66-5.28-1-8h-2v-3h-2c-2.12-1.88-2.12-1.88-4-4v-2h-2v-2c-0.66-0.33-1.32-0.66-2-1 0.25-2.81 0.25-2.81 1-6 2.06-1.69 2.06-1.69 4-3v-3c-0.66-0.66-1.32-1.32-2-2 2.75-0.915 4.34-1.12 7.16-1.12z" fill="#D94E2D"/>
<path transform="translate(334,245)" d="m0 0h2v2h2v2h2v3h-2v2h2c0.33 1.65 0.66 3.3 1 5 1.11-0.489 2.22-0.977 3.36-1.48 4.98-1.86 9.56-1.93 14.8-1.83 0.876-0.00322 1.75-0.00645 2.65-0.00977 8.72 0.0727 8.72 0.0727 12.2 2.32 2.59 4.32 3.38 7.56 3.43 12.6 0.0198 1.29 0.0396 2.58 0.06 3.91 0.00679 1.4 0.0132 2.81 0.0194 4.21 0.0169 1.47 0.0351 2.94 0.0544 4.41 0.0475 3.89 0.0772 7.77 0.103 11.7 0.0293 3.85 0.0763 7.69 0.121 11.5 0.0924 8.19 0.15 16.4 0.196 24.6 0.0126 2.09 0.0277 4.18 0.0437 6.28 0.0289 3.84 0.0468 7.67 0.0628 11.5 0.0132 1.68 0.0132 1.68 0.0267 3.39 0.026 12.6-0.697 25-9.72 34.6-7.02 6.6-14.5 7.81-23.8 7.74-0.89 0.02-1.78 0.04-2.7 0.0605-9.4-0.00687-16.3-3.27-23.1-9.65-7.5-8.04-9.18-18.8-9.09-29.4-0.00365-1-0.0073-2.01-0.0111-3.04-0.00804-3.28 0.00544-6.56 0.0201-9.84 5.19e-4 -2.29-4.96e-7 -4.58-0.00151-6.87 8.94e-5 -4.78 0.0105-9.56 0.0286-14.3 0.0228-6.14 0.0232-12.3 0.0165-18.4-0.00333-4.72 0.00328-9.44 0.0131-14.2 0.00386-2.26 5e-3 -4.53 0.00341-6.79-3.69e-4 -3.15 0.0122-6.3 0.0285-9.46-0.00372-1.41-0.00372-1.41-0.00751-2.85 0.00708-0.855 0.0142-1.71 0.0215-2.59 0.00205-0.745 0.00411-1.49 0.00622-2.26 0.254-1.83 0.254-1.83 2.25-3.83 2.06-0.414 2.06-0.414 4.44-0.625 0.782-0.0748 1.56-0.15 2.37-0.227 1.73-0.117 3.46-0.148 5.19-0.148v-3c-1.32-0.33-2.64-0.66-4-1 1.32-0.33 2.64-0.66 4-1v-2c3.46-0.495 3.46-0.495 7-1 0.33-1.65 0.66-3.3 1-5h2v-2z" fill="#D94A2B"/>
<path transform="translate(1380,206)" d="m0 0c1.81-0.0269 3.62-0.0463 5.44-0.0625 1.01-0.0116 2.02-0.0232 3.06-0.0352 2.5 0.0977 2.5 0.0977 3.5 1.1 0.0967 1.47 0.124 2.94 0.123 4.42 0.00199 0.96 0.00398 1.92 0.00603 2.91-0.00291 1.07-0.00583 2.13-0.00883 3.23 8.54e-4 1.12 0.00171 2.25 0.00259 3.41 0.00166 3.8-0.00387 7.59-0.00932 11.4-8.37e-4 2.71-1.68e-4 5.42 4.43e-4 8.13 5.25e-4 5.85-0.00262 11.7-0.00824 17.5-0.00811 8.46-0.0107 16.9-0.012 25.4-0.00219 13.7-0.00885 27.4-0.0183 41.2-0.00917 13.3-0.0163 26.7-0.0205 40-2.63e-4 0.821-5.25e-4 1.64-7.96e-4 2.49-0.0013 4.12-0.00257 8.24-0.00381 12.4-0.0104 34.2-0.0288 68.4-0.0503 103h-77v-1c6.93-0.33 13.9-0.66 21-1v-3h2v-2h-2c0.371-0.866 0.371-0.866 0.75-1.75 0.0825-0.742 0.165-1.48 0.25-2.25-0.639-0.598-1.28-1.2-1.94-1.81-2.06-2.19-2.06-2.19-2.38-5.69 0.237-2.66 0.504-4.97 1.31-7.5h3c0.934-3.01 1.04-3.87 0-7h2v-2h2v-2h2v-4c-0.66-0.33-1.32-0.66-2-1h2c-0.33-2.31-0.66-4.62-1-7 0.634-0.367 1.27-0.735 1.92-1.11 2.79-2.53 2.85-4.39 3.33-8.07 0.15-1.09 0.299-2.17 0.453-3.29 0.098-0.831 0.196-1.66 0.297-2.52h2c-0.33-3.3-0.66-6.6-1-10h-2c1.88-3.88 1.88-3.88 3-5 0.368-2.33 0.702-4.66 1-7h3v-17h3c0.33 1.32 0.66 2.64 1 4 0.66-1.65 1.32-3.3 2-5h7c0.495 3.47 0.495 3.47 1 7 1.21-3.11 1.21-3.11 1-7 0.99 0.33 1.98 0.66 3 1-0.33 0.33-0.66 0.66-1 1 0.99 0.33 1.98 0.66 3 1-0.0206-0.969-0.0412-1.94-0.0625-2.94 0.0625-3.06 0.0625-3.06 1.06-4.06 0.233-1.68 0.413-3.37 0.562-5.06 0.0838-0.919 0.168-1.84 0.254-2.79 0.0909-1.07 0.0909-1.07 0.184-2.15h2v10h2v-10h2v-2h-2c-0.33-10.6-0.66-21.1-1-32-0.33 2.97-0.66 5.94-1 9h-2c-2.26-8.05-2.2-15.7-2-24h-2v-6h2v-10h-2c-2.06-4.18-2.09-7.21-1.62-11.8 0.111-1.16 0.222-2.32 0.336-3.52 0.0954-0.88 0.191-1.76 0.289-2.67h-2c-0.495 1.98-0.495 1.98-1 4h-4v-4h-4l-2-2c0.48-0.408 0.96-0.815 1.45-1.24 1.85-2.11 2.02-3.23 2.28-5.99 0.0806-0.802 0.161-1.6 0.244-2.43 0.0703-0.833 0.141-1.67 0.213-2.53 0.0819-0.845 0.164-1.69 0.248-2.56 0.2-2.08 0.384-4.17 0.564-6.25l-4 2c0.33 0.99 0.66 1.98 1 3-1.32 1.32-2.64 2.64-4 4 0.33-1.32 0.66-2.64 1-4-2.72-2.31-2.72-2.31-5.19-1.62-0.598 0.206-1.2 0.413-1.81 0.625-0.212-5.19 0.409-9.13 2-14h2c-0.107-0.568-0.214-1.14-0.324-1.72-0.903-5.81-0.439-9.08 2.32-14.3h2v-3c3.33-2.5 4.73-3 9-3 1.32-0.33 2.64-0.66 4-1 0.33-2.97 0.66-5.94 1-9h2v-8c1.98-0.33 3.96-0.66 6-1v-1z" fill="#D94A2B"/>
<path transform="translate(814,207)" d="m0 0c0.99 0.33 1.98 0.66 3 1h-2c0.33 0.66 0.66 1.32 1 2 1.85 11.2 2.16 22.7 2.03 34.1-0.0714 7.65 0.0879 15.3 0.338 22.9 0.065 1.99 0.125 3.98 0.186 5.98 0.0418 1.22 0.0836 2.45 0.127 3.71 0.0367 1.09 0.0733 2.18 0.111 3.3 0.19 2.75 0.656 5.28 1.21 7.97-0.0826 2.27-0.231 4.55-0.438 6.81-0.102 1.16-0.204 2.32-0.309 3.52-0.126 1.32-0.126 1.32-0.254 2.67 2.45-4.8 2.44-9.54 2.62-14.8 0.0387-0.884 0.0773-1.77 0.117-2.68 0.0938-2.17 0.177-4.34 0.258-6.51h1c0.144 1.05 0.289 2.1 0.438 3.19 0.616 4.44 0.616 4.44 1.56 8.81 0.66 0.33 1.32 0.66 2 1-0.0157 0.884-0.0157 0.884-0.0317 1.78-0.0421 2.72-0.0677 5.43-0.0933 8.15-0.0168 0.926-0.0335 1.85-0.0508 2.81-0.0502 7.15 0.915 13.5 3.18 20.3-0.144-1.15-0.289-2.29-0.438-3.47-0.188-1.53-0.375-3.06-0.562-4.59-0.0954-0.752-0.191-1.5-0.289-2.28-1.47-12.2-1.47-12.2 0.289-17.7h3c-0.0116 0.736-0.0232 1.47-0.0352 2.23-0.00902 0.976-0.018 1.95-0.0273 2.96-0.0116 0.963-0.0232 1.93-0.0352 2.92 0.0928 2.75 0.477 5.22 1.1 7.89 0.144-1.05 0.289-2.1 0.438-3.19 0.97-6.57 0.97-6.57 1.56-8.81 2.72-1.36 4.99-1.06 8-1h2 3c0.66 2.64 1.32 5.28 2 8h2v-2h2v-2c2.61-2.54 4.13-3.92 7.81-4.25 0.722 0.0825 1.44 0.165 2.19 0.25 0.33-0.66 0.66-1.32 1-2v8c1.65-1.32 3.3-2.64 5-4 0.144 0.928 0.289 1.86 0.438 2.81 0.484 3.19 0.484 3.19 1.56 6.19-0.66 0.99-1.32 1.98-2 3 0.33 0.99 0.66 1.98 1 3 0.0387 1.67 0.045 3.33 0 5 3.15-1.68 3.15-1.68 3.94-4.44 1.21-2.92 2.43-3.9 5.06-5.56v7c3.07-0.776 3.07-0.776 5-3-0.399 3.39-1.07 5.09-3.06 7.94-2.18 3.45-2.38 5.07-1.94 9.06 0.33 0.99 0.66 1.98 1 3-1.24 0.804-1.24 0.804-2.5 1.62-2.84 2.17-2.84 2.17-2.75 5.56 0.0825 0.928 0.165 1.86 0.25 2.81l-1 1c-0.391 1.51-0.74 3.03-1.06 4.56-0.177 0.826-0.353 1.65-0.535 2.5-0.199 0.957-0.199 0.957-0.402 1.93-2-1-2-1-3-4-1.92 4.98-2.55 9.73-3 15-0.33-0.66-0.66-1.32-1-2h-2v-2h2v-10c-0.99-0.33-1.98-0.66-3-1-2.55 7.66-0.405 15 1.33 22.6 0.832 4.28 0.892 8.1 0.668 12.4-0.66-0.33-1.32-0.66-2-1v-4h-2c-0.169 2.88-0.058 4.85 1 7.56 1.49 5.11 1.15 10.1 1 15.4h-2v4h-2v-4h-3v4h-2v-4h-2c-1.3-2.61-1.13-4.59-1.12-7.5-0.00258-0.98-0.00516-1.96-0.00781-2.97 0.133-2.53 0.133-2.53 1.13-4.53h2c0.206-7.56 0.206-7.56-1-15 0.0206 1.3 0.0412 2.6 0.0625 3.94 0.0215 1.35 0.00898 2.71-0.0625 4.06l-1 1c-0.368 2.33-0.702 4.66-1 7-0.99 0.33-1.98 0.66-3 1v-2c-0.701 0.186-1.4 0.371-2.12 0.562-3.21 0.489-5.71 0.0998-8.88-0.562v3h-2c-0.33-2.97-0.66-5.94-1-9h-1c-1.18 4.22-1.18 8.33-1.2 12.7-0.00855 1.28-0.00855 1.28-0.0173 2.58-0.00944 1.8-0.016 3.61-0.0198 5.41-0.00962 2.72-0.0406 5.44-0.0723 8.16-0.0524 8.83 0.313 16.8 2.64 25.3 1.05 4.39 1 8.64 0.86 13.1-0.0203 1.27-0.0203 1.27-0.041 2.57-0.0346 2.04-0.0883 4.08-0.146 6.12-0.99-0.33-1.98-0.66-3-1-0.66-4.29-1.32-8.58-2-13v9h-2v2h2c-0.33 0.99-0.66 1.98-1 3 0.527 2.89 1.51 5.65 2.44 8.44 0.262 0.784 0.523 1.57 0.793 2.38 0.609 1.73 1.3 3.44 2.02 5.12 0.247 0.681 0.495 1.36 0.75 2.06-0.33 0.66-0.66 1.32-1 2 0.66-0.33 1.32-0.66 2-1v-2h2c0.495 1.98 0.495 1.98 1 4h3c-0.495-1.98-0.495-1.98-1-4h2c0.495 1.98 0.495 1.98 1 4 0.732-0.0116 1.46-0.0232 2.22-0.0352 11.9-0.0995 23.9 0.482 35.8 1.04v1c-5.88 1.28-11.7 1.15-17.7 1.12-1.15-0.00266-2.3-0.00532-3.49-0.00806-10.3-0.0538-20.6-0.28-30.9-0.554-0.786-0.0196-1.57-0.0391-2.38-0.0593-2.23-0.0569-4.46-0.121-6.69-0.187-1.29-0.0367-2.58-0.0733-3.91-0.111-2.9-0.205-2.9-0.205-3.9-1.21-0.0976-1.45-0.126-2.91-0.126-4.37-0.00391-1.42-0.00391-1.42-0.0079-2.88 0.00223-1.05 0.00446-2.11 0.00676-3.2-0.00156-1.11-0.00312-2.22-0.00473-3.37-0.00402-3.75-8.18e-4 -7.51 0.00232-11.3-0.00135-2.68-0.0031-5.36-0.00531-8.03-0.00446-6.54-0.00348-13.1-5.87e-4 -19.6 0.00225-5.31 0.00257-10.6 0.00148-15.9-1.53e-4 -0.754-3.06e-4 -1.51-4.64e-4 -2.29-3.2e-4 -1.53-6.44e-4 -3.06-9.73e-4 -4.6-0.00286-14.4 4.33e-4 -28.8 0.0058-43.2 0.00447-12.4 0.00369-24.7-9.19e-4 -37.1-0.00535-14.3-0.00746-28.7-0.00439-43 3.19e-4 -1.53 6.33e-4 -3.05 9.43e-4 -4.58 1.54e-4 -0.751 3.09e-4 -1.5 4.68e-4 -2.28 8.65e-4 -5.31-5.98e-4 -10.6-0.00295-15.9-0.0028-6.46-0.00206-12.9 0.00328-19.4 0.00264-3.3 0.00311-6.6 3.51e-4 -9.9-0.00271-3.57 6.66e-4 -7.14 0.00568-10.7-0.00223-1.05-0.00446-2.11-0.00676-3.2 0.00261-0.949 0.00522-1.9 0.0079-2.88 1.62e-4 -0.825 3.25e-4 -1.65 4.92e-4 -2.5 0.125-1.87 0.125-1.87 1.13-2.87z" fill="#D94A2B"/>
<path transform="translate(542 205)" d="m0 0c1.42-0.00128 1.42-0.00128 2.86-0.00259 3.16-0.00165 6.33 0.00386 9.49 0.00932 2.27 2.82e-4 4.53 1.24e-4 6.8-4.43e-4 6.16-2.87e-4 12.3 0.0056 18.5 0.0126 6.43 0.00625 12.9 0.00684 19.3 0.00803 10.8 0.00276 21.6 0.00901 32.4 0.0179 11.1 0.00918 22.2 0.0163 33.4 0.0205 0.686 2.63e-4 1.37 5.25e-4 2.08 7.96e-4 3.44 0.00131 6.88 0.00257 10.3 0.00381 28.5 0.0104 57.1 0.028 85.6 0.0503 0.33 0.99 0.66 1.98 1 3h-11v2h3v3h-3v2h3v3h3v2l-3 3c-0.33 0.99-0.66 1.98-1 3-3.12 0.914-3.12 0.914-7 1.62-4.33 0.461-4.33 0.461-8 2.38-2.33 0.345-4.67 0.678-7 1-0.99 0.33-1.98 0.66-3 1v2c-7.36 0.987-14.8 1.19-22.2 1.31-1.41 0.0445-1.41 0.0445-2.84 0.0898-5.62 0.0477-9.16-0.699-14-3.47-3.44-1.64-6.94-1.61-10.7-1.68-1.18-0.0445-1.18-0.0445-2.38-0.0898-5.45-0.188-10.9-0.192-16.3-0.125-2.27-0.0315-4.36-0.243-6.59-0.598-5.06-0.562-9.91-0.232-14.9 0.562-0.495 0.495-0.495 0.495-1 1-1.87 0.0212-3.75-0.0101-5.62-0.0625-7.61-0.0761-14.9 0.899-22.4 2.06v2h-7v-2c-1.67-0.217-1.67-0.217-3.38-0.438-3.62-0.562-3.62-0.562-5.62-1.56-1.56-0.0725-3.13-0.0837-4.69-0.0625-0.946 0.00773-1.89 0.0155-2.87 0.0234-1.98 0.0257-3.95 0.0517-5.93 0.0781-5.29 0.0429-10.3-0.131-15.6-1.02-2.45-0.0294-3.81 0.852-5.96 1.98-8.23-0.267-15.8-2.05-23-6-1.18-0.536-2.35-1.07-3.56-1.62-2.44-2.38-2.44-2.38-2.73-4.78 0.043-2.72 0.043-2.72 0.277-5.35 0.00516-0.74 0.0103-1.48 0.0156-2.24-0.66-0.66-1.32-1.32-2-2h2v-2c-0.99-0.33-1.98-0.66-3-1v-1c4.78-1.23 9.44-1.14 14.3-1.12z" fill="#D94E2D"/>
<path transform="translate(933 689)" d="m0 0c3.38 0.312 3.38 0.312 4.38 1.31 0.0953 2.98 0.126 5.94 0.114 8.93 1.46e-4 0.936 2.92e-4 1.87 4.43e-4 2.84-7e-4 3.11-0.00849 6.22-0.0163 9.33-0.00186 2.15-0.00329 4.3-0.00429 6.45-0.00383 5.67-0.0137 11.3-0.0247 17-0.0102 5.78-0.0148 11.6-0.0198 17.4-0.0107 11.4-0.0278 22.7-0.0488 34.1-6.62 0.125-6.62 0.125-10-1-0.33-1.98-0.66-3.96-1-6-0.773 0.482-1.55 0.964-2.34 1.46-10.8 6.54-19.6 9.3-32.2 6.48-8.23-2.44-14.6-7.98-19.5-14.9-5.27-10.1-6.37-19.2-3.1-30.1 4.13-10.8 10.5-17 20.9-21.7 8.98-3.35 17.4-2.96 26.2 0.812 1.8 1.16 3.58 2.37 5.32 3.62 0.882 0.632 1.76 1.26 2.67 1.92 0.663 0.483 1.33 0.966 2.01 1.46-0.0157-1.04-0.0314-2.08-0.0476-3.15-0.0544-3.86-0.0888-7.72-0.117-11.6-0.0151-1.67-0.0355-3.34-0.0615-5.01-0.0365-2.4-0.0534-4.81-0.0667-7.21-0.0155-0.745-0.031-1.49-0.0469-2.26-0.00102-3.16 0.161-5.45 1.63-8.27 1.71-1.52 1.71-1.52 5.33-1.83z" fill="#444"/>
<path transform="translate(230 832)" d="m0 0c2.12-0.00218 4.23-0.0204 6.34-0.0393 22.7-0.0991 22.7-0.0991 31.1 7.3 6.91 6.98 10 14.1 10.3 23.9-0.195 8.3-2.28 14.4-7.38 21h-2c-0.33 0.99-0.66 1.98-1 3-1.67 1.13-1.67 1.13-3.75 2.12-0.675 0.333-1.35 0.665-2.05 1.01-5.06 1.99-10.2 2.05-15.5 2.15-0.79 0.0184-1.58 0.0368-2.39 0.0558-3.37 0.0785-6.73 0.147-10.1 0.215-2.46 0.0516-4.92 0.109-7.38 0.167-0.767 0.0136-1.53 0.0272-2.32 0.0411-3.53-0.234-3.53-0.234-6.47 1.24-0.159 2.29-0.251 4.58-0.316 6.88-0.0208 0.687-0.0416 1.37-0.063 2.08-0.0656 2.2-0.124 4.4-0.183 6.6-0.0432 1.49-0.0868 2.98-0.131 4.47-0.107 3.66-0.209 7.31-0.307 11-1.48 0.0269-2.96 0.0463-4.44 0.0625-1.24 0.0174-1.24 0.0174-2.5 0.0352-2.07-0.0977-2.07-0.0977-3.07-1.1-0.106-2.76-0.147-5.49-0.145-8.25-0.00336-0.865-0.00672-1.73-0.0102-2.62-0.00954-2.87-0.0115-5.75-0.0125-8.62-0.00321-1.99-0.00657-3.98-0.0101-5.97-6e-3 -4.18-0.00784-8.35-0.00725-12.5 1.02e-4 -5.36-0.0136-10.7-0.0308-16.1-0.0111-4.11-0.0131-8.22-0.0126-12.3-0.00118-1.98-0.00563-3.95-0.0133-5.93-0.00975-2.76-0.00694-5.52-8.95e-4 -8.28-0.00562-0.823-0.0112-1.65-0.017-2.5 0.0316-5.66 0.0316-5.66 2.26-7.89 7.12-1.39 14.4-1.19 21.6-1.19z" fill="#444"/>
<path transform="translate(519 723)" d="m0 0c0.928 0.712 0.928 0.712 1.88 1.44v2c1.98 0.66 3.96 1.32 6 2-0.0412-0.949-0.0825-1.9-0.125-2.88 0.125-3.12 0.125-3.12 2.12-5.12 3.56-0.188 3.56-0.188 7 0 1 1 1 1 1.12 3.55-0.00222 1.13-0.00444 2.27-0.00673 3.44-1.13e-4 1.92-1.13e-4 1.92-2.29e-4 3.88-0.00511 1.41-0.0103 2.82-0.0156 4.23-0.00186 1.43-0.00329 2.87-0.00429 4.3-0.00382 3.78-0.0137 7.56-0.0247 11.3-0.0102 3.85-0.0148 7.71-0.0198 11.6-0.0107 7.57-0.0278 15.1-0.0488 22.7-4.46 0.883-6.88 1.06-11-1 0.33-1.65 0.66-3.3 1-5-0.678 0.398-1.36 0.797-2.05 1.21-8.59 4.89-16.9 8.83-26.9 7.79-1.17-0.104-1.17-0.104-2.37-0.211-9.69-1.36-17.1-7.24-23.2-14.7-4.84-7.21-6.08-16.6-5.04-25.1 2.04-9.72 6.39-18 14.4-24 12-7.63 24.8-7.73 37.4-1.44z" fill="#444"/>
<path transform="translate(212 692)" d="m0 0c3.31 0.0896 4.28 0.715 6.65 3.1 1.98 2.64 3.85 5.3 5.66 8.06 1.76 2.68 3.61 5.28 5.44 7.91 0.73 1.07 1.46 2.13 2.21 3.23 1.85 2.69 3.74 5.35 5.64 8.01 0.542 0.758 1.08 1.52 1.64 2.3 1.07 1.49 2.13 2.97 3.21 4.45 2.5 3.5 4.64 6.69 5.99 10.8 2.29 0.577 2.29 0.577 5 0 1.89-2.28 3.36-4.36 4.88-6.88 0.886-1.4 1.77-2.79 2.66-4.19 0.426-0.682 0.851-1.36 1.29-2.07 2.56-4.07 5.38-7.96 8.18-11.9 0.742-1.04 0.742-1.04 1.5-2.11 1.72-2.43 3.46-4.85 5.19-7.27 0.559-0.786 1.12-1.57 1.69-2.38 5.64-7.84 5.64-7.84 8.62-10.2 3.69-0.312 3.69-0.312 7 0 1.86 1.86 1.12 4.49 1.12 6.96-0.00539 1.29-0.00539 1.29-0.0109 2.6 1.46e-4 0.897 2.92e-4 1.79 4.43e-4 2.72-6.99e-4 2.98-0.00849 5.96-0.0163 8.94-0.00186 2.06-0.00329 4.12-0.00429 6.18-0.00383 5.44-0.0137 10.9-0.0247 16.3-0.0102 5.54-0.0148 11.1-0.0198 16.6-0.0107 10.9-0.0278 21.8-0.0488 32.7-4.6 0.177-6.78 0.108-11-2v-66h-3c-1.03 1.65-2.03 3.32-3 5h-2c-0.227 0.66-0.454 1.32-0.688 2-1.7 3.89-3.71 7.64-6.31 11h-2c-0.379 1.07-0.379 1.07-0.766 2.16-3.39 7.79-9.63 14.5-15.2 20.8-4.45-3.15-7.01-6.6-9.88-11.1-0.883-1.36-1.77-2.71-2.65-4.07-0.425-0.656-0.85-1.31-1.29-1.99-5.87-9.02-12.5-17.4-19.2-25.8-1.32 1.09-1.32 1.09-1.12 3.78 0.00222 1.24 0.00444 2.48 0.00673 3.76-1.46e-4 0.683-2.92e-4 1.37-4.43e-4 2.07 6.99e-4 2.27 0.00849 4.53 0.0163 6.8 0.00186 1.57 0.00329 3.14 0.00429 4.7 0.00383 4.13 0.0137 8.27 0.0247 12.4 0.0102 4.22 0.0148 8.43 0.0198 12.6 0.0107 8.28 0.0278 16.6 0.0488 24.8-1.65-0.308-3.29-0.621-4.94-0.938-0.917-0.174-1.83-0.348-2.78-0.527-2.29-0.535-2.29-0.535-3.29-1.54-0.106-2.76-0.147-5.49-0.145-8.25-0.00336-0.865-0.00672-1.73-0.0102-2.62-0.00954-2.87-0.0115-5.75-0.0125-8.62-0.00321-1.99-0.00657-3.98-0.0101-5.97-6e-3 -4.18-0.00784-8.35-0.00725-12.5 1.02e-4 -5.36-0.0136-10.7-0.0308-16.1-0.0111-4.11-0.0131-8.22-0.0126-12.3-0.00118-1.98-0.00563-3.95-0.0133-5.93-0.00975-2.76-0.00694-5.52-8.95e-4 -8.28-0.00562-0.823-0.0112-1.65-0.017-2.5 0.0312-5.57 0.076-7.35 5.82-8.76z" fill="#444"/>
<path transform="translate(521,583)" d="m0 0c6.69 4.29 10 10.9 13.4 17.9 1 5.01 0.773 10 0.625 15.1-2.49 1.24-4.22 1.16-7 1.21-1.56 0.0299-1.56 0.0299-3.15 0.0604-1.69 0.0251-1.69 0.0251-3.42 0.0506-1.15 0.0208-2.3 0.0416-3.49 0.063-3.69 0.0655-7.38 0.124-11.1 0.183-2.5 0.0432-4.99 0.0868-7.49 0.131-6.13 0.107-12.3 0.209-18.4 0.307-0.944 3.09-0.944 3.09-0.215 6.18 3.51 6.2 6.55 10.2 13.3 13.1 8.24 1.44 17 1.67 24.9-1.31 1.27-1.8 1.27-1.8 2-4 2.25-2.81 2.25-2.81 5-5 5.2 0.2 5.2 0.2 7 2 0.167 4.09-0.14 6.01-2.86 9.14-9.93 9.03-19.1 10.6-32.2 10-9.31-0.845-16.9-5.96-23.2-12.5-6.45-9.9-7.75-19.2-5.54-30.8 2.79-10.2 9.25-17.3 18.2-22.6 10.8-5.41 22.9-4.73 33.6 0.703z" fill="#444"/>
<path transform="translate(845 723)" d="m0 0c0.763 0.639 1.53 1.28 2.31 1.94v2c0.99 0.33 1.98 0.66 3 1 1.57 2.33 1.57 2.33 3.12 5.25 0.518 0.954 1.04 1.91 1.57 2.89 3.08 6.75 2.3 12.1 2.3 19.9-17.8 0.33-35.6 0.66-54 1-1.37 4.1-0.16 5.92 1.63 9.71 3.41 5.71 8.01 8.62 14.4 10.3 2.71 0.211 5.29 0.325 8 0.312 0.686 0.0161 1.37 0.0322 2.08 0.0488 4.73 0.00452 7.94-0.806 11.9-3.36 1.93-2.03 1.93-2.03 3.5-4.25 1.76-2.13 1.76-2.13 3.5-3.75 3.31-0.125 3.31-0.125 6 1 2 2 2 2 2 4.19-2.38 6.68-7.47 10.7-13.6 13.8-10.7 4.52-21.6 3.82-32.4 0-8.62-4.35-14.6-10.7-18.2-19.7-3.1-9.5-1.73-19.5 2.37-28.6 4.4-8.04 11.1-14.3 19.7-17.4 10.1-2.96 21.8-1.93 30.8 3.74z" fill="#444"/>
<path transform="translate(1229 297)" d="m0 0c0.875-0.016 1.75-0.032 2.65-0.0484 0.949-0.00536 1.9-0.0107 2.88-0.0163 0.977-0.00903 1.95-0.0181 2.96-0.0274 2.07-0.0145 4.15-0.0234 6.22-0.0271 3.15-0.0118 6.31-0.0609 9.46-0.112 2.02-0.00947 4.03-0.0167 6.05-0.0215 0.937-0.0195 1.87-0.0391 2.84-0.0592 6.49 0.0441 10.7 1.51 15.7 5.62 6.39 6.56 7.97 14.1 8 23-1.09 7.01-4.95 13.6-10.6 18-5.73 2.35-11.4 2.15-17.5 2.13-0.967 9.57e-4 -1.93 0.00191-2.93 0.0029-2.04 6.79e-4 -4.07-0.00116-6.11-0.00534-3.13-0.00538-6.26-3.33e-5 -9.39 0.00635-1.98-6.6e-4 -3.96-0.00194-5.94-0.00391-1.41 0.00304-1.41 0.00304-2.85 0.00613-1.3-0.00473-1.3-0.00473-2.62-0.00955-0.764-7.96e-4 -1.53-0.00159-2.32-0.00241-1.76-0.127-1.76-0.127-2.76-1.13-0.103-1.4-0.138-2.81-0.145-4.21-0.00638-0.894-0.0128-1.79-0.0193-2.71-0.00111-0.973-0.00223-1.95-0.00337-2.95-0.00333-0.993-0.00666-1.99-0.0101-3.01-0.00507-2.1-0.00741-4.21-0.00725-6.31-0.00219-3.23-0.0203-6.46-0.0393-9.69-0.00293-2.04-0.00492-4.08-0.00586-6.12-0.00719-0.971-0.0144-1.94-0.0218-2.94 0.00308-0.898 0.00615-1.8 0.00932-2.72-0.00143-0.792-0.00285-1.58-0.00432-2.4 0.517-4.06 2.97-4.2 6.48-4.25z" fill="#D84B2B"/>
<path transform="translate(572 865)" d="m0 0c7.03 8.74 9.98 17.3 10.1 28.6-1.68 1.68-3.77 1.17-6.07 1.21-1.08 0.0199-2.16 0.0399-3.28 0.0604-1.76 0.0251-1.76 0.0251-3.56 0.0506-1.2 0.0208-2.39 0.0416-3.63 0.063-3.84 0.0656-7.68 0.124-11.5 0.183-2.6 0.0432-5.19 0.0868-7.79 0.131-6.38 0.107-12.8 0.209-19.1 0.307-1.18 3.68-0.682 5.74 0.992 9.27 2.94 5.06 7.67 8.51 13 10.7 3.02 0.544 5.94 0.562 9 0.5 1.15 0.0232 1.15 0.0232 2.33 0.0469 6.41-0.0436 10.7-1.74 15.5-6.25 0.422-0.51 0.843-1.02 1.28-1.55 2.28-2.42 2.7-2.71 6.19-3.25 2.75 0.5 2.75 0.5 4.75 2.5-0.137 4.95-2.73 7.57-6 11h-2v2c-10.7 5.72-21.1 8.11-33.1 4.88-9.33-3.19-16.2-7.88-21-16.5-4.7-9.96-4.37-19.5-1.09-29.9 3.41-8.59 9.66-15.6 18.2-19.4 12.8-5.12 26.2-3.68 37 5.3z" fill="#444"/>
<path transform="translate(601,721)" d="m0 0c1.8 1.57 1.8 1.57 3.31 3.25 0.887 0.908 1.77 1.82 2.69 2.75 3.9-0.235 6.28-1.65 9.38-3.94 6.14-4.23 12.1-5.92 19.6-5.06 7.22 1.43 12.8 3.54 17.2 9.7 3.05 4.99 3.91 9.43 3.9 15.2-1.13e-4 1.41-1.13e-4 1.41-2.29e-4 2.85-0.00516 1-0.0103 2-0.0156 3.04-0.00141 1.04-0.00283 2.07-0.00429 3.14-0.00559 3.3-0.0181 6.6-0.0309 9.9-0.00502 2.24-0.00958 4.48-0.0137 6.72-0.011 5.49-0.0277 11-0.0488 16.5-1.48 0.0269-2.96 0.0463-4.44 0.0625-0.824 0.0116-1.65 0.0232-2.5 0.0352-2.07-0.0977-2.07-0.0977-3.07-1.1-0.123-3.01-0.186-6-0.211-9-0.0281-1.87-0.0568-3.75-0.0859-5.62-0.0411-2.96-0.078-5.92-0.104-8.88-0.0278-2.85-0.0737-5.71-0.122-8.56-0.00325-0.874-0.00651-1.75-0.00986-2.65-0.113-5.73-1.05-10.1-3.47-15.3-4.47-4.26-7.53-5.37-13.6-5.27-4.8 0.536-8.61 2.39-12 5.85-5.02 6.51-5.76 13.4-5.88 21.4-0.0194 0.834-0.0387 1.67-0.0587 2.53-0.0593 2.64-0.106 5.28-0.152 7.92-0.0382 1.8-0.0773 3.6-0.117 5.4-0.0956 4.39-0.18 8.78-0.258 13.2-1.48 0.0269-2.96 0.0463-4.44 0.0625-0.824 0.0116-1.65 0.0232-2.5 0.0352-2.07-0.0977-2.07-0.0977-3.07-1.1-0.136-2.95-0.211-5.87-0.246-8.82-0.033-1.83-0.0662-3.67-0.0996-5.5-0.0473-2.9-0.0916-5.79-0.131-8.69-0.0399-2.79-0.0915-5.58-0.144-8.37-0.00841-0.858-0.0168-1.72-0.0255-2.6-0.168-8.23-1.5-14-7.35-20-4.74-1.58-9.39-1.97-14.2-0.199-5.46 3.05-9.25 7.52-11.8 13.2-0.901 5.13-1.2 10.2-1.32 15.3-0.0208 0.767-0.0416 1.53-0.063 2.32-0.0648 2.42-0.124 4.85-0.183 7.27-0.0432 1.65-0.0869 3.31-0.131 4.96-0.106 4.03-0.208 8.07-0.307 12.1-1.48 0.0269-2.96 0.0463-4.44 0.0625-1.24 0.0174-1.24 0.0174-2.5 0.0352-2.07-0.0977-2.07-0.0977-3.07-1.1-0.16-1.67-0.252-3.34-0.316-5.02-0.0421-1.07-0.0841-2.14-0.127-3.25-0.0392-1.17-0.0783-2.34-0.119-3.54-0.0417-1.2-0.0835-2.39-0.126-3.63-0.285-8.94-0.416-17.9-0.436-26.8-0.00459-1.17-0.00918-2.34-0.0139-3.55 0.0275-15.1 0.0275-15.1 3.14-18.2 3.62-0.125 3.62-0.125 7 0 0.99 2.31 1.98 4.62 3 7 0.961-0.723 0.961-0.723 1.94-1.46 10.3-7.53 20-10 32.1-4.54z" fill="#444"/>
<path transform="translate(720,721)" d="m0 0c3 2.06 3 2.06 5 4v2c2.2 0.959 2.2 0.959 5 1 2.2-1.61 4.05-3.14 6-5 5.54-4.68 11.1-5.4 18.2-5.25 6.41 0.578 12.3 2.51 16.8 7.25 8.96 12 7.16 27.6 6.62 41.8-0.0584 1.77-0.116 3.54-0.172 5.31-0.138 4.29-0.292 8.58-0.453 12.9-1.48 0.0269-2.96 0.0463-4.44 0.0625-0.824 0.0116-1.65 0.0232-2.5 0.0352-2.07-0.0977-2.07-0.0977-3.07-1.1-0.136-2.95-0.211-5.87-0.246-8.82-0.033-1.83-0.0662-3.67-0.0996-5.5-0.0473-2.9-0.0916-5.79-0.131-8.69-0.0399-2.79-0.0915-5.58-0.144-8.37-0.00841-0.858-0.0168-1.72-0.0255-2.6-0.149-7.34-0.918-13.6-6.35-19-4.07-2.37-8.4-2.69-13-2-6.73 2.26-10.3 5.76-13.6 12.1-1.84 4.41-1.88 8.59-1.9 13.3-0.0234 1.31-0.0234 1.31-0.0472 2.65-0.0472 2.77-0.0752 5.55-0.101 8.32-0.0365 2.8-0.077 5.59-0.123 8.39-0.0273 1.73-0.0486 3.47-0.0635 5.21-0.0781 5.92-0.0781 5.92-1.19 7.03-1.53-0.0894-3.05-0.245-4.56-0.438-0.826-0.102-1.65-0.204-2.5-0.309-0.957-0.126-0.957-0.126-1.93-0.254-0.0146-1.23-0.0292-2.46-0.0442-3.73-0.0582-4.59-0.135-9.18-0.218-13.8-0.0331-1.98-0.0612-3.96-0.084-5.95-0.0338-2.86-0.0861-5.72-0.142-8.58-0.00639-0.877-0.0128-1.75-0.0194-2.66-0.166-7.06-1.27-12.8-6.05-18.2-3.74-3.17-6.2-3.45-11-3.43-3.57 0.533-5.95 2.18-8.83 4.27-1.63 1.09-1.63 1.09-3.63 1.09-0.433 1.11-0.433 1.11-0.875 2.25-1.12 2.75-1.12 2.75-2.19 4.69-2.34 5.15-2.13 11-2.25 16.5-0.0208 0.791-0.0416 1.58-0.063 2.4-0.065 2.51-0.124 5.01-0.183 7.52-0.0432 1.71-0.0869 3.41-0.131 5.12-0.107 4.17-0.208 8.34-0.307 12.5-1.48 0.0269-2.96 0.0463-4.44 0.0625-1.24 0.0174-1.24 0.0174-2.5 0.0352-2.07-0.0977-2.07-0.0977-3.07-1.1-0.104-1.92-0.139-3.85-0.145-5.77-0.00638-1.23-0.0128-2.47-0.0193-3.74-0.00153-1.36-0.00264-2.72-0.00337-4.07-0.00321-1.38-0.00657-2.77-0.0101-4.15-6e-3 -2.9-0.00784-5.81-0.00725-8.71 1.02e-4 -3.73-0.0135-7.45-0.0308-11.2-0.0111-2.86-0.0131-5.72-0.0126-8.58-0.00118-1.37-0.00562-2.75-0.0133-4.12-0.00976-1.92-0.00567-3.84-8.95e-4 -5.76-0.00143-1.09-0.00285-2.19-0.00432-3.32 0.247-2.59 0.247-2.59 2.25-4.59 3.62-0.125 3.62-0.125 7 0 0.66 2.31 1.32 4.62 2 7 2.71-1.6 5.31-3.23 7.88-5.06 8.46-5.25 17.4-5.34 26.1-0.938z" fill="#444"/>
<path transform="translate(209 554)" d="m0 0c5.98 0.119 5.98 0.119 7.09 1.23 0.108 1.92 0.146 3.85 0.158 5.77 0.0103 1.24 0.0205 2.47 0.0311 3.74 0.00344 0.665 0.00688 1.33 0.0104 2.02 0.0118 2.08 0.0312 4.16 0.0531 6.24 0.0616 5.92 0.115 11.8 0.149 17.8 0.0211 3.62 0.0565 7.24 0.101 10.9 0.0141 1.37 0.0229 2.75 0.0261 4.12 0.0251 9.78 0.292 18.1 7.47 25.5 8.16 6.87 16.7 6.63 27 6 3.06-0.671 5.16-1.58 8-3 1.36-0.588 1.36-0.588 2.75-1.19 4.59-3.7 6.3-9.14 7.25-14.8 0.102-2.07 0.155-4.15 0.174-6.23 0.0135-1.23 0.027-2.47 0.0409-3.74 0.00506-0.654 0.0101-1.31 0.0153-1.98 0.0165-2.06 0.0397-4.11 0.0649-6.17 0.0706-5.84 0.131-11.7 0.182-17.5 0.0317-3.58 0.073-7.16 0.12-10.7 0.016-1.36 0.0283-2.73 0.0369-4.09 0.0121-1.9 0.0373-3.8 0.0631-5.7 0.0103-1.08 0.0206-2.16 0.0312-3.28 0.272-2.56 0.272-2.56 2.27-4.56 2.71-0.328 5.25-0.131 8 0 1.74 1.74 1.13 4.11 1.13 6.48 0.00315 1.17 0.0063 2.34 0.00955 3.55-0.00304 1.92-0.00304 1.92-0.00613 3.88 9.57e-4 1.31 0.00191 2.62 0.0029 3.97 0.00148 2.78-6.78e-4 5.56-0.00534 8.34-0.00565 3.54-0.00245 7.09 0.00357 10.6 0.00452 3.4 0.00134 6.79-0.00113 10.2 0.00202 1.26 0.00405 2.53 0.00613 3.83-0.0368 14-0.959 24.6-10.9 35.1-9.57 8.46-21.1 8.59-33.3 8.15-10.1-0.683-18.6-6-25.5-13.2-5.41-6.88-6.65-14.7-6.68-23.3-0.00638-1.23-0.0128-2.47-0.0193-3.74-0.00111-1.32-0.00223-2.64-0.00337-4-0.00322-1.38-0.00658-2.75-0.0101-4.13-0.00597-2.87-0.00784-5.75-0.00725-8.62 1.02e-4 -3.69-0.0136-7.38-0.0308-11.1-0.0111-2.84-0.0131-5.68-0.0126-8.51-0.00118-1.36-0.00561-2.72-0.0133-4.08-0.00976-1.9-0.00567-3.79-8.95e-4 -5.69-0.00143-1.08-0.00285-2.16-0.00432-3.27 0.299-3.09 0.942-4.4 4.16-4.78z" fill="#444"/>
<path transform="translate(403,689)" d="m0 0c2.03 2.03 1.26 6.18 1.32 8.97 0.0208 0.798 0.0416 1.6 0.063 2.42 0.0656 2.56 0.124 5.12 0.183 7.67 0.0432 1.73 0.0868 3.46 0.131 5.19 0.107 4.25 0.209 8.5 0.307 12.7 3.6 0 4.76-0.936 7.75-2.88 7.21-4.43 14.1-6.39 22.5-4.66 6.35 1.82 11.2 4.86 15 10.4 4.4 8 5.06 17 4.95 25.9-0.00283 0.874-0.00566 1.75-0.00858 2.65-0.0111 2.75-0.0361 5.5-0.0617 8.25-0.01 1.88-0.0192 3.76-0.0273 5.64-0.0219 4.58-0.0563 9.15-0.0977 13.7-1.65 0.0269-3.29 0.0463-4.94 0.0625-0.917 0.0116-1.83 0.0232-2.78 0.0352-2.29-0.0977-2.29-0.0977-3.29-1.1-0.123-2.93-0.186-5.85-0.211-8.79-0.0281-1.83-0.0568-3.66-0.0859-5.49-0.0411-2.89-0.078-5.78-0.104-8.66-0.0278-2.78-0.0737-5.57-0.122-8.35-0.00325-0.852-0.00651-1.7-0.00986-2.58-0.141-6.96-1.34-12.6-5.9-18.1-3.99-3.21-8.05-3.49-13.1-3.39-5.74 0.761-10.6 3.17-14.4 7.56-3.05 4.47-5.15 8.29-5.28 13.8-0.0199 0.801-0.0399 1.6-0.0604 2.43-0.0251 1.29-0.0251 1.29-0.0506 2.6-0.0208 0.884-0.0416 1.77-0.063 2.68-0.0654 2.82-0.124 5.64-0.183 8.47-0.0432 1.91-0.0868 3.83-0.131 5.74-0.107 4.69-0.208 9.38-0.307 14.1-1.26 0.0206-2.52 0.0412-3.81 0.0625-0.708 0.0116-1.42 0.0232-2.14 0.0352-2.04-0.0977-2.04-0.0977-5.04-1.1-0.0694-12.1-0.123-24.1-0.155-36.2-0.0157-5.61-0.0369-11.2-0.0709-16.8-0.0325-5.41-0.0505-10.8-0.0583-16.2-0.00555-2.07-0.0164-4.13-0.0326-6.2-0.0217-2.89-0.0248-5.77-0.0234-8.66-0.0108-0.859-0.0216-1.72-0.0327-2.6 0.0305-5.82 0.0305-5.82 1.67-8 2.75-2.06 5.4-1.52 8.7-1.27z" fill="#444"/>
<path transform="translate(985,693)" d="m0 0h9c0.415 1.04 0.83 2.08 1.26 3.14 0.289 0.722 0.578 1.44 0.875 2.19 0.679 1.7 1.36 3.4 2.04 5.09 2.11 5.28 4.22 10.6 6.34 15.8 0.903 2.25 1.8 4.5 2.71 6.76 1.23 3.07 2.46 6.14 3.7 9.21 2.53 6.3 5.05 12.6 7.4 19 0.316 0.849 0.633 1.7 0.959 2.57 0.545 1.48 1.08 2.96 1.6 4.45 1.3 3.63 1.3 3.63 4.22 5.98 0.946 0.405 0.946 0.405 1.91 0.819 2.75-6.86 5.5-13.7 8.24-20.6 1.28-3.19 2.55-6.38 3.83-9.56 0.991-2.47 1.98-4.94 2.97-7.42 0.971-2.42 1.94-4.85 2.91-7.27 2.12-5.28 4.21-10.6 6.21-15.9 0.319-0.845 0.638-1.69 0.967-2.56 0.573-1.53 1.14-3.05 1.69-4.59 1.34-3.56 1.91-4.95 5.17-7.12 2.33-0.0791 4.67-0.088 7 0 1.4 4.57 0.482 7.34-1.19 11.8-0.427 1.15-0.853 2.3-1.29 3.48-1.37 3.47-2.89 6.86-4.41 10.3-2.16 4.9-4.15 9.86-6.17 14.8-0.474 1.16-0.948 2.33-1.44 3.52-2.54 6.25-5.04 12.5-7.49 18.8-0.243 0.624-0.487 1.25-0.737 1.89-1.17 3-2.33 6-3.48 9-2.59 6.69-5.45 13.1-8.79 19.5-7.98 0.65-7.98 0.65-11.8-1.75-3.3-4.76-5.17-9.87-7.25-15.2-0.838-2.04-1.69-4.07-2.54-6.1-2.51-6.01-4.91-12-7.15-18.2-3.84-10.5-8.22-20.7-12.5-31-0.475-1.15-0.949-2.3-1.44-3.49-0.873-2.09-1.77-4.17-2.69-6.24-0.384-0.88-0.769-1.76-1.17-2.67-0.341-0.754-0.683-1.51-1.03-2.29-0.473-2.08-0.473-2.08 1.53-6.08z" fill="#444"/>
<path transform="translate(676 828)" d="m0 0c3.44 0.188 3.44 0.188 4.44 1.19 0.16 2.81 0.26 5.6 0.316 8.41 0.0208 0.842 0.0416 1.68 0.063 2.55 0.0656 2.7 0.124 5.4 0.183 8.1 0.0432 1.83 0.0868 3.65 0.131 5.48 0.107 4.49 0.209 8.97 0.307 13.5 2.73-1.62 5.38-3.26 8-5.06 6.67-4.3 13.8-5.65 21.7-4.57 6.37 1.6 11.1 4.58 15.3 9.64 3.23 5.55 5.13 11.2 5.11 17.6-7.55e-5 0.901-1.51e-4 1.8-2.29e-4 2.73-0.00516 0.964-0.0103 1.93-0.0156 2.92-0.00141 0.993-0.00283 1.99-0.00429 3.01-0.00559 3.17-0.0181 6.34-0.0309 9.51-0.00502 2.15-0.00958 4.3-0.0137 6.45-0.011 5.27-0.0278 10.5-0.0488 15.8-1.48 0.0269-2.96 0.0463-4.44 0.0625-0.824 0.0116-1.65 0.0232-2.5 0.0352-2.07-0.0977-2.07-0.0977-3.07-1.1-0.136-2.62-0.211-5.22-0.246-7.84-0.033-1.64-0.0662-3.27-0.0996-4.91-0.0471-2.58-0.0914-5.16-0.131-7.74 0.556-17.4 0.556-17.4-6.52-32.5-5.27-2.93-10.7-3.56-16.6-2.7-6.8 1.95-11 6.79-14.5 12.7-2.23 4.97-2.11 10.3-2.23 15.6-0.0208 0.814-0.0416 1.63-0.063 2.47-0.0651 2.59-0.124 5.18-0.183 7.76-0.0432 1.76-0.0868 3.52-0.131 5.28-0.107 4.3-0.208 8.61-0.307 12.9-1.48 0.0269-2.96 0.0463-4.44 0.0625-1.24 0.0174-1.24 0.0174-2.5 0.0352-2.07-0.0977-2.07-0.0977-3.07-1.1-0.106-2.91-0.147-5.8-0.145-8.71-0.00336-0.914-0.00672-1.83-0.0102-2.77-0.00954-3.04-0.0115-6.07-0.0125-9.11-0.00321-2.1-0.00657-4.2-0.0101-6.3-6e-3 -4.41-0.00784-8.82-0.00725-13.2 1.02e-4 -5.66-0.0136-11.3-0.0308-17-0.0111-4.34-0.0131-8.68-0.0126-13-0.00118-2.09-0.00563-4.18-0.0133-6.27-0.00975-2.92-0.00694-5.83-8.95e-4 -8.75-0.00562-0.87-0.0112-1.74-0.017-2.64 0.0428-8.09 0.0428-8.09 5.82-8.39z" fill="#444"/>
<path transform="translate(954,347)" d="m0 0c0.83 0.0696 1.66 0.139 2.52 0.211 7.71 1.06 12 4.57 16.9 10.5 4.14 6.53 3.34 14.9 2.62 22.3-1.27 5.6-3.96 8.23-8.62 11.4-7.86 4.79-16.3 4.67-25.4 3.56-5.82-2.03-10.9-5.58-14-11-3.07-7.32-3.8-13.5-1.31-21.1 2.98-6.92 8.3-11.2 14.8-14.8 4.4-1.31 8.01-1.46 12.6-1.06z" fill="#D84B2B"/>
<path transform="translate(333,871)" d="m0 0c7.89 7.93 9.37 14 9.46 24.7-0.109 5.91-0.819 10-4.74 14.7-7.13 6.64-13.8 7.02-23.2 6.94-7.05-0.689-12.6-4.54-17.3-9.69-4.33-5.87-5.08-12.5-4.22-19.7 2.86-8.58 7.43-14.2 15-19 8.2-3.84 17.4-2.8 25 2z" fill="#FCFDFD"/>
<path transform="translate(355 729)" d="m0 0c5.65 3.42 11.4 9.19 13.6 15.6 1.48 8.51 1.29 16.6-3.14 24.1-3.55 4.94-7.41 7.59-13.4 8.78-3.4 0.456-6.66 0.561-10.1 0.277-1.08-0.0851-1.08-0.0851-2.19-0.172-6.88-1-11.2-4.74-15.8-9.83-4.45-6.59-4.96-13.2-4-21 2.57-7.69 5.85-13.1 13-17 6.54-3.1 15.2-3.45 22-0.812z" fill="#FCFDFD"/>
<path transform="translate(513 730)" d="m0 0c6.51 3.89 11.6 10.2 13.6 17.5 0.742 8.76 0.485 16.3-5.31 23.2-4.57 4.9-8.71 7.45-15.4 7.95-7.85 0.122-13.2-0.656-20-4.89-5.84-5.84-8.41-11.7-8.69-19.9 0.0909-7.47 2.25-13 7.31-18.5 7.82-7.18 18.3-9.88 28.4-5.39z" fill="#FCFDFD"/>
<path transform="translate(903 728)" d="m0 0c1.76-0.0116 1.76-0.0116 3.56-0.0234 3.73 0.433 6.2 1.53 9.44 3.4v2c0.594 0.24 1.19 0.48 1.8 0.727 2.65 1.53 3.73 3.09 5.39 5.65 0.764 1.16 0.764 1.16 1.54 2.34 3.6 6.48 3.15 15 1.33 22-2.31 6.16-7.68 10.6-13.5 13.5-6.24 1.91-13.2 1.47-19.4-0.266-6.17-3.75-13.1-8.69-15.2-15.9-1.15-8.97-0.429-16.6 5-24 5.56-6.09 11.6-9.43 20-9.38z" fill="#FCFDFD"/>
<path transform="translate(229 842)" d="m0 0c0.734 0.00218 1.47 0.00435 2.22 0.00659 2.21 0.00313 4.42-0.0202 6.64-0.0457 15.8-0.0746 15.8-0.0746 22.2 5.19 4.95 6 7.27 10.9 7.07 18.8-0.712 5.34-2.92 9.73-6.38 13.8-8.69 4.62-19.4 3.87-29 3.81-1.98 0.0116-1.98 0.0116-3.99 0.0234-1.25-0.00258-2.5-0.00516-3.79-0.00781-1.13-0.00226-2.27-0.00451-3.44-0.00684-2.71-0.259-2.71-0.259-4.71-2.26-0.2-2.77-0.28-5.44-0.266-8.22-0.00191-0.814-0.00383-1.63-0.0058-2.47-0.00136-1.72 0.00234-3.44 0.0107-5.16 0.0107-2.64 1.05e-4 -5.28-0.0127-7.92 0.00132-1.67 0.00388-3.34 0.00781-5.01-0.00405-0.793-0.0081-1.59-0.0123-2.4 0.083-9.66 5.38-8.11 13.4-8.14z" fill="#FCFDFD"/>
<path transform="translate(341 864)" d="m0 0c7.38 6.82 11.3 16.6 12 26.4 0.284 9.6-0.899 17.1-7.25 24.5-7.31 7.74-14.2 11.5-25.1 12.2-9.52 0.265-16.9-2.03-24.9-7.12-0.887-0.557-1.77-1.11-2.69-1.69-6.59-6.59-10.3-14.8-10.6-24.1 0.222-10.6 3.59-19.3 11-27 13.9-12.5 31.7-13.2 47.5-3.25zm-43.2 13c-4.75 6.56-5.81 13.1-5 21 2.14 8.4 7.56 13.4 14.8 17.7 3.63 1.51 6.26 1.69 10.2 1.64 1.76-0.0058 1.76-0.0058 3.56-0.0117 6.06-0.53 10.7-2.48 15.4-6.3 4.63-5.6 5.77-10.4 5.56-17.6 0.0164-1.22 0.0164-1.22 0.0332-2.46-0.0703-5.81-1.35-9.17-4.6-14-0.701-1.05-1.4-2.1-2.12-3.19-3.88-4.44-9.53-6.32-15.2-7.16-9.46-0.376-16.3 3.51-22.6 10.3z" fill="#444"/>
<path transform="translate(367,725)" d="m0 0c6.57 5.64 11.3 12.4 12.2 21.1 0.78 11.8 0.182 21.6-7.41 31.2-7.31 7.7-16.4 10.6-26.8 10.9-1.33-0.0534-2.67-0.138-4-0.25-1.14-0.0851-1.14-0.0851-2.3-0.172-8.52-1.14-16.1-5.64-21.7-12.1-4.71-6.83-7.52-13.4-7.32-21.8-0.00322-0.681-0.00645-1.36-0.00977-2.06 0.103-9.75 4.84-17.8 11.3-24.9 13.3-11.4 31.7-11.8 46-2zm-39.7 9.12c-5.58 6.94-8.09 13.1-7.67 22.1 0.989 7.69 5.22 12.6 10.6 18 5.72 3.64 13.1 4.58 19.8 3.75 6.4-1.47 11.5-3.48 15.4-8.99 4.43-7.55 4.98-15.7 3.11-24.2-2.14-5.64-6.31-11.2-11.1-14.8-10.5-4.69-21.3-2.86-30.1 4.06z" fill="#444"/>
<path transform="translate(347 582)" d="m0 0c6.14 3.84 9.39 9.53 11.9 16.2 1.02 5.59 1.13 11 1.1 16.7-0.00141 0.9-0.00283 1.8-0.00429 2.73-0.00556 2.85-0.0181 5.7-0.0309 8.56-0.00502 1.94-0.00958 3.89-0.0137 5.83-0.011 4.74-0.0282 9.49-0.0488 14.2-1.65 0.0269-3.29 0.0463-4.94 0.0625-0.917 0.0116-1.83 0.0232-2.78 0.0352-2.29-0.0977-2.29-0.0977-3.29-1.1-0.0987-3.07-0.137-6.12-0.141-9.19-0.0183-1.92-0.0379-3.83-0.0586-5.75-0.0289-3.02-0.0508-6.05-0.0513-9.07-0.00336-2.92-0.0381-5.83-0.0776-8.75 0.00707-0.891 0.0141-1.78 0.0214-2.7-0.125-6.54-1.87-11.2-5.69-16.6-3.75-3.24-8.1-4.16-13-4-4.97 1.06-9.08 2.71-13 6h-2c-0.268 0.681-0.536 1.36-0.812 2.06-1.19 2.94-1.19 2.94-2.73 6.05-1.86 4.34-1.93 8.44-1.97 13.1-0.018 0.856-0.0359 1.71-0.0544 2.59-0.0538 2.71-0.0879 5.42-0.121 8.13-0.0332 1.85-0.0677 3.69-0.104 5.54-0.0846 4.51-0.152 9.01-0.209 13.5-1.65 0.0269-3.29 0.0463-4.94 0.0625-0.917 0.0116-1.83 0.0232-2.78 0.0352-2.29-0.0977-2.29-0.0977-3.29-1.1-0.11-1.92-0.149-3.84-0.161-5.76-0.00961-1.23-0.0192-2.46-0.0291-3.73-0.00485-1.36-0.00913-2.71-0.0129-4.07-0.00575-1.38-0.0115-2.76-0.0173-4.14-0.0105-2.9-0.0164-5.8-0.0198-8.7-0.00548-3.72-0.0295-7.44-0.058-11.2-0.0186-2.86-0.0238-5.71-0.0254-8.56-0.00303-1.37-0.0111-2.74-0.0242-4.11-0.017-1.92-0.0133-3.84-0.00869-5.75-0.00365-1.09-0.00729-2.18-0.011-3.31 0.367-2.71 0.367-2.71 1.66-4.57 2.76-1.84 5.5-1.32 8.71-1.14 0.99 2.64 1.98 5.28 3 8 0.724-0.482 1.45-0.964 2.2-1.46 0.967-0.632 1.93-1.26 2.93-1.91 0.951-0.626 1.9-1.25 2.88-1.9 8.81-5.08 19-5.64 28.1-0.91z" fill="#444"/>
<path transform="translate(799 862)" d="m0 0c5.3 4.59 8.68 10.5 9.81 17.4 0.0817 1.6 0.118 3.19 0.114 4.79-7.55e-5 0.921-1.51e-4 1.84-2.29e-4 2.79-0.00516 0.98-0.0103 1.96-0.0156 2.97-0.00141 1.01-0.00283 2.03-0.00429 3.07-0.00559 3.23-0.0181 6.46-0.0309 9.69-0.00502 2.19-0.00958 4.39-0.0137 6.58-0.011 5.37-0.0277 10.7-0.0488 16.1-1.48 0.0269-2.96 0.0463-4.44 0.0625-0.824 0.0116-1.65 0.0232-2.5 0.0352-2.07-0.0977-2.07-0.0977-3.07-1.1-0.136-2.78-0.211-5.53-0.246-8.31-0.033-1.73-0.0662-3.47-0.0996-5.2-0.0472-2.73-0.0915-5.47-0.131-8.2-0.0401-2.64-0.0916-5.27-0.144-7.91-0.00841-0.803-0.0168-1.61-0.0255-2.43-0.142-6.64-0.465-13.9-4.54-19.4-3.79-3.45-6.85-4.53-12-4.59-6.46 0.434-12.1 2.08-16.6 6.94-7.35 10.1-6.62 22.3-6.86 34.2-0.0383 1.54-0.0773 3.09-0.117 4.63-0.095 3.75-0.179 7.49-0.258 11.2-1.48 0.0269-2.96 0.0463-4.44 0.0625-1.24 0.0174-1.24 0.0174-2.5 0.0352-2.07-0.0977-2.07-0.0977-3.07-1.1-0.105-1.95-0.139-3.91-0.145-5.86-0.00638-1.25-0.0128-2.51-0.0193-3.8-0.00153-1.38-0.00264-2.76-0.00337-4.14-0.00321-1.41-0.00657-2.81-0.0101-4.22-6e-3 -2.95-0.00784-5.9-0.00725-8.85 1.02e-4 -3.79-0.0136-7.58-0.0308-11.4-0.0111-2.91-0.0131-5.81-0.0126-8.72-0.00118-1.4-0.00562-2.79-0.0133-4.19-0.00976-1.95-0.00567-3.9-8.95e-4 -5.85-0.00143-1.11-0.00285-2.22-0.00432-3.37 0.247-2.63 0.247-2.63 2.25-4.63 3.62-0.125 3.62-0.125 7 0 2 5.75 2 5.75 2 8 0.929-0.554 1.86-1.11 2.82-1.68 1.25-0.732 2.5-1.46 3.75-2.2 0.914-0.547 0.914-0.547 1.85-1.11 11.1-6.47 20.5-5.98 31.8-0.457z" fill="#444"/>
<path transform="translate(390,859)" d="m0 0h8c5.85 12.1 11.7 24.1 17.2 36.4 0.374 0.83 0.747 1.66 1.13 2.52 1.35 3.02 2.63 5.97 3.68 9.11 2.5 1.22 2.5 1.22 5 2 0.179-1.07 0.179-1.07 0.361-2.17 0.661-2.93 1.63-5.38 2.86-8.12 0.453-1.02 0.905-2.03 1.37-3.08 0.485-1.08 0.969-2.15 1.47-3.26 3.97-8.88 7.85-17.8 11.5-26.8 2.25-5.47 2.25-5.47 4.46-6.58 2.33-0.0402 4.67-0.0432 7 0 1.57 3.57 0.484 6.14-0.85 9.65-0.277 0.694-0.553 1.39-0.838 2.1-0.257 0.678-0.514 1.36-0.779 2.05-1.62 4.19-3.48 8.19-5.52 12.2-1.72 3.43-3.27 6.94-4.82 10.5-0.348 0.784-0.695 1.57-1.05 2.37-2.23 5.05-4.37 10.1-6.45 15.3-3.02 7.43-6.21 14.8-9.44 22.1-0.708 1.61-0.708 1.61-1.43 3.26-2.17 4.91-4.35 9.79-6.82 14.6h-9c-1.26-3.78-0.551-4.56 1.12-8.08 0.459-0.996 0.918-1.99 1.39-3.02 0.984-2.09 1.97-4.17 2.97-6.26 3.53-7.55 3.53-7.55 2.52-15.6-1.11-2.55-2.25-4.93-3.56-7.38-0.731-1.41-1.46-2.82-2.19-4.24-0.561-1.08-0.561-1.08-1.13-2.19-1.81-3.55-3.5-7.15-5.18-10.8-0.329-0.704-0.658-1.41-0.997-2.13-0.657-1.41-1.31-2.82-1.97-4.22-1.27-2.72-2.54-5.44-3.82-8.15-0.873-1.87-1.74-3.74-2.6-5.6-0.957-2.05-1.93-4.09-2.95-6.12-0.385-0.79-0.771-1.58-1.17-2.39-0.331-0.654-0.663-1.31-1-1.98-0.434-1.83-0.434-1.83 0.477-4.07 0.36-0.581 0.719-1.16 1.09-1.76z" fill="#444"/>
<path transform="translate(739 580)" d="m0 0c1.24 0.0174 1.24 0.0174 2.5 0.0352 0.826 0.00902 1.65 0.018 2.5 0.0273 0.638 0.0116 1.28 0.0232 1.93 0.0352 0.619 1.37 0.619 1.37 1.25 2.78 1.57 3.48 3.14 6.96 4.72 10.4 0.674 1.49 1.35 2.98 2.02 4.47 4.76 10.6 9.75 21 15 31.3h3c0.352-0.815 0.704-1.63 1.07-2.47 3.13-7.24 6.27-14.5 9.41-21.7 1.3-2.99 2.6-5.99 3.89-8.98 1.1-2.55 2.21-5.1 3.32-7.64 0.314-0.733 0.628-1.47 0.951-2.22 2.13-4.85 2.13-4.85 4.36-5.97 3.06-0.125 3.06-0.125 6 0 1 1 1 1 1.26 3.59-0.316 4.11-1.7 7.24-3.45 10.9-0.739 1.6-1.48 3.21-2.21 4.81-0.412 0.895-0.824 1.79-1.25 2.71-2.63 5.79-5.14 11.6-7.67 17.5-0.56 1.29-1.12 2.59-1.68 3.88-4.16 9.62-8.25 19.3-12.3 28.9-3.08 7.3-6.27 14.5-9.7 21.7h-9c-1.08-4.33-0.981-4.78 0.871-8.52 0.409-0.858 0.819-1.72 1.24-2.6 0.879-1.78 1.76-3.57 2.64-5.35 2.39-5.02 4.19-8.86 3.25-14.5-1.36-3.61-3.06-7-4.81-10.4-1.01-2.04-2.02-4.08-3.02-6.12-0.522-1.05-1.04-2.11-1.58-3.19-3.09-6.33-5.97-12.8-8.88-19.2-1.92-4.21-3.85-8.4-5.97-12.5-1.86-3.81-2.48-6.37-2.73-10.6 1-1 1-1 3.07-1.1z" fill="#444"/>
<path transform="translate(633 582)" d="m0 0c4.02 2.44 7.58 5.34 9.68 9.62-0.332 2.75-0.332 2.75-1 5-2.78 0.946-4.15 1.4-7 1-2.59-1.84-4.74-3.87-6.98-6.12-4.03-3.76-8.84-3.21-14.1-3.17-4.21 0.406-5.91 1.4-8.96 4.29-1.61 2.24-2.02 3.32-1.94 6.06 1.65 3.41 5.04 4.61 8.49 5.86 0.886 0.252 1.77 0.504 2.69 0.764 1.48 0.432 1.48 0.432 2.99 0.873 2.05 0.584 4.09 1.17 6.14 1.75 9.38 2.74 16.7 5.16 21.9 13.9 1.39 5.7 0.619 11-2.06 16.2-5.52 6.44-11.2 9.19-19.6 9.91-11.6 0.278-20.5-1.91-29.7-9.29-2.58-2.71-4.87-5.13-5-9 1.54-2.45 3.09-3.04 5.75-4.19 3.25 0.188 3.25 0.188 4.91 1.77 1.17 1.44 2.34 2.89 3.51 4.33 3.81 4.35 7.52 5.85 13.2 6.42 6.41 0.168 11 0.0555 16.6-3.34 1.57-3.14 1.23-6.56 1-10-0.33-0.99-0.66-1.98-1-3-2.66-1.14-2.66-1.14-6-2-1.32-0.382-2.64-0.765-3.95-1.15-0.697-0.198-1.39-0.397-2.11-0.601-21.2-6.08-21.2-6.08-27.9-13.3-1.73-3.46-1.35-7.21-1-11 2.06-5.96 5.8-9.22 11.2-12.2 10.1-4.66 20.2-4.09 30.2 0.574z" fill="#444"/>
<path transform="translate(901 860)" d="m0 0c1.26 0.895 2.49 1.83 3.69 2.81 0.567 0.384 1.13 0.768 1.72 1.16 4.13 2.98 6.81 6.99 8.28 11.8-0.495 1.49-0.495 1.49-1 3-4.91 1.49-4.91 1.49-8 1-2.33-2.06-4.13-4.34-6.07-6.76-3.21-3.73-6.49-4.96-11.3-5.51-7.1-0.293-12.8 0.915-18.3 5.52-6.4 7.61-8.77 12.5-8.65 22.6 0.639 6.04 2.95 10.9 7.34 15.1 7.51 5.83 14.8 5.6 24 5.08 5.52-1.01 8.24-4.26 11.6-8.47 1.41-1.53 1.41-1.53 4.03-2.59 2.65 0.0698 4.14 0.657 6.38 2.06-0.568 6.11-2.81 8.99-7.25 13.1-8.76 6.17-17.1 7.73-27.8 6.94-10.6-1.99-18.8-7.17-25-16-4.76-8.64-6.45-17.2-3.88-26.9 3.25-9.78 8.17-16.6 16.9-22.1 0.63-0.434 1.26-0.869 1.91-1.32 8.31-4.74 23-5.04 31.4-0.496z" fill="#444"/>
<path transform="translate(648 864)" d="m0 0c4.12 4.12 7.64 8.19 8.19 14.2-2.63 1.79-4.2 2-7.44 2.06-4.34-1.3-4.95-2.63-7.28-6.27-2.2-3.06-4.76-4.71-8.29-5.79-8.86-1.06-14.8 0.138-22.1 5.12-4.8 4.39-7.49 8.98-8.36 15.5-0.284 7.87 0.175 14.3 5.48 20.4 7.14 6.54 13.5 7.61 23 7.41 5.47-0.352 9.18-2.59 13-6.41 0.742-0.949 1.49-1.9 2.25-2.88 1.75-2.12 1.75-2.12 4.38-2.56 2.38 0.438 2.38 0.438 4.38 2.44 0.345 4.05 0.302 5.55-2 9h-2c-0.255 0.606-0.51 1.21-0.773 1.84-2.67 4.71-8 6.73-12.9 8.48-10.8 2.19-21.1 1.08-30.6-4.7-7.82-5.56-13.2-12.6-15.3-22.1-1.46-10.8 1.67-20.4 7.54-29.6 12.5-14.6 33-16.4 48.8-6.19z" fill="#444"/>
<path transform="translate(485,836)" d="m0 0c1.65 1.65 1.23 3.64 1.32 5.91 0.0419 0.989 0.0838 1.98 0.127 3 0.0393 1.04 0.0786 2.08 0.119 3.15 0.0432 1.04 0.0864 2.09 0.131 3.17 0.106 2.59 0.208 5.18 0.307 7.77 0.601-0.00524 1.2-0.0105 1.82-0.0159 2.71-0.0207 5.41-0.0338 8.12-0.0466 0.946-0.00838 1.89-0.0168 2.87-0.0254 1.35-0.00483 1.35-0.00483 2.72-0.00977 1.25-0.00786 1.25-0.00786 2.52-0.0159 1.95 0.114 1.95 0.114 2.95 1.11 0.0718 1.52 0.0839 3.04 0.0625 4.56-0.00902 0.826-0.018 1.65-0.0273 2.5-0.0116 0.638-0.0232 1.28-0.0352 1.93-0.601-0.00524-1.2-0.0105-1.82-0.0159-2.71-0.0207-5.41-0.0338-8.12-0.0466-1.42-0.0126-1.42-0.0126-2.87-0.0254-0.899-0.00322-1.8-0.00645-2.72-0.00977-1.25-0.00786-1.25-0.00786-2.52-0.0159-1.95-0.103-1.95-0.103-2.95 1.11-0.293 5.63-0.314 11.3-0.35 16.9-0.0165 1.9-0.0438 3.8-0.082 5.7-0.0548 2.74-0.0767 5.47-0.0913 8.21-0.0227 0.846-0.0453 1.69-0.0687 2.56 0.0155 4.35 0.192 6.11 2.9 9.68 3.53 2.56 5.69 2.47 10 2.27 1.88-0.0677 1.88-0.0677 3.8-0.137 0.953-0.058 1.91-0.116 2.89-0.176 1.75 3.22 2.2 5.32 2 9-6.28 2.93-13.5 3.01-20.2 1.5-4.72-1.83-8.32-5.05-10.9-9.38-0.98-2.35-1.15-4.06-1.19-6.6-0.0166-0.877-0.0333-1.75-0.0504-2.66-0.00841-0.939-0.0168-1.88-0.0255-2.84-0.017-0.969-0.034-1.94-0.0515-2.94-0.0531-3.09-0.0934-6.18-0.132-9.27-0.0439-3.1-0.0905-6.2-0.143-9.3-0.032-1.93-0.0589-3.86-0.0802-5.79-0.0135-0.868-0.027-1.74-0.0409-2.63-0.0143-1.15-0.0143-1.15-0.0288-2.33 0.0445-1.79 0.0445-1.79-1.14-2.76-1.83-0.208-3.66-0.367-5.5-0.5-5.39-0.389-5.39-0.389-6.5-1.5-0.188-2.94-0.188-2.94 0-6 2-2 2-2 4.6-2.2 0.998 0.0232 2 0.0464 3.02 0.0703 1.5 0.0271 1.5 0.0271 3.04 0.0547 0.771 0.0232 1.54 0.0464 2.34 0.0703-0.0157-0.59-0.0314-1.18-0.0476-1.79-0.0624-2.67-0.101-5.35-0.14-8.02-0.0251-0.929-0.0503-1.86-0.0762-2.81-0.0145-1.34-0.0145-1.34-0.0293-2.71-0.0157-0.822-0.0314-1.64-0.0476-2.49 0.341-2.18 0.341-2.18 1.63-3.95 2.77-1.98 5.42-1.47 8.71-1.22z" fill="#444"/>
<path transform="translate(700 558)" d="m0 0c3.44 0.188 3.44 0.188 4.44 1.19 0.157 1.49 0.251 2.98 0.316 4.47 0.0419 0.899 0.0838 1.8 0.127 2.72 0.0393 0.946 0.0786 1.89 0.119 2.87 0.0432 0.949 0.0864 1.9 0.131 2.88 0.106 2.35 0.208 4.71 0.307 7.06 0.601 0.0251 1.2 0.0501 1.82 0.0759 2.71 0.116 5.41 0.239 8.12 0.362 0.946 0.0393 1.89 0.0786 2.87 0.119 0.899 0.0419 1.8 0.0838 2.72 0.127 0.833 0.0367 1.67 0.0733 2.52 0.111 1.95 0.205 1.95 0.205 2.95 1.21 0.0718 1.52 0.0839 3.04 0.0625 4.56-0.00902 0.826-0.018 1.65-0.0273 2.5-0.0116 0.638-0.0232 1.28-0.0352 1.93-0.601 0.0251-1.2 0.0501-1.82 0.0759-2.71 0.116-5.41 0.239-8.12 0.362-1.42 0.059-1.42 0.059-2.87 0.119-0.899 0.0419-1.8 0.0838-2.72 0.127-1.25 0.055-1.25 0.055-2.52 0.111-1.95-0.00101-1.95-0.00101-2.95 1.21-0.126 2.75-0.189 5.48-0.203 8.23-0.00855 1.25-0.00855 1.25-0.0173 2.52-0.00947 1.76-0.016 3.52-0.0198 5.29-0.00968 2.69-0.0407 5.38-0.0723 8.07-0.00653 1.71-0.0118 3.42-0.0156 5.13-0.0123 0.802-0.0247 1.6-0.0374 2.43 0.0183 4.62 0.413 7.56 3.37 11.3 4.05 2.95 8.55 2.02 13.3 1.78 0.884 0.0735 1.77 0.147 2.68 0.223 2.29 3.44 2.18 4.99 2 9-6.62 2.08-16.2 2.37-22.7 0.0234-3.98-2.43-7.45-5.28-8.84-9.87-0.46-2.25-0.561-4.26-0.554-6.56 7.55e-5 -0.861 1.51e-4 -1.72 2.29e-4 -2.61 0.00516-0.92 0.0103-1.84 0.0156-2.79 0.00141-0.949 0.00283-1.9 0.00429-2.88 0.00559-3.03 0.0181-6.05 0.0309-9.08 0.00502-2.05 0.00958-4.11 0.0137-6.16 0.011-5.03 0.0283-10.1 0.0488-15.1-1.39-0.0909-1.39-0.0909-2.81-0.184-1.2-0.0838-2.4-0.168-3.63-0.254-1.19-0.0812-2.39-0.162-3.62-0.246-2.94-0.316-2.94-0.316-3.94-1.32-0.465-5.34-0.465-5.34 1.19-7.68 2.44-1.77 4.02-1.62 7-1.5 1.35 0.0406 1.35 0.0406 2.73 0.082 1.03 0.0522 1.03 0.0522 2.08 0.105 0.0198-0.595 0.0396-1.19 0.0601-1.8 0.0951-2.69 0.205-5.38 0.315-8.07 0.0309-0.937 0.0619-1.87 0.0938-2.84 0.0387-0.896 0.0773-1.79 0.117-2.71 0.0314-0.827 0.0628-1.65 0.0952-2.51 0.604-3.91 2.13-4.05 5.88-4.25z" fill="#444"/>
<path transform="translate(400,580)" d="m0 0h8c4.76 8.87 8.5 18 12.2 27.4 2.47 6.31 5.2 12.5 8.06 18.6 0.77 2.02 0.77 2.02 0.77 5.02 1.65 0.33 3.3 0.66 5 1 0.12-0.712 0.24-1.42 0.363-2.16 1.88-8.41 6.32-16.4 9.96-24.1 1.31-2.86 2.53-5.75 3.73-8.66 0.353-0.857 0.707-1.71 1.07-2.6 0.697-1.7 1.39-3.4 2.07-5.1 0.481-1.17 0.481-1.17 0.971-2.37 0.281-0.698 0.563-1.4 0.852-2.11 1.1-2.11 2.1-3.41 3.98-4.88 3.69-0.188 3.69-0.188 7 0 1.49 4.57-0.204 7.66-2.06 11.9-0.321 0.752-0.643 1.5-0.974 2.28-0.661 1.54-1.33 3.09-2 4.63-0.877 2.02-1.74 4.04-2.59 6.06-2.18 5.15-4.41 10.3-6.75 15.3-2.81 6.11-5.38 12.3-7.95 18.5-0.332 0.798-0.664 1.6-1.01 2.42-0.447 1.08-0.447 1.08-0.903 2.18-0.769 1.68-0.769 1.68-1.77 2.68-1.95 0.178-3.91 0.268-5.88 0.312-1.07 0.0374-2.14 0.0748-3.24 0.113-2.88-0.426-2.88-0.426-4.43-2.14-1.5-2.35-2.55-4.61-3.57-7.2-0.378-0.944-0.757-1.89-1.15-2.86-0.386-0.98-0.772-1.96-1.17-2.97-2.29-5.77-4.59-11.4-7.43-17-2.38-4.8-4.53-9.71-6.67-14.6-0.562-1.28-1.13-2.55-1.71-3.83-0.838-1.86-1.65-3.72-2.47-5.59-0.488-1.1-0.975-2.2-1.48-3.34-0.811-2.9-0.811-2.9 0.0459-5.29 0.377-0.531 0.754-1.06 1.14-1.61z" fill="#444"/>
<path transform="translate(373 829)" d="m0 0c3.44 0.188 3.44 0.188 4.44 1.19 0.0953 2.95 0.126 5.88 0.114 8.83 1.46e-4 0.927 2.92e-4 1.85 4.43e-4 2.81-7e-4 3.08-0.00849 6.16-0.0163 9.24-0.00186 2.13-0.00329 4.26-0.00429 6.39-0.00383 5.61-0.0137 11.2-0.0247 16.8-0.0102 5.72-0.0148 11.4-0.0198 17.2-0.0107 11.2-0.0278 22.5-0.0488 33.7-1.48 0.0269-2.96 0.0463-4.44 0.0625-1.24 0.0174-1.24 0.0174-2.5 0.0352-2.07-0.0977-2.07-0.0977-3.07-1.1-0.391-3.43-0.449-6.9-0.582-10.3-0.0428-1.1-0.0855-2.2-0.13-3.34-0.47-14-0.27-28.1-0.0464-42.1 0.0619-3.9 0.108-7.8 0.151-11.7 0.0352-3.03 0.0794-6.07 0.126-9.1 0.021-1.44 0.0389-2.88 0.0537-4.32 0.0215-1.99 0.0566-3.98 0.0925-5.97 0.0163-1.13 0.0327-2.26 0.0495-3.42 0.46-4.28 1.64-4.62 5.85-4.84z" fill="#444"/>
<path transform="translate(583,580)" d="m0 0c1.12 6.75 1.12 6.75 0 9-2.98 0.861-5.99 1.47-9.02 2.12-2.98 0.878-4.6 1.96-6.98 3.88h-2c-0.205 0.626-0.41 1.25-0.621 1.9-0.269 0.817-0.539 1.63-0.816 2.48-0.267 0.812-0.534 1.62-0.809 2.46-0.754 2.16-0.754 2.16-1.75 4.16-0.157 2.99-0.259 5.96-0.316 8.95-0.0208 0.885-0.0416 1.77-0.063 2.68-0.0655 2.83-0.124 5.67-0.183 8.5-0.0432 1.92-0.0868 3.84-0.131 5.75-0.107 4.71-0.208 9.41-0.307 14.1-1.65 0.0269-3.29 0.0463-4.94 0.0625-0.917 0.0116-1.83 0.0232-2.78 0.0352-2.29-0.0977-2.29-0.0977-3.29-1.1-0.11-1.92-0.149-3.84-0.161-5.76-0.00961-1.23-0.0192-2.46-0.0291-3.73-0.00485-1.36-0.00913-2.71-0.0129-4.07-0.00575-1.38-0.0115-2.76-0.0173-4.14-0.0105-2.9-0.0164-5.8-0.0198-8.7-0.00548-3.72-0.0295-7.44-0.058-11.2-0.0186-2.86-0.0238-5.71-0.0254-8.56-0.00303-1.37-0.0111-2.74-0.0242-4.11-0.017-1.92-0.0133-3.84-0.00869-5.75-0.00365-1.09-0.00729-2.18-0.011-3.31 0.367-2.71 0.367-2.71 1.66-4.57 2.76-1.84 5.5-1.32 8.71-1.14 0.99 2.31 1.98 4.62 3 7 0.557-0.41 1.11-0.82 1.69-1.24 6-4.24 11.8-8.04 19.3-5.76z" fill="#444"/>
<path transform="translate(1084 693)" d="m0 0c3.44 0.188 3.44 0.188 4.44 1.19 0.0952 2.83 0.126 5.64 0.114 8.47 1.46e-4 0.888 2.92e-4 1.78 4.43e-4 2.69-6.99e-4 2.95-0.00849 5.9-0.0163 8.85-0.00186 2.04-0.00329 4.08-0.00429 6.12-0.00383 5.38-0.0137 10.8-0.0247 16.1-0.0102 5.48-0.0148 11-0.0198 16.4-0.0107 10.8-0.0278 21.5-0.0488 32.3-1.48 0.0269-2.96 0.0463-4.44 0.0625-1.24 0.0174-1.24 0.0174-2.5 0.0352-2.07-0.0977-2.07-0.0977-3.07-1.1-0.106-2.76-0.147-5.49-0.145-8.25-0.00336-0.865-0.00672-1.73-0.0102-2.62-0.00954-2.87-0.0115-5.75-0.0125-8.62-0.00321-1.99-0.00657-3.98-0.0101-5.97-6e-3 -4.18-0.00784-8.35-0.00725-12.5 1.02e-4 -5.36-0.0136-10.7-0.0308-16.1-0.0111-4.11-0.0131-8.22-0.0126-12.3-0.00118-1.98-0.00563-3.95-0.0133-5.93-0.00975-2.76-0.00694-5.52-8.95e-4 -8.28-0.00562-0.823-0.0112-1.65-0.017-2.5 0.0434-7.77 0.0434-7.77 5.82-8.07z" fill="#444"/>
<path transform="translate(647,470)" d="m0 0c2.52 0.0672 5.01-0.00181 7.53-0.0625 2.33 0.0589 4.25 0.402 6.47 1.06v3c1.32 0.33 2.64 0.66 4 1v3h2v2c-29.4 2.53-59.7 4.26-89 0v-3c0.66-0.33 1.32-0.66 2-1-0.66-0.66-1.32-1.32-2-2 0.699-0.133 1.4-0.266 2.12-0.402 1.37-0.265 1.37-0.265 2.76-0.535 0.905-0.174 1.81-0.348 2.74-0.527 2.38-0.435 2.38-0.435 4.38-1.54 1.77-0.0729 3.54-0.0837 5.3-0.0625 1.06 0.00773 2.12 0.0155 3.21 0.0234 2.23 0.026 4.47 0.052 6.7 0.0781 1.06 0.00773 2.12 0.0155 3.21 0.0234 1.46 0.0174 1.46 0.0174 2.94 0.0352 2.4-0.0892 4.33-0.46 6.63-1.1 22.5-2.17 22.5-2.17 29 0z" fill="#DA4E2D"/>
<path transform="translate(514,590)" d="m0 0c4.64 2.94 7.79 7.01 10 12 0.495 3.47 0.495 3.47 1 7h-45c-1-3-1-3-0.398-4.87 3.24-6.36 6.98-10.8 13.4-14.1 0.722-0.392 1.44-0.784 2.19-1.19 6.18-1.79 13-1.54 18.8 1.19z" fill="#FCFDFD"/>
<path transform="translate(558 868)" d="m0 0c4.9 2.81 9.14 7.05 11.6 12.2 0.496 2.67 0.753 5.29 1 8-32.7 0.206-32.7 0.206-45-1 0.741-6.15 1.78-10.2 6.64-14.4 7.58-5.65 16.5-7.97 25.8-4.75z" fill="#FCFDFD"/>
<path transform="translate(836 729)" d="m0 0c4.88 2.77 8.32 6.97 10.4 12.2 0.495 3.47 0.495 3.47 1 7h-45c0-7.09 1.49-9 6-14 7.41-6.87 18-8.27 27.6-5.16z" fill="#FCFDFD"/>
<path transform="translate(833 859)" d="m0 0c3.38 0.312 3.38 0.312 4.38 1.31 0.0941 2.02 0.117 4.05 0.114 6.08-7.55e-5 1.3-1.51e-4 2.6-2.29e-4 3.94-0.00511 1.43-0.0103 2.86-0.0156 4.29-0.00186 1.46-0.00329 2.91-0.00429 4.37-0.00382 3.84-0.0137 7.68-0.0247 11.5-0.0102 3.91-0.0148 7.83-0.0198 11.7-0.0107 7.69-0.0278 15.4-0.0488 23.1-1.65 0.0269-3.29 0.0463-4.94 0.0625-0.917 0.0116-1.83 0.0232-2.78 0.0352-2.29-0.0977-2.29-0.0977-3.29-1.1-0.11-1.88-0.149-3.77-0.161-5.65-0.00961-1.21-0.0192-2.42-0.0291-3.66-0.00425-1.32-0.0085-2.63-0.0129-3.99-0.00575-1.36-0.0115-2.71-0.0173-4.07-0.0105-2.85-0.0164-5.7-0.0198-8.55-0.00548-3.65-0.0295-7.3-0.058-10.9-0.0186-2.8-0.0238-5.61-0.0254-8.41-0.0045-2-0.0231-4-0.042-6 3e-3 -1.22 6e-3 -2.44 0.00909-3.69-0.00365-1.07-0.00729-2.14-0.011-3.25 0.649-4.93 2.02-6.67 6.99-7.1z" fill="#444"/>
<path transform="translate(383 580)" d="m0 0c3.44 0.188 3.44 0.188 4.44 1.19 0.0941 2.06 0.117 4.11 0.114 6.17 1.46e-4 0.644 2.92e-4 1.29 4.43e-4 1.95-6.99e-4 2.14-0.00849 4.27-0.0163 6.41-0.00186 1.48-0.00329 2.96-0.00429 4.43-0.00382 3.9-0.0137 7.8-0.0247 11.7-0.0102 3.97-0.0148 7.95-0.0198 11.9-0.0107 7.8-0.0278 15.6-0.0488 23.4-7.75 0.125-7.75 0.125-10-1-0.0463-8.31-0.0819-16.6-0.104-24.9-0.0104-3.86-0.0246-7.72-0.0473-11.6-0.0217-3.72-0.0337-7.44-0.0389-11.2-0.0037-1.42-0.0109-2.84-0.0217-4.27-0.0145-1.99-0.0154-3.97-0.0156-5.96-0.00444-1.13-0.00888-2.27-0.0135-3.43 0.388-4.31 1.59-4.64 5.8-4.86z" fill="#444"/>
<path transform="translate(996,420)" d="m0 0c0.99 0.33 1.98 0.66 3 1v2c0.722-0.186 1.44-0.371 2.19-0.562 2.94-0.457 4.95-0.173 7.81 0.562v-2h4v5h-2c-0.309 0.619-0.619 1.24-0.938 1.88l-2.06 4.12h2v-2c0.99-0.33 1.98-0.66 3-1v2h-2c-0.205 0.626-0.41 1.25-0.621 1.9-0.269 0.817-0.539 1.63-0.816 2.48-0.267 0.812-0.534 1.62-0.809 2.46-0.754 2.16-0.754 2.16-1.75 4.16h-3c-0.66 1.32-1.32 2.64-2 4h-14v-3c-0.996 0.0174-0.996 0.0174-2.01 0.0352-8.77 0.0896-8.77 0.0896-13-1.04 0.0206-0.743 0.0412-1.49 0.0625-2.25-0.0558-2.45-0.369-4.41-1.06-6.75 3.87-1.81 7.36-3.15 11.6-3.94 4.32-0.887 7.07-2.21 10.4-5.06v-3l2-1z" fill="#D94E2D"/>
<path transform="translate(666 580)" d="m0 0c3.44 0.188 3.44 0.188 4.44 1.19 0.0941 2.02 0.117 4.05 0.114 6.08-7.55e-5 1.3-1.51e-4 2.6-2.29e-4 3.94-0.00511 1.43-0.0103 2.86-0.0156 4.29-0.00186 1.46-0.00329 2.91-0.00429 4.37-0.00382 3.84-0.0137 7.68-0.0247 11.5-0.0102 3.91-0.0148 7.83-0.0198 11.7-0.0107 7.69-0.0278 15.4-0.0488 23.1-1.48 0.0269-2.96 0.0463-4.44 0.0625-1.24 0.0174-1.24 0.0174-2.5 0.0352-2.07-0.0977-2.07-0.0977-3.07-1.1-0.105-1.95-0.139-3.91-0.145-5.86-0.00638-1.25-0.0128-2.51-0.0193-3.8-0.00153-1.38-0.00264-2.76-0.00337-4.14-0.00321-1.41-0.00657-2.81-0.0101-4.22-6e-3 -2.95-0.00784-5.9-0.00725-8.85 1.02e-4 -3.79-0.0136-7.58-0.0308-11.4-0.0111-2.91-0.0131-5.81-0.0126-8.72-0.00118-1.4-0.00562-2.79-0.0133-4.19-0.00976-1.95-0.00567-3.9-8.95e-4 -5.85-0.00143-1.11-0.00285-2.22-0.00432-3.37 0.403-4.28 1.63-4.59 5.81-4.81z" fill="#444"/>
<path transform="translate(385,427)" d="m0 0h4v2c0.66 0.33 1.32 0.66 2 1-0.254 1.48-0.529 2.96-0.812 4.44-0.151 0.824-0.302 1.65-0.457 2.5-0.241 0.682-0.482 1.36-0.73 2.07-0.99 0.33-1.98 0.66-3 1v3c0.99 0.33 1.98 0.66 3 1-0.99 0.33-1.98 0.66-3 1-0.33 1.32-0.66 2.64-1 4-3.3 0.33-6.6 0.66-10 1v-2c-0.811 0.0232-1.62 0.0464-2.46 0.0703-7.47 0.122-14.2-0.569-21.5-2.07-4.27-0.718-7.78-1.09-12 0-0.99-0.66-1.98-1.32-3-2 0.992-1.46 0.992-1.46 3-3 2.77-0.325 5.36-0.511 8.12-0.562 2.65-0.0622 5.23-0.204 7.88-0.438 0.33-0.66 0.66-1.32 1-2-0.743 0.165-1.49 0.33-2.25 0.5-5.22 0.696-10.5 0.964-15.8 0.5-0.66-0.66-1.32-1.32-2-2 2.83-0.339 5.67-0.671 8.5-1 1.19-0.143 1.19-0.143 2.4-0.289 5.07-0.582 10-0.805 15.1-0.711v-2c4-1.6 7.05-0.293 11 1 0.33-0.99 0.66-1.98 1-3 0.908-0.124 1.81-0.248 2.75-0.375 3.19-0.613 5.91-1.28 8.25-3.62z" fill="#D94E2D"/>
<path transform="translate(695,358)" d="m0 0 2 1c-0.33 19.8-0.66 39.6-1 60h-2c-0.195-2.94-0.381-5.87-0.562-8.81-0.0561-0.833-0.112-1.67-0.17-2.53-0.0483-0.802-0.0967-1.6-0.146-2.43-0.0471-0.738-0.0943-1.48-0.143-2.24 0.0217-1.99 0.0217-1.99 1.02-4.99h-2v16c-0.99 0.495-0.99 0.495-2 1v-14c-1.65-0.33-3.3-0.66-5-1-0.142-9.35-0.00745-18.7 1-28 1-1 1-1 3.56-1.06 0.804 0.0206 1.61 0.0412 2.44 0.0625-0.0232-0.615-0.0464-1.23-0.0703-1.86-0.018-0.808-0.0361-1.62-0.0547-2.45-0.0232-0.801-0.0464-1.6-0.0703-2.43 0.236-2.73 1.24-4.31 3.2-6.26z" fill="#D94E2D"/>
<path transform="translate(763,206)" d="m0 0c3.48-0.0289 6.96-0.0468 10.4-0.0625 1.49-0.0126 1.49-0.0126 3.01-0.0254 0.944-0.00322 1.89-0.00645 2.86-0.00977 1.31-0.00786 1.31-0.00786 2.65-0.0159 2.04 0.114 2.04 0.114 3.04 1.11 0.0867 1.49 0.107 2.98 0.0977 4.47-0.00322 0.899-0.00645 1.8-0.00977 2.72-0.0126 1.42-0.0126 1.42-0.0254 2.87-0.00451 0.949-0.00902 1.9-0.0137 2.88-0.0118 2.35-0.0283 4.71-0.0488 7.06-0.66-1.32-1.32-2.64-2-4-0.66 0.99-1.32 1.98-2 3h-4v-8h-2c-0.144 0.784-0.289 1.57-0.438 2.38-0.562 2.62-0.562 2.62-1.56 4.62 0.66 0.33 1.32 0.66 2 1h-3v-3h-6c-0.66-1.65-1.32-3.3-2-5h2c-0.777-3.06-0.777-3.06-3-6-3.28-1.14-6.55-1.63-10-2v-2c3.3-0.33 6.6-0.66 10-1v-1z" fill="#D84B2B"/>
<path transform="translate(601,352)" d="m0 0h1c1.29 10 1.07 20 0.979 30.1-0.071 8.99 0.0146 17.8 0.808 26.8 0.294 4.26 0.195 8.49 0.0525 12.8-0.0825 2.52-0.0825 2.52 2.16 4.33h-2c-0.33 0.99-0.66 1.98-1 3-1.32-0.66-2.64-1.32-4-2-0.0463-9.34-0.0819-18.7-0.104-28-0.0104-4.33-0.0246-8.67-0.0473-13-0.0217-4.18-0.0337-8.36-0.0389-12.5-0.0037-1.6-0.0109-3.19-0.0217-4.79-0.0145-2.23-0.0165-4.47-0.0156-6.7-0.00444-1.27-0.00888-2.54-0.0135-3.86 0.241-3.09 0.241-3.09 2.24-6.09z" fill="#DA4A2B"/>
<path transform="translate(660,420)" d="m0 0h10v2c1.32 0.33 2.64 0.66 4 1 0.33-0.66 0.66-1.32 1-2l2 1v5c-3.38 0.845-5.67 1.11-9 0 0.0206 1.26 0.0412 2.52 0.0625 3.81 0.0464 2.83-0.146 4.44-1.06 7.19h-6c-0.247-0.619-0.495-1.24-0.75-1.88-1.52-2.59-2.42-3.18-5.25-4.12-3.17-0.167-3.17-0.167-6 0v-6h6v-3c0.639-0.124 1.28-0.248 1.94-0.375 0.681-0.206 1.36-0.413 2.06-0.625 0.33-0.66 0.66-1.32 1-2z" fill="#DA4A2B"/>
<path transform="translate(834,408)" d="m0 0c2.6-0.293 2.6-0.293 5.62-0.188 1.5 0.0406 1.5 0.0406 3.04 0.082 0.771 0.0348 1.54 0.0696 2.34 0.105-0.33 0.99-0.66 1.98-1 3l2 1c-0.99 1.49-0.99 1.49-2 3-0.39 1.99-0.732 3.99-1 6h-2v5h-6c-0.558-1.77-1.1-3.54-1.62-5.31-0.302-0.986-0.603-1.97-0.914-2.99-0.461-2.7-0.461-2.7 1.54-5.7-0.66-0.33-1.32-0.66-2-1 0.66-0.99 1.32-1.98 2-3z" fill="#DA4A2B"/>
<path transform="translate(385 555)" d="m0 0c2.25 1.44 2.25 1.44 4.25 4.44 0.322 3.09 0.487 5.14-1.06 7.88-3.09 1.79-5.45 1.55-8.94 1.12-2.5-1.62-2.5-1.62-4-4-0.125-3-0.125-3 1-6 4.69-4.27 4.69-4.27 8.75-3.44z" fill="#444"/>
<path transform="translate(835 834)" d="m0 0c2.44 1.25 2.44 1.25 4.44 4.25-0.375 3.69-0.375 3.69-1 7-3.77 1.83-5.97 2.27-10 1-0.99-0.66-1.98-1.32-3-2-0.438-2.88-0.438-2.88 0-6 2.72-3.47 5.04-5.57 9.56-4.25z" fill="#444"/>
<path transform="translate(668 554)" d="m0 0c2.55 1.7 3.34 2.6 4.25 5.5 0.344 2.82 0.381 4.35-1.06 6.81-3.04 1.86-5.46 1.55-8.94 1.19-2.44-1.5-2.44-1.5-4-3 0.174-4.53 0.366-6.41 3.75-9.56 3.25-1.44 3.25-1.44 6-0.938z" fill="#444"/>
<path transform="translate(1052,246)" d="m0 0c0.66 0.33 1.32 0.66 2 1 0.228 3.21 0.429 6.42 0.625 9.62 0.0645 0.904 0.129 1.81 0.195 2.74 0.29 4.97 0.423 9.05-1.82 13.6-0.99 0.66-1.98 1.32-3 2v-11c-0.66-0.33-1.32-0.66-2-1v-14h2c0.66-0.99 1.32-1.98 2-3z" fill="#D84C2B"/>
<path transform="translate(901,284)" d="m0 0h2v3h2c0.33-0.66 0.66-1.32 1-2-0.564 3.27-1.5 4.83-4 7h3c0.33-0.99 0.66-1.98 1-3h2v4c-2.31 0.33-4.62 0.66-7 1-0.144 0.577-0.289 1.15-0.438 1.75-0.521 2.08-1.04 4.17-1.56 6.25h-2c-0.66-1.32-1.32-2.64-2-4-0.217 0.928-0.217 0.928-0.438 1.88-0.562 2.12-0.562 2.12-1.56 4.12h-2c0.66-1.65 1.32-3.3 2-5l-2-1c0.474-0.392 0.949-0.784 1.44-1.19 1.92-2.23 2.05-3.96 2.56-6.81 0.66-0.66 1.32-1.32 2-2h4v-4z" fill="#D94A2B"/>
<path transform="translate(820,381)" d="m0 0h1c1.25 14.2 1.25 14.2 0.438 20.6-0.634 5.32 0.158 10.1 1.09 15.3 0.515 3.31 0.574 6.38 0.48 9.71-0.00799 4.8 0.544 9.57 0.996 14.3h-2c-0.0606-0.782-0.121-1.56-0.184-2.37-0.0838-1.01-0.168-2.02-0.254-3.07-0.0812-1.01-0.162-2.02-0.246-3.06-0.0485-2.44-0.0485-2.44-1.32-3.5-1.29-9.05-1.15-18.3-1.12-27.4-0.00357-1.34-0.00748-2.68-0.0117-4.02 0.00129-1.28 0.00258-2.56 0.00391-3.88 0.00113-1.15 0.00226-2.3 0.00342-3.48 0.126-3.16 0.537-6.14 1.13-9.24z" fill="#D84C2B"/>
<path transform="translate(827,378)" d="m0 0h2v58c-3.82-5.72-3.15-12.7-3.13-19.4-9.57e-4 -0.884-0.00191-1.77-0.0029-2.68-6.77e-4 -1.86 0.00115-3.72 0.00534-5.58 0.00535-2.83 3.98e-5 -5.66-0.00635-8.49 6.61e-4 -1.81 0.00194-3.63 0.00391-5.44-0.00202-0.839-0.00405-1.68-0.00613-2.54 0.0187-4.73 0.352-9.2 1.14-13.9z" fill="#D84C2B"/>
<path transform="translate(1226,402)" d="m0 0h1c0.0374 0.615 0.0748 1.23 0.113 1.86 0.0657 0.808 0.131 1.62 0.199 2.45 0.058 0.801 0.116 1.6 0.176 2.43 0.314 2.33 0.314 2.33 2 3.74 2.07 2.09 2.07 3.69 2.32 6.59 0.0889 0.878 0.178 1.76 0.27 2.66-0.082 2.28-0.082 2.28-2.08 4.28-0.33-0.66-0.66-1.32-1-2-0.66 1.32-1.32 2.64-2 4-0.99-0.33-1.98-0.66-3-1 0.139-3.42 0.287-6.83 0.438-10.2 0.0393-0.968 0.0786-1.94 0.119-2.93 0.0419-0.935 0.0838-1.87 0.127-2.83 0.0367-0.859 0.0733-1.72 0.111-2.6 0.192-2.23 0.594-4.23 1.21-6.38z" fill="#DA4A2B"/>
<path transform="translate(585,436)" d="m0 0c0.66 0.99 1.32 1.98 2 3-3.16 2.11-3.95 2.25-7.56 2.19-1.18-0.00967-1.18-0.00967-2.38-0.0195-2.06-0.168-2.06-0.168-4.06-1.17v-2l-2-1c8.85-2.59 8.85-2.59 14-1z" fill="#DA4F2E"/>
<path transform="translate(284,417)" d="m0 0c2.48 0.99 2.48 0.99 5 2v2h2c2 3 2 3 1.62 5.69-0.206 0.763-0.413 1.53-0.625 2.31-1.32-0.33-2.64-0.66-4-1-0.124-0.928-0.124-0.928-0.25-1.88-0.563-2.31-0.563-2.31-2.81-3.38-0.639-0.248-1.28-0.495-1.94-0.75 0.33-1.65 0.66-3.3 1-5z" fill="#D94E2D"/>
<path transform="translate(357,436)" d="m0 0c-0.33 0.66-0.66 1.32-1 2-5.69 1.54-12.1 1.52-18 1-0.66-0.66-1.32-1.32-2-2 2.94-0.362 5.87-0.715 8.81-1.06 1.25-0.156 1.25-0.156 2.53-0.314 1.2-0.14 1.2-0.14 2.43-0.283 0.738-0.089 1.48-0.178 2.24-0.27 1.99-0.0701 1.99-0.0701 4.99 0.93z" fill="#DA4F2E"/>
<path transform="translate(1070,375)" d="m0 0c2 2 2 2 2.23 4.52-0.0105 1.04-0.0209 2.07-0.0317 3.14-0.00645 1.12-0.0129 2.24-0.0195 3.4-0.0168 1.18-0.0335 2.35-0.0508 3.56-0.00902 1.18-0.018 2.37-0.0273 3.59-0.0236 2.93-0.0566 5.86-0.0977 8.79-2.4-2.4-2.29-3.1-2.45-6.39-0.0432-0.873-0.0864-1.75-0.131-2.65-0.0354-0.915-0.0709-1.83-0.107-2.77-0.0471-0.903-0.0941-1.81-0.143-2.74-0.193-4.31-0.34-8.25 0.83-12.5z" fill="#D84C2B"/>
<path transform="translate(869,325)" d="m0 0h1c-0.468 4.78-1.24 8.04-4 12l2 1c0.33 0.99 0.66 1.98 1 3-0.33 0.66-0.66 1.32-1 2h-2v2c-0.99-0.33-1.98-0.66-3-1 0.282-1.79 0.576-3.58 0.875-5.38 0.162-0.998 0.325-2 0.492-3.02 0.633-2.6 0.633-2.6 2.63-4.6 0.714-1.98 1.39-3.98 2-6z" fill="#D84C2B"/>
<path transform="translate(1e3 472)" d="m0 0v4h-17v-1h5v-2c4.05-0.982 7.84-1.08 12-1z" fill="#DA4F2E"/>
<path transform="translate(1074 206)" d="m0 0c3.18 0.0694 5.42 0.447 8.12 2.25-0.33 0.99-0.66 1.98-1 3-2.06 0.688-2.06 0.688-4 1v-2h-8c-0.33-0.66-0.66-1.32-1-2 2-2 2-2 5.88-2.25z" fill="#D84C2B"/>
<path transform="translate(689,430)" d="m0 0h10c-0.33 1.32-0.66 2.64-1 4 0.33 0.99 0.66 1.98 1 3-2.31-0.33-4.62-0.66-7-1v-2h-2c-0.33-1.32-0.66-2.64-1-4z" fill="#DA4F2E"/>
<path transform="translate(1043,249)" d="m0 0c3.04 3.04 3.93 4.26 4.1 8.48-0.0116 0.893-0.0232 1.79-0.0352 2.71-0.00902 0.901-0.018 1.8-0.0273 2.73-0.0116 0.687-0.0232 1.37-0.0352 2.08-1.32-0.66-2.64-1.32-4-2v-14z" fill="#D84C2B"/>
<path transform="translate(549,284)" d="m0 0h1c0.816 3.59 1.16 6.95 1.19 10.6 0.0142 0.941 0.0284 1.88 0.043 2.85-0.23 2.52-0.23 2.52-2.23 5.52-1.03-3.4-1.13-6.52-1.12-10.1-0.00258-1.04-0.00516-2.09-0.00781-3.16 0.133-2.78 0.133-2.78 1.13-5.78z" fill="#D84C2B"/>
<path transform="translate(575,257)" d="m0 0c6.05-0.195 6.05-0.195 8 0 0.66 0.66 1.32 1.32 2 2-0.33 0.99-0.66 1.98-1 3h-8c-0.33-1.65-0.66-3.3-1-5z" fill="#D94D2D"/>
<path transform="translate(477,209)" d="m0 0c1.61 3.21 1.06 6.44 1 10h-4v-8c-1.32-0.33-2.64-0.66-4-1 3-1 3-1 7-1z" fill="#DA4F2E"/>
<path transform="translate(778,211)" d="m0 0h2c0.195 1.77 0.381 3.54 0.562 5.31 0.104 0.986 0.209 1.97 0.316 2.99 0.121 2.7 0.121 2.7-0.879 5.7-0.99 0.33-1.98 0.66-3 1-0.185-10.6-0.185-10.6 1-15z" fill="#DA4F2E"/>
<path transform="translate(581,233)" d="m0 0h9v3c-0.603 0.133-1.21 0.266-1.83 0.402-0.799 0.177-1.6 0.353-2.42 0.535-1.18 0.261-1.18 0.261-2.39 0.527-2.13 0.483-4.24 0.997-6.36 1.54v-2c0.99-0.33 1.98-0.66 3-1 0.33-0.99 0.66-1.98 1-3z" fill="#DA4F2E"/>
<path transform="translate(338,296)" d="m0 0c0.33 0.66 0.66 1.32 1 2h6v-2h2c-0.33 1.65-0.66 3.3-1 5-4.45 0.495-4.45 0.495-9 1-0.0427-1.67-0.0406-3.33 0-5l1-1z" fill="#D84C2B"/>
<path transform="translate(773,211)" d="m0 0h2c0.0541 1.77 0.0928 3.54 0.125 5.31 0.0232 0.986 0.0464 1.97 0.0703 2.99-0.195 2.7-0.195 2.7-2.2 5.7 0.66 0.33 1.32 0.66 2 1h-3c-0.185-10.6-0.185-10.6 1-15z" fill="#DA4F2E"/>
<path transform="translate(1e3 477)" d="m0 0v3h-12v-2c4.05-0.982 7.84-1.08 12-1z" fill="#DA4F2E"/>
<path transform="translate(314,296)" d="m0 0c0.66 0.33 1.32 0.66 2 1v11c-0.99-0.66-1.98-1.32-3-2-0.328-1.88-0.328-1.88-0.25-4 0.0232-1.05 0.0232-1.05 0.0469-2.12 0.203-1.88 0.203-1.88 1.2-3.88z" fill="#D84C2B"/>
<path transform="translate(242,375)" d="m0 0h1c-0.369 6.4-0.369 6.4-3.56 9.44-1.21 0.773-1.21 0.773-2.44 1.56-0.33-0.99-0.66-1.98-1-3 1.31-2.19 1.31-2.19 3-4h2c0.33-1.32 0.66-2.64 1-4z" fill="#D84C2B"/>
<path transform="translate(682,371)" d="m0 0h2c-0.114 1.6-0.242 3.21-0.375 4.81-0.0696 0.893-0.139 1.79-0.211 2.71-0.414 2.48-0.414 2.48-2.41 5.48-1.3-2.6-0.931-4.19-0.625-7.06 0.0902-0.898 0.18-1.8 0.273-2.72 0.352-2.21 0.352-2.21 1.35-3.21z" fill="#DA4F2E"/>
<path transform="translate(884,328)" d="m0 0h3v4c-0.33 0.33-0.66 0.66-1 1 0.409 2.05 0.409 2.05 1 4h-2c-0.33 0.66-0.66 1.32-1 2-1.29-7.43-1.29-7.43 0-11z" fill="#DA4A2B"/>
<path transform="translate(248,240)" d="m0 0c0.66 0.33 1.32 0.66 2 1v3c-1.26-0.124-2.52-0.248-3.81-0.375-1.06-0.104-1.06-0.104-2.14-0.211-2.04-0.414-2.04-0.414-5.04-2.41 2.99-1.49 5.71-1.12 9-1z" fill="#D84C2B"/>
<path transform="translate(459,461)" d="m0 0c-0.33 1.65-0.66 3.3-1 5h-6c-0.33-0.99-0.66-1.98-1-3 5.75-2 5.75-2 8-2z" fill="#D84C2B"/>
</svg>
